<?xml version="1.0" encoding="UTF-8" standalone="yes"?><svg xmlns="http://www.w3.org/2000/svg" xmlns:xlink="http://www.w3.org/1999/xlink" width="297.000mm" height="210.000mm" viewBox="0.000000 0.000000 297.000000 210.000000" stroke-linejoin="round" stroke-linecap="round" fill="none" fill-rule="evenodd"><desc>Composer Export</desc><script type="text/ecmascript"><![CDATA[
if(typeof(top) != "undefined")
{
	top.ShowPaper = ShowPaper;
}
function ShowHotSpot(evt,hotspotid)
{
	var svgDocument = evt.target.ownerDocument;
	var strId = "hotspot."+hotspotid;
	var hotspot = svgDocument.getElementById(strId);
	if(hotspot)
		hotspot.setAttribute("opacity",".5");
}
function HideHotSpot(evt,hotspotid)
{
	var svgDocument = evt.target.ownerDocument;
	var strId = "hotspot."+hotspotid;
	var hotspot = svgDocument.getElementById(strId);
	if(hotspot)
		hotspot.setAttribute("opacity","0");

	var toolTip = svgDocument.getElementById('ToolTip');
	if(toolTip)
		toolTip.setAttribute("visibility","hidden");
}
function ShowToolTip(evt,hotspotid,strTooltip)
{
	if(strTooltip=="")
	return;

	// change text
	var svgDocument = evt.target.ownerDocument;
	var tiptext = svgDocument.getElementById('ToolTipText');
	if( !tiptext )
	return;
	tiptext.firstChild.nodeValue = " " + strTooltip + "  " ;

	// show tooltip before, else some refresh issue

	var toolTip = svgDocument.getElementById('ToolTip');
	if(!toolTip)
	return;

	toolTip.setAttribute("visibility","visible");
	toolTip.setAttribute("opacity",".95");

	// move tooltip
	// get viewbox

	var root = svgDocument.documentElement;
	var vbox = (root.getAttribute("viewBox")).split(' ');
	var x0 = parseFloat(vbox[0]);
	var y0 = parseFloat(vbox[1]);
	var vboxW = parseFloat(vbox[2]);
	var vboxH = parseFloat(vbox[3]);

	// get default width of svg

	var strW = root.getAttribute("width");
	var svgW = parseFloat(strW);
	if(strW.indexOf('mm') != -1)
	svgW *= 3.779;

	var strH = root.getAttribute("height");
	var svgH = parseFloat(strH);
	if(strH.indexOf('mm') != -1)
	svgH *= 3.779;  	// 96 dpi  -> 96/25.4 = 3.779

	// update the viewbox / width / height if svg is embedded in html with zoom fit all
	var realx0 = x0;
	var realy0 = y0;
	var realvboxW = vboxW;
	var realvboxH = vboxH;
	var realsvgW = svgW;
	var realsvgH = svgH;

	if ((typeof(top) == "undefined") || (typeof(top.svgctl1) != "undefined")) // embedded in html
	{
		// get window size in pxl

		svgW = window.innerWidth;
		svgH = window.innerHeight;

		// calculate real viewbox

		realsvgW = svgW;
		realsvgH = svgH;
		if((svgW / svgH) > (vboxW / vboxH))
		{
			realvboxW = (vboxH * svgW) / svgH;
			realvboxH = vboxH;
			realx0 = x0 - (realvboxW - vboxW)/2 ;
		}
		else
		{
			realvboxH = (vboxW * svgH) / svgW;
			realvboxW = vboxW;
			realy0 = y0 - (realvboxH - vboxH)/2 ;
		}
	}

	// get user zoom/pan

	var newScale = root.currentScale;
	var translation = root.currentTranslate;

	// transform pxl to user unit

	var xPos = (((evt.clientX+10- translation.x)/newScale) * realvboxW)/realsvgW  + realx0 ;
	var yPos = (((evt.clientY+5- translation.y)/newScale) * realvboxH)/ realsvgH  + realy0 ;
	var scaleForWidth = ( (1 / newScale) * realvboxH) / realsvgH;

	// move tooltip

	toolTip.setAttribute("transform", "translate(" + xPos + "," + yPos + ")" );

	// resize tooltip

	var fontsize = 12;
	tiptext.setAttribute("font-size",fontsize*scaleForWidth);
	tiptext.setAttribute("y", fontsize*scaleForWidth);
	var tipBG = svgDocument.getElementById('ToolTipBG');
	var outline = tiptext.getBBox();
	if(tipBG)
	{
		tipBG.setAttribute("stroke-width", 1*scaleForWidth);
		tipBG.setAttribute("width", Number(outline.width) );
		tipBG.setAttribute("height", Number(outline.height) + fontsize*.5*scaleForWidth );
	}
	var ToolTipShadow = svgDocument.getElementById('ToolTipShadow');
	if(ToolTipShadow)
	{
		ToolTipShadow.setAttribute("width", Number(outline.width) );
		ToolTipShadow.setAttribute("height", Number(outline.height) + fontsize*.5*scaleForWidth );
		ToolTipShadow.setAttribute("x", 3*scaleForWidth);
		ToolTipShadow.setAttribute("y", 3*scaleForWidth);
	}
}
function ShowPaper()
{
  var svgDocument = getDocument();
  var paper = svgDocument.getElementById("paperID");
  if(paper)
  {
    paper.setAttribute("transform","scale(1)");
    paper.setAttribute("opacity","1");
    paper.setAttribute("visibility","visible");
  }
  var svg = svgDocument.getRootElement();
  if(svg)
  {
    svg.setAttribute("width","307.000mm");
    svg.setAttribute("height","220.000mm");
    svg.setAttribute("viewBox","-5.000000 -5.000000 307.000000 220.000000");
  }
}
]]></script><defs/><g><path style="fill:#000000;fill-opacity:0.098;fill-rule:evenodd" d="M151.60,0.32L154.00,0.36L154.00,0.65L151.89,0.60zM85.65,10.19L85.16,10.26L85.41,6.63L86.21,0.64L86.44,0.32L86.97,0.29zM129.31,66.60L137.84,1.17L138.01,0.33L150.92,0.31L147.91,23.83L145.39,49.25L144.65,54.79L142.62,59.81L141.36,64.34L140.86,68.38L140.86,75.09L141.87,81.89L141.87,85.49L141.37,90.78L141.37,92.82L142.90,91.55L144.06,90.20L145.15,87.91L145.14,89.02L144.65,91.80L144.14,93.04L143.52,93.93L142.80,95.99L142.53,96.80L148.69,100.23L148.67,101.86L147.84,102.03L140.38,102.04L139.78,102.27L139.60,104.62L139.33,105.62L138.78,105.80L140.10,106.57L142.88,107.05L144.89,107.81L146.17,108.80L147.69,109.54L147.83,110.91L178.91,128.19L178.62,129.79L173.24,129.94L173.54,130.21L186.65,137.49L186.43,139.11L173.57,139.04L172.82,138.75L172.33,138.82L170.06,156.47L170.05,158.92L171.07,161.92L171.32,163.94L171.32,167.04L170.81,170.05L169.56,173.84L167.28,177.85L165.30,192.98L163.96,194.16L151.67,194.15L149.43,192.87L137.00,192.87L136.77,194.16L124.74,194.16L121.00,192.11L119.21,191.89L100.56,181.52L100.50,181.30L141.88,181.15L142.65,175.02L140.60,174.77L138.97,173.99L138.59,174.84L136.57,174.77L135.09,174.00L134.57,174.85L133.48,175.01L133.25,176.03L119.88,176.26L119.48,179.13L114.38,179.05L114.10,178.77L118.71,178.62L118.99,178.13L118.98,176.26L90.51,176.04L77.60,168.71L99.53,168.49L100.08,168.29L101.12,160.67L78.19,160.41L76.67,160.18L74.44,159.39L69.90,156.87L69.39,156.38L67.10,155.61L67.02,155.15L67.52,154.86L70.92,154.63L65.84,154.64L63.00,152.92L63.06,152.45L64.27,152.11L72.83,151.87L77.11,150.85L93.80,150.85L101.85,151.86L111.16,152.11L114.47,152.68L114.87,150.10L115.43,149.92L119.48,117.90L118.13,117.45L120.25,100.26L109.15,100.01L104.26,99.51L116.71,99.27L107.86,94.19L107.81,93.95L119.73,93.73L117.94,92.68L117.88,92.46L118.36,92.19L131.81,92.29L132.05,91.25L132.32,91.19L135.09,92.52L135.34,92.06L136.84,80.20L136.84,76.10L136.09,72.57L135.83,72.07L134.57,71.82L133.60,70.03L132.31,68.79L128.54,66.77L124.42,66.78L121.22,90.81L120.66,90.81L121.15,85.66L123.66,66.52zM56.46,66.52L61.07,66.50L60.84,68.65L60.58,69.12L56.51,66.75zM74.18,78.06L74.34,80.20L79.20,82.89L80.23,83.64L80.23,84.50L79.65,85.18L78.43,85.17L73.41,82.36L73.07,82.36L71.59,83.16L70.30,83.16L72.08,82.40L73.16,81.47L73.93,79.43L73.93,77.82zM70.64,78.23L69.81,78.87L69.64,79.97L68.79,79.88L69.13,78.44L70.40,77.62zM40.95,78.86L40.86,80.12L44.97,82.39L46.75,83.63L46.75,84.75L46.40,85.16L44.95,85.17L39.93,82.36L38.11,83.16L36.82,83.16L38.83,82.37L40.12,80.89L40.44,79.96L40.42,77.60zM37.21,78.09L37.18,78.43L36.33,78.86L36.19,80.20L35.57,79.94L35.83,78.37L36.96,77.84zM135.59,80.47L131.97,80.62L129.71,81.39L127.54,82.99L126.16,84.92L125.68,85.00L126.25,82.21L127.94,79.61L130.46,77.86L132.97,77.10L135.59,77.09zM134.58,87.43L134.34,90.29L134.07,90.78L131.96,90.96L128.26,90.70L128.24,90.27L129.56,88.53L131.53,87.49L134.09,87.15zM126.76,88.02L127.29,85.76L128.80,83.75L130.96,82.38L132.72,81.88L135.35,81.89L134.83,85.24L131.71,85.65L129.96,86.41L128.80,87.27L127.42,88.96L126.96,89.03zM39.18,89.40L39.60,91.78L40.44,92.23L54.53,92.29L54.97,91.19L55.27,91.15L57.83,92.68L57.96,93.81L67.13,93.95L67.61,94.23L70.07,94.23L71.30,93.45L72.16,92.04L72.41,90.20L72.39,89.17L72.66,89.67L72.90,91.69L76.41,93.73L92.56,93.80L92.54,91.28L94.54,75.66L109.45,75.62L109.45,75.91L95.21,76.09L93.46,89.19L93.21,93.04L102.08,97.97L101.77,99.25L99.35,117.22L94.19,117.20L96.57,98.83L96.60,96.96L96.35,96.70L94.80,96.49L90.17,96.46L89.69,96.74L89.26,99.83L88.70,100.03L78.61,100.26L78.22,102.34L59.06,102.02L57.29,101.78L53.30,99.73L45.70,95.43L45.40,95.46L45.24,96.34L44.65,96.76L43.70,96.76L38.68,93.94L38.09,93.94L37.10,94.48L35.81,94.48L36.95,94.09L38.43,92.80L38.93,91.54L38.93,89.16zM69.14,89.81L68.37,90.28L68.15,91.78L67.53,91.52L67.53,89.96L68.42,89.55L68.89,89.20zM35.67,90.00L34.88,90.28L34.87,90.92L34.63,91.54L34.06,91.55L34.32,89.94L35.34,89.39L35.68,89.44zM34.85,91.92L35.14,91.97L35.19,92.26L34.90,92.21zM34.18,100.99L34.20,101.37L33.30,101.79L33.42,102.62L33.12,103.13L32.63,103.05L32.81,101.52L33.93,100.74zM37.75,101.12L38.18,103.28L42.71,105.79L43.73,106.53L43.73,107.66L43.14,108.35L42.45,108.34L36.94,105.29L35.34,106.07L33.54,106.05L35.08,105.81L36.56,104.77L37.16,103.86L37.42,103.12L37.66,101.00zM116.99,102.99L117.47,104.04L116.96,105.63L116.13,106.32L114.44,106.29L113.94,105.79L113.92,103.60L114.60,102.77L115.09,102.51L116.47,102.51zM83.99,103.52L83.99,104.89L83.73,105.38L82.66,106.32L81.19,106.32L80.44,105.57L80.44,103.85L81.62,102.51L83.24,102.51zM115.19,114.10L115.69,114.60L115.97,115.94L115.36,117.13L112.41,117.14L112.40,115.17L113.09,114.35L114.46,113.87zM81.72,114.10L82.48,115.10L82.47,116.20L82.14,117.13L79.12,117.20L78.92,116.91L78.94,115.43L79.61,114.34L80.99,113.87zM71.40,118.88L72.69,119.86L73.16,120.89L73.16,122.49L72.91,123.50L72.05,124.66L70.57,125.69L68.13,125.67L67.63,125.17L67.61,121.73L68.12,120.22L69.30,118.88L69.79,118.62L70.91,118.62zM86.49,135.76L90.55,136.55L90.59,136.79L87.67,136.23L87.16,141.38L88.61,141.44L87.14,141.76L86.89,142.01L86.66,145.66L90.45,145.82L91.27,145.64L91.55,145.16L91.70,143.53L92.02,143.50L93.04,144.12L93.30,143.53L93.05,146.92L86.67,146.82L84.40,147.07L82.15,147.85L78.61,147.83L76.35,148.33L74.42,148.33L73.13,148.10L72.56,147.82L76.44,147.85L74.06,147.11L74.05,146.83L77.85,147.34L80.16,146.81L80.21,146.57L79.34,146.03L79.59,145.79L81.21,145.91L81.64,143.78L82.25,143.87L82.47,141.54L80.86,141.04L82.73,140.87L82.73,139.01L80.36,139.01L80.14,141.55L79.20,141.54L77.06,141.01L77.30,140.77L79.70,140.87L80.19,138.58L82.22,138.62L82.71,135.73L83.47,136.01L83.37,138.10L84.24,138.11L84.66,135.22L85.22,135.22zM93.29,135.74L94.33,136.50L93.80,140.89L93.56,139.51L91.25,139.27L91.25,138.60L92.29,138.35L92.79,135.47zM98.36,137.00L97.74,141.54L98.60,142.02L99.42,142.23L97.74,142.54L97.07,147.43L94.19,147.15L94.27,146.66L96.57,146.67L97.32,143.13L97.32,142.04L94.88,141.71L94.99,141.57L97.34,141.60L97.58,141.14L97.82,137.34L98.06,136.49zM102.53,137.31L104.64,137.51L103.52,137.78L102.55,137.75L102.33,138.33L101.76,142.36L102.63,142.77L103.44,142.97L103.34,143.11L101.84,143.03L101.34,145.15L98.79,144.79L98.76,144.56L99.50,144.30L101.13,144.38L101.39,142.28L101.13,142.01L100.17,141.95L100.76,141.54L101.33,141.35L101.62,140.89L102.12,137.05L102.33,137.03zM106.05,137.49L110.70,137.53L110.70,137.82L106.81,138.03L106.48,138.40L106.34,137.77zM106.66,138.78L106.36,140.12L106.32,138.54L106.48,138.40zM73.77,137.68L72.54,138.02L72.55,138.58L73.43,138.78L72.91,143.30L72.57,145.06L72.31,148.68L73.94,148.84L72.82,149.09L67.78,149.18L68.80,140.78L69.29,137.50L73.70,137.53zM94.30,141.54L94.88,141.71L94.76,141.88L93.72,141.77L93.54,142.65L93.30,141.78L89.01,141.54L88.61,141.44L89.24,141.27zM76.46,141.58L76.48,141.85L75.10,141.82L75.69,141.29zM106.12,142.14L106.07,140.49L106.38,140.50zM106.15,142.57L105.97,143.21L105.86,143.06L103.44,142.97L105.12,142.59L105.39,142.30zM106.13,143.55L108.88,143.62L109.39,143.11L109.88,139.34L110.10,138.75L110.66,138.75L109.84,143.82L106.02,144.07L105.63,147.16L105.22,147.99L105.62,144.13L105.97,143.21zM79.69,143.40L79.65,142.00L79.94,142.01zM78.98,143.78L79.27,144.05L79.22,144.39L78.17,144.32L76.64,143.81L76.34,143.54L77.94,143.55zM109.91,144.77L109.15,149.17L103.85,149.10L101.44,148.25L105.22,147.99L105.55,148.91L108.66,148.93L109.34,144.28L109.63,144.28zM101.44,148.25L100.24,148.08L101.33,148.10zM136.09,96.73L137.36,97.26L137.29,97.73L134.32,97.74L133.22,97.59L133.22,96.47L134.82,96.49zM56.80,96.99L57.31,97.47L57.02,97.76L54.28,97.74L53.18,97.59L53.18,96.47L54.78,96.49zM124.43,102.48L125.01,102.55L125.07,102.82L124.74,102.82zM133.73,102.76L136.34,102.51L136.25,104.06L135.58,104.06L133.78,103.00zM142.87,111.60L145.66,112.86L145.42,114.43L142.12,113.10L139.78,112.57L139.60,113.72L139.01,113.70L139.34,110.57zM147.49,114.20L147.68,115.19L147.14,115.95L147.14,114.66L147.40,114.10zM144.40,115.61L144.39,116.47L141.10,115.88L140.02,115.10L141.62,115.11zM147.39,117.19L147.81,116.33L147.92,116.36L147.67,119.48L147.43,119.43zM84.21,139.03L86.76,139.26L86.75,141.03L83.13,141.05L83.46,139.06L83.75,138.76zM84.49,143.29L83.65,143.29L83.22,145.43L82.65,145.43L82.71,143.37L82.99,142.89L83.13,141.53L86.52,141.53L86.25,143.91zM83.22,146.44L82.63,146.39L82.61,146.07L82.99,146.03zM105.11,148.90L104.78,148.82L105.16,148.61zM90.01,153.38L93.02,154.39L93.57,155.14L93.49,155.63L92.46,155.89L87.49,155.90L87.50,153.95L87.67,153.11L89.02,153.12zM120.50,154.62L119.97,154.62L119.80,154.55L119.91,154.35L120.25,154.33zM116.27,154.28L117.48,154.62L113.91,154.96L113.91,154.47L116.20,154.17zM118.37,154.89L119.80,154.55L119.75,155.20zM108.15,155.87L107.83,155.95L107.91,155.63zM118.00,155.93L116.85,155.97L116.84,155.39L117.99,155.40zM75.47,156.12L75.37,156.64L72.81,157.15L71.54,156.89L74.11,156.66L74.64,156.44L74.86,155.88L75.17,155.82zM71.50,155.55L72.15,155.60L71.90,156.21L71.66,156.17zM71.50,155.55L71.32,155.62L70.04,155.97L70.02,155.39L71.38,155.39zM122.00,156.72L119.63,157.15L118.36,156.89L120.66,156.65L121.50,156.22L121.72,155.63zM118.69,156.25L118.37,156.24L118.38,155.63L118.95,155.58zM92.03,158.15L106.82,158.16L108.61,157.08L108.40,157.98L107.58,158.67L91.53,158.65L86.72,157.64L86.66,157.13zM122.45,157.87L120.88,157.90L122.49,157.62zM118.97,168.55L107.55,168.56L108.39,161.50L108.56,160.66L112.34,160.42L115.61,159.66L120.21,159.63zM107.08,167.73L106.59,168.50L100.75,168.56L101.27,163.18L101.57,160.97L101.77,160.67L107.90,160.66zM122.25,171.50L120.62,171.57L120.73,170.79L120.99,170.72zM118.22,171.50L116.60,171.57L116.87,170.74zM114.19,171.51L112.57,171.57L112.83,170.75zM110.16,171.51L108.55,171.50L108.91,170.71zM106.17,171.47L104.77,171.58L104.88,170.71zM102.39,171.47L101.00,171.58L101.10,170.71zM98.36,171.47L96.97,171.58L97.07,170.71zM94.56,171.50L92.94,171.58L93.05,170.71zM90.53,171.50L88.92,171.58L89.02,170.71zM86.51,171.50L84.89,171.58L84.99,170.71zM119.51,172.98L117.66,173.02L117.35,172.71L117.58,172.48L118.46,172.49zM94.33,172.78L94.34,173.06L92.51,172.99L92.43,172.50L93.55,172.49zM98.59,173.77L96.73,173.85L96.82,172.72zM90.54,173.77L88.67,173.85L88.77,172.72zM126.27,173.77L124.41,173.84L124.42,172.98L125.00,172.96zM114.22,173.74L112.32,173.84L112.38,173.31L112.61,172.99L112.91,172.96zM110.42,173.77L108.30,173.76L108.58,172.99L108.88,172.95zM106.64,173.77L104.52,173.76L104.81,172.99L105.10,172.95zM102.62,173.77L100.75,173.84L100.76,172.98L101.08,172.95zM122.24,173.78L120.38,173.77L121.50,173.25zM118.01,173.49L118.26,173.73L116.34,173.83L116.35,173.25zM94.58,173.75L92.67,173.81L92.68,173.51zM130.05,175.78L128.18,175.86L128.19,175.00L128.51,174.97zM126.02,175.78L124.15,175.85L124.25,175.07L124.52,175.00zM122.00,175.78L120.12,175.85L120.22,175.07L120.49,175.00zM117.97,175.78L116.09,175.85L116.36,175.03zM113.94,175.78L112.07,175.78L112.37,175.00L112.65,174.97zM110.17,175.78L108.30,175.78L108.59,175.00L108.88,174.97zM106.13,175.79L104.52,175.86L104.53,175.00L104.86,174.96zM102.11,175.79L100.49,175.86L100.51,175.00L100.83,174.96zM98.08,175.79L96.47,175.86L96.48,175.00L96.80,174.96zM94.09,175.75L92.44,175.86L92.45,174.99L92.77,174.97zM139.62,183.33L137.75,183.42L137.85,182.29zM135.59,183.33L133.73,183.42L133.82,182.29zM143.64,183.33L141.77,183.41L141.79,182.55L142.11,182.52zM131.56,183.33L129.69,183.41L129.71,182.54L130.28,182.53zM127.54,183.33L125.67,183.41L125.68,182.54L126.26,182.53zM123.76,183.33L121.88,183.40L121.99,182.62L122.49,182.54zM119.73,183.34L117.86,183.40L117.91,182.88L118.14,182.55L118.45,182.52zM115.70,183.34L113.83,183.40L113.89,182.88L114.12,182.55L114.43,182.52zM111.70,183.31L109.81,183.33L110.10,182.55L110.39,182.52zM107.68,183.31L105.78,183.33L106.07,182.55L106.36,182.52zM147.17,185.34L145.55,185.42L145.57,184.55L145.88,184.53zM143.13,185.35L141.52,185.42L141.53,184.56L141.86,184.53zM139.11,185.35L137.49,185.42L137.51,184.56L137.83,184.53zM135.11,185.32L133.47,185.42L133.48,184.56L133.80,184.53zM131.08,185.32L129.43,185.41L129.53,184.64L129.81,184.56zM127.31,185.32L125.66,185.41L125.76,184.64L126.03,184.56zM123.51,185.35L121.63,185.42L121.89,184.59zM119.48,185.35L117.61,185.42L117.87,184.59zM115.45,185.35L113.58,185.34L113.94,184.56zM111.43,185.35L109.81,185.42L109.91,184.55zM145.40,186.61L143.52,186.67L143.60,186.18L144.64,186.07zM121.54,186.60L121.51,186.92L120.21,186.85L120.13,186.08L120.72,186.05zM117.72,186.60L116.59,186.66L116.70,186.07zM150.72,187.33L149.32,187.43L149.43,186.56zM141.59,186.78L141.60,187.36L141.32,187.45L141.40,186.56zM138.86,187.36L137.24,187.43L137.34,186.56zM127.03,187.36L125.41,187.43L125.68,186.60zM114.94,187.36L113.58,187.43L113.69,186.56zM134.83,187.36L133.20,187.42L133.21,186.84L133.81,186.81zM131.06,187.36L129.42,187.42L129.44,186.84L130.04,186.81zM146.14,187.60L145.86,187.87L144.89,187.86L144.02,187.65L144.01,187.37L145.40,187.34zM120.98,187.60L120.94,187.84L119.70,187.87L119.11,187.64L119.09,187.37L120.50,187.33zM168.55,134.82L161.24,190.71L161.25,188.69L168.48,133.22L168.55,133.21z"/><g id="Actor_.0"><g style="stroke:#000000;stroke-width:0.176"><path d="M72.86,143.43L73.01,143.61"/><path d="M73.02,143.53L72.85,143.32L72.86,143.29L72.92,143.27L73.05,143.25"/><path d="M72.89,143.47L72.88,143.46"/><path d="M74.27,142.64L73.66,142.59L73.54,142.59L73.50,142.60L73.41,142.70L73.41,142.71L73.21,142.47L73.12,143.14"/><path d="M73.41,142.70L73.17,142.38L73.21,142.06L73.16,142.41"/><path d="M73.50,142.60L73.25,142.28L73.29,142.26L73.37,142.24L73.49,142.24L73.60,142.24L73.63,142.59"/><path d="M74.36,142.30L73.60,142.24L74.21,137.45"/><path d="M73.21,142.47L73.16,142.41L73.17,142.38L73.25,142.28L73.87,137.50"/><path d="M73.21,142.06L73.34,141.03L73.21,142.06"/><path d="M73.41,142.71L73.42,142.73L73.49,142.76L74.06,142.90"/><path d="M73.34,141.03L73.78,137.60"/><path d="M73.60,138.97L73.67,138.47"/><path d="M75.02,141.73L75.04,141.39L74.93,141.38L74.80,141.38L74.69,141.39L74.63,141.41L74.86,141.74L74.92,141.73L75.05,141.74L76.43,141.92"/><path d="M74.86,141.74L74.67,141.82L74.66,141.83L74.66,141.84L74.42,141.55L74.42,141.51L74.45,141.49L74.67,141.82"/><path d="M75.06,136.70L74.45,141.49L74.63,141.41L75.25,136.62"/><path d="M75.23,142.04L74.71,141.87L74.66,141.84"/><path d="M74.42,141.51L74.93,137.51"/><path d="M76.55,141.59L76.36,141.56L75.04,141.39L75.66,136.61"/><path d="M77.23,141.35L76.84,141.18L76.82,141.17L76.82,141.15L76.83,141.14L76.85,141.13L77.12,141.07L77.20,141.07L77.31,141.08L78.77,141.35L79.65,141.55L80.03,141.66"/><path d="M76.82,141.17L76.59,140.87L76.57,140.84L76.59,140.81L76.65,140.79L77.26,136.01"/><path d="M76.85,141.13L76.65,140.79L76.92,140.73L77.54,135.95"/><path d="M77.12,141.07L76.92,140.73L77.00,140.72L77.13,140.72L77.27,140.73L77.39,140.74L77.31,141.08"/><path d="M76.57,140.84L77.09,136.80"/><path d="M78.00,135.96L77.39,140.74L78.67,140.97L79.85,141.24L79.65,141.55"/><path d="M80.72,141.45L80.71,141.41L80.57,141.42L80.40,141.40L79.85,141.24L80.14,138.97L79.97,138.86L79.94,138.82L79.94,138.79L79.99,138.77L80.07,138.75L80.47,135.67"/><path d="M84.93,135.37L84.53,138.45L85.57,138.76L86.43,139.10L86.90,139.33L84.35,139.24L84.16,139.14L83.82,138.91L83.50,141.38L83.42,141.39L83.26,141.37L83.18,141.35L82.87,141.24L82.69,140.89L80.14,140.80L80.36,139.10L80.14,138.97"/><path d="M80.14,140.80L80.37,141.02L80.33,141.38L80.22,141.55"/><path d="M80.07,138.75L80.73,138.69L80.84,138.69L80.98,138.69L81.11,138.71L81.25,138.73L81.64,135.65"/><path d="M79.94,138.82L80.25,136.41"/><path d="M82.87,141.24L80.52,141.16L80.73,141.25L80.71,141.41L81.01,141.37L80.73,141.25"/><path d="M81.01,141.37L81.29,141.47"/><path d="M80.37,141.02L80.52,141.16"/><path d="M80.36,139.10L82.91,139.19L82.16,138.96L81.25,138.73"/><path d="M80.73,138.69L81.13,135.61"/><path d="M80.33,135.74L80.34,135.74"/><path d="M83.11,141.33L83.47,138.57L83.40,138.48L83.35,138.38L83.35,138.37L83.40,138.35L83.44,138.35L84.00,138.34L84.40,135.26"/><path d="M82.74,140.99L83.37,136.13"/><path d="M82.69,140.89L82.91,139.19"/><path d="M83.50,141.38L84.13,141.35L84.19,141.34L84.23,141.33L84.25,141.31L84.17,141.06L84.13,141.35"/><path d="M84.24,141.29L86.80,141.38L86.95,141.44L87.24,141.51L87.56,141.56L87.88,141.58L88.25,141.60L88.85,136.99"/><path d="M84.17,141.06L84.13,140.94L86.68,141.03L86.80,141.38"/><path d="M84.35,139.24L84.13,140.94"/><path d="M83.82,138.91L83.65,138.80L83.47,138.57"/><path d="M84.00,138.34L84.11,138.34L84.21,138.36L84.60,135.28"/><path d="M83.44,138.35L83.84,135.27"/><path d="M84.21,138.36L84.53,138.45"/><path d="M83.63,136.22L83.35,138.37"/><path d="M87.39,136.29L86.75,141.25"/><path d="M86.68,141.03L86.90,139.33"/><path d="M87.00,141.73L87.42,141.78L87.86,141.86"/><path d="M86.43,139.10L86.83,136.01"/><path d="M88.25,141.60L88.80,141.38L89.40,136.78"/><path d="M87.88,141.58L88.53,136.52"/><path d="M88.80,141.38L90.02,141.66L90.40,141.67L90.68,141.67L90.89,141.63L91.00,141.58L91.01,141.53L93.58,141.62L93.62,141.64L93.69,141.66L93.85,141.69L94.65,141.78L94.81,141.78L94.87,141.78L94.91,141.76L94.93,141.75L94.94,141.67L95.03,141.03L94.99,141.32L94.97,141.42"/><path d="M90.02,141.66L90.62,137.06"/><path d="M90.40,141.67L91.05,136.61"/><path d="M93.55,141.27L93.77,139.57L91.22,139.48L91.00,141.18L93.55,141.27L93.56,141.52L93.58,141.62"/><path d="M91.00,141.18L91.01,141.40L91.01,141.53"/><path d="M91.22,139.48L91.07,139.26L91.06,138.96L91.31,138.69L91.70,135.61"/><path d="M91.31,138.69L91.41,138.62L91.43,138.61L91.51,138.60L92.21,138.66L92.36,138.69L92.62,138.80L93.29,139.14L93.71,139.48L93.77,139.57"/><path d="M91.41,138.62L91.81,135.53"/><path d="M91.06,138.96L91.36,136.60"/><path d="M91.56,138.60L91.96,135.52"/><path d="M92.21,138.66L92.61,135.58"/><path d="M92.40,138.70L92.80,135.62"/><path d="M92.62,138.80L93.02,135.72"/><path d="M93.85,141.69L94.51,136.63"/><path d="M93.56,141.52L94.20,136.54"/><path d="M93.71,139.48L94.10,136.40"/><path d="M95.03,141.03L95.60,136.56"/><path d="M94.93,141.75L95.58,136.69"/><path d="M94.94,141.67L97.29,141.75L97.54,141.41L94.99,141.32"/><path d="M94.65,141.78L95.31,136.72"/><path d="M95.16,140.00L95.21,139.61L95.28,139.50L95.45,139.38L95.52,139.36L95.62,139.35L95.76,139.35L95.90,139.36L96.30,136.28"/><path d="M95.45,139.38L95.85,136.30"/><path d="M95.21,139.62L97.76,139.71L97.73,139.68L97.67,139.64L97.57,139.60L97.45,139.57L97.30,139.55L95.90,139.36"/><path d="M97.76,139.71L97.54,141.41L97.63,141.54L97.65,141.69L97.34,141.93L97.31,142.06L97.33,142.10L97.40,142.14L97.51,142.19L97.65,142.23L97.81,142.26L98.59,142.38L98.67,142.04L97.88,141.92L98.50,137.13"/><path d="M97.31,142.06L97.63,141.82L97.64,141.84L97.67,141.86L97.73,141.89L97.88,141.92L97.81,142.26"/><path d="M97.34,141.93L97.29,141.75"/><path d="M97.30,139.55L97.70,136.46"/><path d="M98.59,142.38L98.76,142.40L98.92,142.41L99.06,142.40L99.17,142.39L99.23,142.36L99.38,142.25L99.14,141.92L99.00,142.03L99.61,137.25"/><path d="M97.63,141.82L97.65,141.69L98.25,137.05"/><path d="M97.73,139.68L98.12,136.60"/><path d="M98.27,136.91L98.27,136.91"/><path d="M99.23,142.36L99.00,142.03L98.96,142.05L98.91,142.06L98.84,142.06L98.67,142.04L99.29,137.26"/><path d="M99.38,142.25L99.75,142.08L100.59,141.90L100.68,141.89L100.74,141.90L101.25,141.99L101.34,142.01L101.37,142.03L101.39,142.05L101.53,142.41L101.49,142.49"/><path d="M99.75,137.14L99.14,141.92L99.66,141.71L100.41,141.55L100.59,141.90"/><path d="M101.02,136.77L100.41,141.55L100.49,141.55L100.62,141.55L100.77,141.56L100.89,141.57L101.50,136.79"/><path d="M101.73,142.38L101.73,142.39L101.53,142.53"/><path d="M101.59,142.49L101.58,142.50L101.53,142.54"/><path d="M101.59,142.54L101.63,142.56L101.69,142.58L101.77,142.60L101.82,142.16L101.73,142.39L101.58,142.50L101.58,142.52L101.59,142.54"/><path d="M101.68,142.81L101.77,142.60L102.52,142.76L102.38,143.08L102.54,143.11L102.71,143.13L102.87,143.13L103.00,143.13L103.10,143.11L103.35,143.02L103.13,142.68L103.89,142.53L104.85,142.44L105.47,137.65"/><path d="M101.25,141.99L101.36,141.66L101.47,141.68L101.58,141.72L101.67,141.76L101.70,141.79L101.39,142.04"/><path d="M102.32,137.00L101.70,141.79L101.85,142.11L101.82,142.16"/><path d="M100.78,141.91L100.89,141.57L101.36,141.66L101.98,136.88"/><path d="M102.38,143.08L101.74,142.95"/><path d="M103.14,137.97L102.52,142.76L102.69,142.78L102.83,142.78L102.88,142.77L103.50,137.99"/><path d="M101.85,142.11L102.40,137.82"/><path d="M103.10,143.11L102.88,142.77L103.13,142.68L103.75,137.90"/><path d="M103.35,143.02L103.91,142.90L104.99,142.79L104.85,142.44L104.95,142.44L105.09,142.45L105.24,142.46L105.35,142.49L105.97,137.70"/><path d="M105.73,142.96L106.05,142.72L106.04,142.69L105.98,142.66L105.89,142.62L105.79,142.59L105.63,142.91L105.70,142.94L105.72,142.95L105.73,142.96L105.61,143.19"/><path d="M105.66,143.21L105.92,143.01L106.05,142.72L106.55,138.80"/><path d="M105.63,142.91L105.15,142.80L104.99,142.79"/><path d="M106.41,137.81L105.79,142.59L105.35,142.49L105.19,142.81"/><path d="M106.88,143.58L106.80,143.59L106.98,143.93L107.70,143.86L108.98,143.83L108.89,143.48L107.76,143.50L106.88,143.58"/><path d="M105.94,143.58L106.14,143.63L106.30,143.65L106.38,143.65L106.80,143.59L107.41,138.80"/><path d="M105.89,143.93L106.02,143.96L106.19,143.99L106.35,144.00L106.50,144.00L106.63,143.99L106.44,143.65L107.06,138.86"/><path d="M105.90,143.87L106.06,143.61L106.68,138.83"/><path d="M106.63,143.99L106.98,143.93"/><path d="M106.66,137.94L106.66,137.94"/><path d="M109.57,144.27L109.60,144.04L109.62,144.03L109.63,144.02L109.62,144.00L109.56,143.97L109.77,143.67L109.28,143.53L109.14,143.50L109.00,143.49L108.89,143.48L109.50,138.70"/><path d="M109.93,144.96L109.79,144.97"/><path d="M109.97,144.61L109.97,144.59L109.84,144.60"/><path d="M109.33,144.19L109.60,144.04"/><path d="M109.62,144.03L109.93,143.80L109.95,143.77L109.92,143.74L109.85,143.70L109.77,143.67L110.39,138.88"/><path d="M108.98,143.83L109.14,143.85L109.56,143.97"/><path d="M110.00,138.77L109.39,143.55L109.18,143.86"/><path d="M109.62,144.03L109.92,143.81"/><path d="M109.95,143.77L110.46,139.82"/><path d="M110.13,143.36L109.97,144.59L109.98,144.59"/></g><g style="stroke:#000000;stroke-width:0.529"><path d="M73.01,143.61L72.86,143.43L72.85,143.32L73.46,138.53L73.48,138.51L73.53,138.48L73.62,138.47L73.67,138.47L73.78,137.60L73.87,137.50L73.91,137.47L73.99,137.46L74.09,137.45L74.21,137.45L74.93,137.51L75.03,136.73L75.06,136.70L75.25,136.62L75.32,136.60L75.41,136.60L75.53,136.60L75.66,136.61L76.98,136.78L77.09,136.80L77.19,136.05L77.21,136.03L77.26,136.01L77.54,135.95L77.63,135.94L77.74,135.93L77.87,135.94L78.00,135.96L79.28,136.19L80.25,136.41L80.34,135.71L80.39,135.69L80.47,135.67L81.13,135.61L81.24,135.60L81.37,135.61L81.51,135.63L81.64,135.65L82.56,135.88L83.37,136.13L83.63,136.22L83.75,135.29L83.80,135.27L84.40,135.26L84.50,135.26L84.60,135.28L84.93,135.37L85.97,135.68L86.83,136.01L87.39,136.29L87.60,136.38L87.89,136.45L88.21,136.50L88.53,136.52L88.91,136.53L88.85,136.99L89.40,136.78L90.62,137.06L90.67,136.60L91.05,136.61L91.36,136.60L91.45,135.87L91.70,135.61L91.81,135.53L91.83,135.53L91.91,135.52L92.61,135.58L92.72,135.59L92.80,135.62L93.02,135.72L93.68,136.06L94.10,136.40L94.20,136.54L94.23,136.56L94.28,136.58L94.34,136.60L94.51,136.63L95.31,136.72L95.46,136.72L95.52,136.72L95.56,136.70L95.57,136.69L95.60,136.56L95.68,136.42L95.85,136.30L95.92,136.28L96.02,136.26L96.15,136.27L96.30,136.28L97.70,136.46L97.84,136.49L97.97,136.52L98.07,136.56L98.12,136.60L98.25,136.76L98.27,136.91L98.25,137.05L98.26,137.06L98.29,137.08L98.34,137.10L98.50,137.13L99.29,137.26L99.46,137.27L99.53,137.27L99.58,137.26L99.61,137.25L99.75,137.14L100.27,136.92L101.02,136.77L101.12,136.76L101.24,136.76L101.37,136.77L101.50,136.79L102.10,136.90L102.20,136.93L102.28,136.97L102.32,137.00L102.46,137.32L102.40,137.82L103.14,137.97L103.30,138.00L103.38,138.00L103.45,138.00L103.50,137.99L103.75,137.90L104.51,137.74L105.47,137.65L105.58,137.65L105.71,137.66L105.84,137.68L105.97,137.70L106.41,137.81L106.52,137.84L106.60,137.87L106.65,137.90L106.66,137.94L106.55,138.80L106.68,138.83L106.84,138.86L107.00,138.87L107.06,138.86L107.41,138.80L108.38,138.71L109.50,138.70L109.63,138.70L109.76,138.72L109.89,138.74L110.00,138.77L110.39,138.88L110.48,138.92L110.54,138.95L110.56,138.99L110.46,139.82L110.56,139.81"/></g></g><g id="Actor_.1"><g style="stroke:#000000;stroke-width:0.176"><path d="M81.57,148.19L83.48,147.61L86.31,147.29L89.83,147.27L93.77,147.55L97.80,148.10L101.59,148.88L103.62,149.47"/></g><g style="stroke:#000000;stroke-width:0.529"><path d="M104.48,149.47L104.24,149.37L101.21,148.49L97.67,147.76L93.91,147.24L90.24,146.99L86.95,147.01L84.30,147.30L82.52,147.85L81.57,148.19L81.52,148.24"/></g></g><g id="Actor_.2"><g style="stroke:#000000;stroke-width:0.176"><path d="M52.93,91.01L52.75,92.39L41.49,92.39L41.01,92.41L40.62,92.51"/><path d="M41.49,92.39L41.67,91.01"/><path d="M51.66,96.90L51.73,97.12L52.10,97.37L52.74,97.61L53.57,97.82L54.50,97.97L55.44,98.05L56.28,98.05L56.93,97.97L57.31,97.82L57.40,97.61L57.17,97.37L56.66,97.12L55.92,96.90L55.02,96.72L54.07,96.60L53.17,96.56L52.42,96.60L51.90,96.72L51.66,96.90"/><path d="M57.76,92.76L57.83,93.37L57.99,93.94L58.23,94.39L58.52,94.66L55.31,92.88L54.96,92.73L54.47,92.59L53.91,92.48L53.32,92.41L52.75,92.39"/><path d="M55.31,92.88L55.49,91.50"/><path d="M56.42,66.73L56.62,66.61L57.00,66.53L57.53,66.50L58.19,66.87L57.92,66.91L57.90,67.06L57.83,67.00L57.83,66.95L57.92,66.91"/><path d="M56.65,67.06L57.90,67.06L60.81,68.67L60.70,69.52"/><path d="M57.53,66.50L66.09,-0.00"/><path d="M57.55,66.52L61.08,66.50L60.81,68.67"/><path d="M58.52,94.66L68.19,94.66"/><path d="M66.16,92.05L57.79,92.05"/><path d="M58.19,66.87L61.04,66.87"/><path d="M60.09,68.97L60.77,68.97"/><path d="M70.48,94.66L72.99,94.66"/><path d="M73.18,92.05L92.43,92.05L92.40,92.72L92.47,93.37L92.63,93.94L92.87,94.39L93.16,94.66L93.34,93.28"/><path d="M101.24,99.15L93.16,94.66L77.88,94.66"/><path d="M85.70,10.37L84.98,10.37L86.32,-0.00"/><path d="M93.10,92.42L92.43,92.05L94.55,75.71L95.20,76.08"/><path d="M94.55,75.71L109.56,75.71L109.52,76.08"/><path d="M101.94,99.35L102.10,98.14"/><path d="M114.46,98.14L116.95,99.52L102.78,99.52"/><path d="M107.46,92.05L117.78,92.05L117.71,92.59L117.88,92.48L118.22,92.41L118.70,92.39L118.87,91.01L118.40,91.03L118.06,91.10L117.89,91.21L117.78,92.05"/><path d="M117.71,92.59L117.72,92.73L117.91,92.88L121.12,94.66L108.18,94.66"/><path d="M118.70,92.39L129.96,92.39L130.14,91.01"/><path d="M118.87,91.01L120.53,91.01L123.69,66.50L124.35,66.87"/><path d="M120.53,91.01L121.24,91.01"/><path d="M123.69,66.50L127.25,66.50L127.87,66.53L128.53,66.61L129.16,66.73L129.71,66.89L130.10,67.06L128.85,67.06"/><path d="M135.81,-0.00L127.25,66.50L127.91,66.87"/><path d="M132.00,102.23L129.33,102.23L134.75,105.24"/><path d="M129.96,92.39L130.52,92.41L131.12,92.48L131.68,92.59L132.17,92.73L132.52,92.88L147.26,101.06"/><path d="M132.29,68.97L133.55,68.97L130.10,67.06L138.74,-0.00"/><path d="M132.57,97.50L132.23,97.37L131.86,97.12L131.79,96.90L132.03,96.72L132.55,96.60L133.30,96.56L134.21,96.60L135.15,96.72L136.05,96.90L136.79,97.12L137.30,97.37L137.53,97.61L137.44,97.82L137.06,97.97L136.41,98.05L135.57,98.05L134.63,97.97L133.70,97.82L132.87,97.61L132.57,97.50"/><path d="M132.52,92.88L132.70,91.50"/><path d="M133.55,68.97L134.86,70.18L135.93,72.17L136.64,74.75L136.94,77.66L136.79,80.63L135.54,80.63"/><path d="M136.79,80.63L135.21,92.90L134.04,92.25"/><path d="M135.21,92.90L140.83,96.02"/><path d="M178.74,129.84L178.73,129.71L178.54,129.55L136.18,106.03"/><path d="M147.53,114.44L147.84,115.21L147.12,116.11L146.97,116.16"/><path d="M148.65,101.87L148.67,101.89L148.68,102.03"/><path d="M148.66,100.36L148.62,100.61"/><path d="M150.95,0.25L150.98,-0.00"/><path d="M151.76,-0.00L153.47,0.95L152.22,0.95"/><path d="M153.47,0.95L153.69,1.00"/><path d="M172.91,130.04L170.24,130.04L186.27,138.94L186.46,139.09L186.47,139.23"/><path d="M178.72,128.17L178.54,129.55"/><path d="M186.27,138.94L186.45,137.56"/></g><g style="stroke:#000000;stroke-width:0.529"><path d="M65.03,-0.00L56.42,66.73L56.44,66.89L56.65,67.06L60.10,68.97L60.70,69.52L57.79,92.05L57.76,92.76L55.49,91.50L55.13,91.35L54.65,91.21L54.08,91.10L53.49,91.03L52.93,91.01L41.67,91.01L41.19,91.03L40.85,91.10L40.68,91.21L40.52,92.46"/><path d="M78.24,102.60L77.58,102.23L59.22,102.23L58.66,102.21L58.07,102.14L57.50,102.03L57.02,101.89L56.66,101.74L45.32,95.44"/><path d="M87.03,-0.00L85.70,10.37L111.94,10.37L113.28,-0.00"/><path d="M93.16,93.04L93.11,92.85L93.10,92.42L95.20,76.08L109.52,76.08L107.46,92.05L107.42,92.72L107.49,93.37L107.65,93.94L107.91,94.40L108.18,94.66L114.46,98.14L102.10,98.14L93.34,93.28L93.24,93.19L93.16,93.04"/><path d="M121.27,90.82L121.24,91.01L130.14,91.01L130.70,91.03L131.29,91.10L131.86,91.21L132.34,91.35L132.70,91.50L134.04,92.25L135.54,80.63L135.69,77.66L135.39,74.75L134.67,72.17L133.61,70.18L132.30,68.97L128.72,67.00L128.33,66.91L127.91,66.87L124.35,66.89L121.27,90.82"/><path d="M136.41,104.68L132.00,102.23L143.76,102.23"/><path d="M172.32,138.77L173.38,139.14L173.85,139.26L174.91,139.41L185.48,139.43L185.96,139.41L186.30,139.34L186.47,139.23L186.65,137.85L186.64,137.71L186.45,137.56L172.91,130.04L177.76,130.04L178.23,130.02L178.57,129.95L178.74,129.84L178.92,128.46L178.91,128.32L178.72,128.17L137.84,105.48"/><path d="M139.09,110.68L140.08,110.91L143.41,111.95L145.93,113.07L147.43,114.17L147.53,114.44L147.30,114.73L147.15,114.78"/><path d="M148.85,100.53L148.66,100.36L140.83,96.02L141.85,85.55L141.91,82.54L141.51,79.64L140.81,75.05L140.68,70.23L141.14,65.50L142.15,61.16L143.66,57.49L144.57,55.14L145.08,52.32L147.63,26.01L150.95,0.25L152.22,0.95L152.43,1.00L153.69,1.00L153.90,0.91L154.08,0.68L154.23,0.35L154.30,-0.00"/><path d="M148.70,101.85L148.68,102.03L148.51,102.14L148.17,102.21L147.57,102.23"/></g></g><g id="Actor_.3"><g style="stroke:#000000;stroke-width:0.176"><path d="M113.67,155.46L113.78,155.17L114.32,154.96L115.21,154.85L116.36,154.85L117.66,154.96L118.94,155.17L120.09,155.46L120.96,155.79L121.48,156.13L121.58,156.44"/><path d="M113.72,155.52L114.02,155.84L114.72,156.18L115.73,156.48L116.94,156.73L117.16,156.76L118.23,156.89L119.45,156.95L120.47,156.89L121.19,156.73L121.51,156.48L121.42,156.18L120.91,155.84L120.04,155.52L118.92,155.24L117.65,155.03L116.38,154.92L115.24,154.92L115.10,154.94L114.36,155.03L113.83,155.24L113.72,155.52"/><path d="M115.67,155.64L115.66,155.65L115.71,155.80L115.97,155.97L116.40,156.13L116.97,156.27L117.60,156.38L118.24,156.43L118.81,156.43L119.25,156.38L119.51,156.27L119.57,156.13L119.57,156.13L119.52,156.25L119.25,156.36L118.81,156.41L118.24,156.41L117.60,156.36L116.97,156.25L116.40,156.11L115.97,155.95L115.72,155.78L115.67,155.64L115.83,155.52L116.19,155.44L116.49,155.43L116.47,155.44L116.36,155.48L116.23,155.51L116.04,155.54L115.91,155.57L115.80,155.60L115.73,155.64L115.71,155.67L115.74,155.70L115.82,155.72L115.93,155.74L116.24,155.73L116.39,155.76L116.49,155.80L116.50,155.81L116.53,155.88L116.49,156.02L116.52,156.08L116.59,156.13L116.71,156.17L116.84,156.19L116.98,156.19L117.12,156.17L117.38,156.09L117.56,156.07L117.75,156.10L117.77,156.10L117.94,156.15L118.20,156.30L118.34,156.35L118.48,156.38L118.62,156.39L118.72,156.38L118.79,156.34L118.82,156.29L118.78,156.14L118.81,156.08L118.90,156.05L118.91,156.05L119.04,156.06L119.35,156.14L119.45,156.15L119.51,156.14L119.53,156.12L119.50,156.08L119.43,156.03L119.33,155.97L119.03,155.84L119.20,155.91"/><path d="M116.06,155.73L116.06,155.73L116.07,155.72L116.07,155.70L116.07,155.67L116.08,155.53L116.04,155.54"/><path d="M116.58,155.83L116.58,155.83L116.55,155.76L116.54,155.75L116.42,155.70L116.26,155.67L116.07,155.67L115.95,155.67L115.85,155.67L115.79,155.65L115.76,155.63L115.77,155.63L115.75,155.63L115.76,155.63L115.76,155.63"/><path d="M115.76,155.63L115.76,155.64L115.76,155.64"/><path d="M116.05,155.54L115.92,155.57L115.81,155.60L115.76,155.63"/><path d="M115.75,155.63L115.75,155.64"/><path d="M115.77,155.62L115.77,155.62"/><path d="M115.77,155.62L115.77,155.63"/><path d="M116.08,155.53L116.24,155.50L116.37,155.47L116.48,155.44L116.51,155.43L116.49,155.43"/><path d="M116.55,155.76L116.60,155.42L116.64,155.42L116.58,155.83L116.55,155.93L116.55,155.94L116.53,155.95L116.52,155.96L116.50,155.96"/><path d="M116.54,155.97L116.54,155.97L116.57,156.03L116.63,156.08L116.73,156.11L116.85,156.13L116.97,156.13L117.09,156.11L117.19,156.07L117.19,156.09L117.20,156.11L117.21,156.12L117.22,156.13L117.23,156.14"/><path d="M116.54,155.97L116.54,155.99L116.55,155.93"/><path d="M116.60,155.42L116.51,155.43"/><path d="M116.64,155.42L116.70,155.42L117.31,155.44L117.95,155.52L118.56,155.65L118.77,155.71L118.89,155.77L118.79,155.72L118.74,156.09L118.74,156.09"/><path d="M118.09,156.24L118.10,156.23L118.12,156.23L118.13,156.21L118.14,156.20L118.14,156.19L117.97,156.10L117.79,156.04L117.77,156.03L117.56,156.01L117.36,156.03L117.19,156.07L117.27,155.44"/><path d="M118.22,155.58L118.14,156.19L118.24,156.25L118.36,156.29L118.49,156.32L118.60,156.33L118.69,156.31L118.75,156.28L118.78,156.24L118.76,156.19L118.77,156.20L118.78,156.21L118.79,156.22L118.80,156.23"/><path d="M119.01,155.83L119.03,155.84L118.96,155.81L119.01,155.83"/><path d="M118.89,155.77L118.96,155.81"/><path d="M119.20,155.91L119.24,155.93L119.22,156.04L119.03,156.00L118.89,155.99L118.87,155.99L118.78,156.02L118.74,156.08"/><path d="M118.77,156.20L118.74,156.10L118.74,156.09L118.74,156.07"/><path d="M119.57,156.13L119.42,155.97L119.07,155.80L118.77,155.71"/><path d="M118.79,155.86L118.78,156.02L118.81,155.73"/><path d="M118.79,155.72L118.77,155.71"/><path d="M118.76,156.19L118.76,156.19"/><path d="M118.78,156.24L118.78,156.25L118.78,156.25"/><path d="M119.22,156.11L119.21,156.10L119.21,156.09L119.22,156.07L119.22,156.04L119.33,156.07L119.42,156.09L119.48,156.08L119.49,156.07L119.48,156.07L119.49,156.07L119.49,156.07"/><path d="M119.24,155.93L119.32,155.97L119.42,156.02L119.48,156.07"/><path d="M119.49,156.07L119.51,156.10L119.50,156.10"/><path d="M121.66,155.72L121.34,155.39L120.64,155.05L119.61,154.74L119.45,154.71"/><path d="M121.64,155.68L121.33,155.35L120.63,155.01L119.61,154.70L119.50,154.68"/></g><g style="stroke:#000000;stroke-width:0.529"><path d="M120.72,154.53L121.64,155.68L121.65,155.69L121.66,155.71L121.66,155.72L121.58,156.44L121.57,156.45L121.56,156.47L121.23,156.72L121.22,156.73L121.20,156.73L120.49,156.89L119.46,156.95L118.23,156.89L116.94,156.73L115.72,156.48L114.70,156.18L114.01,155.84L113.99,155.83L113.68,155.50L113.67,155.49L113.67,155.47L113.67,155.46L113.73,154.82"/></g></g><g id="Actor_.4"><g style="stroke:#000000;stroke-width:0.176"><path d="M67.34,94.24L68.01,94.57L69.02,94.69L70.05,94.44L71.01,93.85L71.77,92.97L72.27,91.90L72.44,90.77L72.28,89.68L72.15,89.46L71.78,88.77L71.02,88.12"/><path d="M67.52,90.11L68.14,90.45L68.91,90.29L69.25,89.92L69.91,90.29L69.92,90.29L70.02,90.11L69.22,89.91L68.87,89.31L68.22,89.91L67.52,90.11L67.60,90.87L67.32,91.70L67.97,91.82L68.47,92.50L68.67,92.22L68.66,92.20L67.97,91.82"/><path d="M67.60,90.87L68.28,91.25L68.02,91.85"/><path d="M68.67,92.22L68.98,91.82L69.82,91.70L69.60,90.86L69.92,90.29"/><path d="M68.28,91.25L68.14,90.45"/><path d="M68.91,90.29L68.22,89.91"/><path d="M69.22,89.91L69.25,89.92"/><path d="M72.80,91.84L72.79,91.87L72.37,92.96L71.67,93.90L71.64,93.91"/></g><g style="stroke:#000000;stroke-width:0.529"><path d="M72.80,91.84L72.88,90.74L72.63,89.68L72.06,88.83L71.24,88.26L71.02,88.12L70.07,87.82L69.03,87.88L68.02,88.31L67.15,89.06L66.51,90.04L66.17,91.15L66.16,92.28L66.50,93.29L67.14,94.08L67.34,94.24L67.78,94.48L68.70,94.88L69.72,94.91L70.75,94.57L71.64,93.91"/><path d="M72.80,91.84L78.21,94.85L78.49,95.04L78.68,95.32L78.76,95.67L78.73,96.05L78.59,96.41L78.35,96.72L78.05,96.95L77.71,97.06L77.36,97.05L77.06,96.92L71.64,93.91"/></g></g><g id="Actor_.5"><g style="stroke:#000000;stroke-width:0.176"><path d="M63.01,152.74L63.45,152.47L64.30,152.30L65.48,152.24L65.83,149.47"/><path d="M65.48,152.24L72.02,152.24L72.38,149.47"/><path d="M69.57,156.82L70.05,156.91L71.62,157.10L72.65,157.16L72.86,157.08L73.08,157.05L73.32,157.08L73.55,157.16L74.36,157.10L75.23,156.91L75.63,156.61L75.51,156.23L74.89,155.82L73.84,155.43L72.46,155.09L70.91,154.83L69.36,154.70L68.36,154.70"/><path d="M73.55,157.16L74.31,157.25L74.91,157.37L75.41,157.53L75.76,157.69L75.91,157.85L75.85,157.99L75.59,158.09L75.16,158.15L74.59,158.15L73.96,158.09L73.33,157.99L72.78,157.85L72.35,157.69L72.10,157.53L72.05,157.37L72.21,157.25L72.56,157.17L72.65,157.16"/><path d="M72.02,152.24L76.36,151.17L76.72,148.41"/><path d="M76.36,151.17L77.15,151.05L78.15,151.00L92.61,151.00L92.96,148.24"/><path d="M78.15,151.00L78.51,148.24"/><path d="M107.74,155.77L107.83,155.82L107.77,156.30L107.69,156.30L107.67,156.33L108.63,157.33L108.50,158.22L107.33,158.94L92.02,158.94L88.36,158.25L85.10,157.39L82.48,156.42L80.69,155.43L79.84,154.47L80.01,153.61L81.16,152.91L81.48,152.91"/><path d="M92.02,158.94L92.10,158.34"/><path d="M92.61,151.00L93.76,151.05L94.99,151.17L95.35,148.41"/><path d="M94.99,151.17L103.17,152.24L103.53,149.47"/><path d="M103.17,152.24L109.72,152.24L111.11,152.30L112.59,152.47L114.01,152.74L115.22,153.09L116.11,153.47L116.46,150.71"/><path d="M107.33,158.94L107.45,158.02"/><path d="M107.77,156.30L108.68,156.30L107.83,155.82"/><path d="M107.67,156.33L107.69,156.18"/><path d="M109.72,152.24L110.07,149.47"/><path d="M116.11,153.47L118.92,155.03L119.14,154.87L120.00,154.42L120.60,154.44L121.10,154.82L121.66,155.69L122.15,156.82L121.97,156.91L121.10,157.10L120.29,157.16L121.05,157.25L121.66,157.37L122.16,157.53L122.50,157.69L122.65,157.85L122.59,157.99L122.33,158.09L121.90,158.15L121.27,158.14L120.70,158.09L120.08,157.99L119.52,157.85L119.09,157.69L118.84,157.53L118.79,157.37L118.95,157.25L119.31,157.17L119.39,157.16L118.37,157.10L116.79,156.91L115.31,156.61L114.08,156.23L113.23,155.82L112.86,155.43L113.00,155.09L113.64,154.83L114.72,154.70L114.94,154.69L114.50,154.65L113.87,154.55L113.31,154.41L112.88,154.25L112.63,154.08L112.58,153.93L112.75,153.81L113.10,153.73L113.60,153.70L114.21,153.73L114.85,153.81L115.45,153.93L115.95,154.08L116.29,154.25L116.44,154.41L116.39,154.55L116.13,154.65L115.84,154.69L115.70,154.65L115.44,154.62L115.14,154.65L114.94,154.69"/><path d="M118.92,155.03L117.65,154.83L116.10,154.70L115.84,154.69"/><path d="M119.39,157.16L119.60,157.08L119.82,157.05L120.06,157.08L120.29,157.16"/><path d="M122.15,156.82L124.97,158.39L125.45,158.77L125.48,159.11"/><path d="M124.97,158.39L125.33,155.63"/></g><g style="stroke:#000000;stroke-width:0.529"><path d="M69.46,156.58L69.57,156.82L74.60,159.62L75.49,160.00L76.70,160.34L78.12,160.61L79.59,160.79L80.99,160.85L110.34,160.85L111.34,160.81L112.13,160.68L116.47,159.62L123.01,159.62L124.20,159.56L125.04,159.38L125.48,159.11L125.83,156.35L125.81,156.01L125.33,155.63L123.14,154.41L116.46,150.71L115.57,150.33L114.36,149.98L112.95,149.71L111.47,149.54L110.07,149.47L103.53,149.47L95.35,148.41L94.12,148.29L92.96,148.24L78.51,148.24L77.50,148.29L76.72,148.41L72.38,149.47L65.83,149.47L64.65,149.54L63.80,149.71L63.37,149.98L63.01,152.74L63.04,153.09L63.52,153.47L66.34,155.03L66.90,154.83L67.97,154.70L68.36,154.70"/><path d="M107.69,156.18L107.74,155.77L107.35,155.56L106.44,155.56L106.28,155.54L103.56,154.52L100.23,153.63L96.47,152.91L81.48,152.91"/></g></g><g id="Actor_.6"><g style="stroke:#000000;stroke-width:0.176"><path d="M35.43,82.73L36.10,83.07L37.11,83.19L38.15,82.94L39.10,82.34L39.87,81.47L40.37,80.40L40.54,79.26L40.37,78.18L39.88,77.27L39.11,76.62"/><path d="M36.38,79.75L35.69,79.36L35.41,80.20L36.07,80.32L36.56,81.00L37.07,80.32L37.91,80.20L37.69,79.36L38.12,78.61L37.32,78.41L37.34,78.42L37.00,78.79L36.23,78.95L36.38,79.75L36.11,80.35L36.07,80.32"/><path d="M35.69,79.36L35.61,78.61L36.31,78.41L36.97,77.81L37.32,78.41"/><path d="M35.61,78.61L36.23,78.95"/><path d="M36.11,80.35L36.76,80.70L36.77,80.72"/><path d="M36.31,78.41L37.00,78.79"/><path d="M37.34,78.42L38.00,78.79L38.01,78.79"/><path d="M39.74,82.41L39.76,82.40L40.47,81.46L40.89,80.37L40.89,80.34"/></g><g style="stroke:#000000;stroke-width:0.529"><path d="M40.89,80.34L40.98,79.23L40.72,78.18L40.16,77.33L39.34,76.76L39.11,76.62L38.16,76.31L37.12,76.38L36.11,76.81L35.24,77.55L34.60,78.54L34.26,79.65L34.26,80.78L34.59,81.79L35.23,82.58L35.43,82.73L35.88,82.98L36.79,83.38L37.82,83.41L38.84,83.07L39.74,82.41"/><path d="M40.89,80.34L46.31,83.34L46.58,83.53L46.77,83.82L46.85,84.17L46.82,84.55L46.68,84.91L46.45,85.22L46.14,85.45L45.80,85.56L45.46,85.55L45.15,85.42L39.74,82.41"/></g></g><g id="Actor_.7"><g style="stroke:#000000;stroke-width:0.176"><path d="M72.80,149.25L72.97,149.29L72.96,149.33"/><path d="M74.45,148.97L73.60,148.90L72.38,148.86L72.28,148.87L72.19,148.88L72.14,148.90L72.12,148.93"/><path d="M72.38,148.86L72.49,148.07L72.54,148.09L72.63,148.13L73.76,148.42L74.93,148.66L74.91,148.85"/><path d="M73.72,147.10L73.91,147.02L73.98,147.00L74.07,146.99L74.19,146.99L74.32,147.00L74.94,142.22L74.82,142.21L74.69,142.21L74.59,142.22L74.53,142.24L74.34,142.32L73.72,147.10L73.69,147.13L74.21,143.13L73.49,143.07L72.87,147.85L72.75,147.85L72.65,147.86L72.57,147.87L72.53,147.89L72.44,148.00L72.44,148.03L72.47,148.06L72.49,148.07"/><path d="M72.87,147.85L74.17,147.96L75.48,148.12L76.04,148.22L76.21,148.23L76.28,148.23L76.34,148.22L76.37,148.21L76.59,148.06L76.60,148.03"/><path d="M72.44,148.00L72.68,146.18L72.54,147.21"/><path d="M72.53,147.89L73.15,143.11L73.18,143.09L73.27,143.07L73.38,143.06L73.49,143.07L73.60,142.86"/><path d="M72.68,146.18L72.94,144.12L72.81,145.15"/><path d="M73.06,143.21L72.94,144.12L72.95,144.08L72.81,144.10L72.75,144.12"/><path d="M72.95,144.08L72.96,143.97"/><path d="M73.07,149.31L72.97,149.29"/><path d="M75.48,148.12L75.53,147.75L74.78,147.55L73.81,147.23L73.74,147.19L73.70,147.16L73.69,147.13"/><path d="M73.91,147.02L74.53,142.24L74.82,142.02"/><path d="M73.46,142.88L73.46,142.89"/><path d="M74.93,148.66L75.39,148.73"/><path d="M74.32,147.00L75.64,147.17L76.91,147.40L77.53,147.53L77.69,147.54L77.76,147.54L77.80,147.53L78.20,144.48L78.52,144.57L78.55,144.59L78.54,144.65L78.57,144.64L78.58,144.62L78.55,144.59"/><path d="M74.23,142.92L74.21,143.13"/><path d="M74.63,142.11L74.64,142.10"/><path d="M80.30,146.05L80.62,143.61L81.54,143.84L82.28,144.06L82.59,141.72L82.65,141.66L82.03,146.52L81.23,146.28L80.30,146.05L80.17,146.02L80.03,146.01L79.90,146.00L79.79,146.00L80.10,143.57L79.78,143.60L79.97,142.14L79.74,142.07L78.56,141.80L77.28,141.57L77.16,141.56L77.02,141.55L76.90,141.55L76.82,141.56L76.54,141.62L76.28,143.64L76.22,143.66L76.20,143.69L76.37,142.41L76.25,142.39L74.94,142.22L74.99,142.01"/><path d="M76.04,148.22L76.09,147.88L75.90,147.84L75.53,147.75"/><path d="M83.26,145.68L83.58,143.24L83.42,143.22L83.38,143.22L83.06,145.65L83.16,145.66L83.26,145.68L83.59,145.77L84.63,146.08L85.49,146.41L86.05,146.69L86.17,146.74L82.32,146.89L79.25,147.33L77.17,148.04L76.80,148.40"/><path d="M76.59,148.06L76.61,148.04L76.60,148.02L76.56,148.00L76.50,147.98L76.40,147.95L76.37,148.21"/><path d="M76.09,147.88L76.40,147.95"/><path d="M76.91,147.40L77.32,144.20L77.85,144.38L77.44,147.51"/><path d="M79.31,143.70L79.31,143.70L79.26,144.05L78.30,143.82L77.02,143.60L76.89,143.58L76.76,143.57L76.65,143.57L76.56,143.58L76.28,143.64"/><path d="M76.56,143.58L76.82,141.56L77.09,141.35"/><path d="M77.02,143.60L77.28,141.57L77.27,141.35"/><path d="M76.20,143.69L76.22,143.72L76.27,143.76L77.02,144.10L77.32,144.20"/><path d="M76.37,142.41L76.39,142.20"/><path d="M76.49,141.64L76.54,141.62L76.81,141.41"/><path d="M80.18,148.24L80.05,148.14L79.81,148.04L79.49,147.96L79.13,147.90L78.76,147.86L78.42,147.86L78.15,147.88L77.98,147.94L77.93,148.02L78.00,148.11L78.19,148.21L78.33,148.25"/><path d="M77.80,147.53L80.50,146.95L80.51,146.87"/><path d="M77.85,144.38L77.98,144.42L78.20,144.48"/><path d="M79.62,141.83L79.74,142.07L79.54,143.62L79.44,143.63L79.13,146.07L79.05,146.08L79.00,146.11L78.99,146.14L79.20,144.51L78.54,144.65"/><path d="M79.13,146.07L79.79,146.00"/><path d="M78.99,146.14L79.03,146.18L79.48,146.45L80.10,146.71L80.50,146.86L80.54,146.88L80.57,146.90L80.57,146.92L80.55,146.94L80.50,146.95"/><path d="M79.20,144.51L79.26,144.05"/><path d="M79.54,143.62L79.78,143.60"/><path d="M79.44,143.63L79.36,143.65L79.31,143.67L79.31,143.70"/><path d="M80.10,143.57L80.21,143.56L80.35,143.57L80.49,143.59L80.62,143.61"/><path d="M79.97,142.14L80.00,141.94"/><path d="M80.04,141.63L82.59,141.72"/><path d="M80.62,148.24L80.62,148.17L81.59,147.52L81.24,147.61L80.21,148.24"/><path d="M81.59,147.52L83.39,147.08L86.39,146.81L90.03,146.83L90.31,146.85L90.13,146.58L90.11,146.27L90.36,146.01L90.47,145.93L90.78,143.49L90.84,143.48L90.93,143.48L90.62,145.92L90.52,145.92L90.47,145.93"/><path d="M82.03,146.52L82.49,146.69L82.57,146.71L82.74,146.72L83.44,146.69L83.46,146.58"/><path d="M82.43,146.67L82.53,145.88L82.71,146.12L83.21,146.46L83.52,146.61L83.55,146.63L83.56,146.65L83.54,146.67L83.50,146.68L83.44,146.69"/><path d="M82.81,146.72L82.87,146.23"/><path d="M83.06,145.65L82.50,145.66L82.43,145.67L82.41,145.68L82.41,145.70L82.45,145.79L82.53,145.88"/><path d="M82.50,145.66L82.81,143.23L82.74,143.24L82.72,143.25L82.41,145.68"/><path d="M83.08,141.61L82.87,143.23L83.38,143.22"/><path d="M82.87,143.23L82.81,143.23"/><path d="M82.65,141.66L82.83,141.52"/><path d="M83.59,145.77L83.91,143.33L84.95,143.64L85.80,143.97L85.49,146.41"/><path d="M83.91,143.33L83.58,143.24"/><path d="M83.83,143.31L84.02,141.77L86.57,141.86L86.76,141.66"/><path d="M83.26,143.22L83.46,141.66"/><path d="M84.10,141.63L84.09,141.70L84.02,141.77"/><path d="M84.09,141.70L84.16,141.62"/><path d="M86.05,146.69L86.69,141.73"/><path d="M86.17,146.74L86.29,145.82L86.38,145.85L86.67,145.92L86.99,145.97L87.31,146.00L87.69,146.01L88.24,145.80L88.77,141.66"/><path d="M86.57,141.86L86.27,144.20L85.80,143.97"/><path d="M87.31,146.00L87.84,141.86"/><path d="M87.69,146.01L88.22,141.87"/><path d="M88.24,145.80L89.45,146.07L89.83,146.09L90.37,141.95"/><path d="M90.11,146.27L90.14,146.08L89.83,146.09"/><path d="M102.80,148.73L104.17,149.10L104.03,149.03L104.01,148.99L103.97,148.98L99.63,148.04L94.98,147.33L90.32,146.89L90.31,146.85"/><path d="M89.99,141.93L89.45,146.07"/><path d="M90.14,146.08L90.43,143.83L90.68,143.57L90.36,146.01"/><path d="M90.62,145.92L91.27,145.97L91.58,143.53L90.93,143.48"/><path d="M91.27,145.97L91.38,145.99L91.46,146.01L91.77,143.58L91.69,143.55L91.58,143.53"/><path d="M91.46,146.01L91.68,146.12L92.34,146.46L92.76,146.79L93.08,144.36L93.14,144.45L93.44,142.10L93.50,141.95L92.86,146.94L92.76,146.79"/><path d="M90.68,143.57L90.78,143.49"/><path d="M93.44,142.10L90.90,142.01L90.70,143.55"/><path d="M90.96,141.86L90.90,142.01"/><path d="M91.68,146.12L91.99,143.68L91.77,143.58"/><path d="M91.99,143.68L92.66,144.02L93.08,144.36"/><path d="M92.86,146.94L92.89,146.96L93.00,147.00L93.17,147.03L93.82,141.97"/><path d="M93.17,147.03L93.97,147.11L94.05,147.12L94.18,147.11L94.22,147.10L94.24,147.08L94.26,146.95L94.34,146.82L94.51,146.70L94.58,146.67L94.68,146.66L94.81,146.66L94.96,146.68L95.27,144.24L96.67,144.42L96.36,146.86L94.96,146.68"/><path d="M93.50,141.95L93.54,141.90"/><path d="M93.97,147.11L94.62,142.05"/><path d="M94.24,147.08L94.89,142.02"/><path d="M94.26,146.95L94.63,144.12L94.58,144.50L94.65,144.38L94.82,144.26L94.51,146.70"/><path d="M95.27,144.24L95.13,144.23L95.00,144.22L94.89,144.24L94.82,144.26"/><path d="M94.63,144.12L94.89,142.09L94.76,143.09"/><path d="M94.88,142.15L97.43,142.24L97.13,144.59L97.10,144.56L96.78,146.99L96.91,147.15L96.93,147.31L97.55,142.52L97.54,142.48"/><path d="M94.89,142.09L94.90,141.94"/><path d="M96.36,146.86L96.50,146.89L96.63,146.92L96.73,146.96L96.78,146.99"/><path d="M96.93,147.31L96.91,147.43L96.92,147.46L96.95,147.48L97.00,147.50L97.16,147.53L97.77,142.75L98.57,142.87L98.31,144.90L101.40,145.45L101.26,145.42L101.23,145.39L101.21,145.37L101.22,145.35L101.36,145.25L101.46,145.02L101.40,145.45"/><path d="M97.16,147.53L101.80,148.37L101.96,148.39L102.11,148.39L102.16,148.38L102.41,148.30L103.17,148.14L104.13,148.05L104.24,148.05L104.37,148.06L104.50,148.08L104.63,148.10L105.24,143.32L105.13,143.29L104.99,143.27L104.85,143.27L104.74,143.27L104.13,148.05"/><path d="M96.67,144.42L96.82,144.45L96.94,144.48L97.04,144.52L97.10,144.56"/><path d="M97.77,142.53L97.77,142.75L97.62,142.71L97.57,142.69L97.53,142.67"/><path d="M98.31,144.90L98.47,144.91L98.60,144.90L98.63,144.89L98.77,144.78L99.29,144.56L100.04,144.41L100.30,142.38L100.39,142.37L100.52,142.37L100.66,142.39L100.78,142.40L100.75,142.18"/><path d="M98.63,144.89L98.89,142.86L98.86,142.88L98.73,142.89L98.57,142.87L98.56,142.65"/><path d="M98.77,144.78L99.03,142.75L99.55,142.54L100.30,142.38L100.56,142.17"/><path d="M99.17,142.65L98.89,142.86"/><path d="M100.04,144.41L100.14,144.40L100.26,144.40L100.39,144.41L100.99,144.51L101.11,144.54L101.22,144.57L101.29,144.61L101.34,144.64L101.48,144.96L101.46,145.02"/><path d="M100.52,144.43L100.78,142.40L101.25,142.49L100.99,144.51"/><path d="M101.48,144.96L101.70,143.23"/><path d="M101.34,144.64L101.60,142.62L101.56,142.58L101.48,142.55L101.36,142.51L101.25,142.49L101.22,142.27"/><path d="M101.68,143.43L102.41,143.59L101.80,148.37"/><path d="M102.41,148.30L103.03,143.51L103.78,143.36L104.74,143.27L104.96,143.06"/><path d="M102.16,148.38L102.77,143.60L102.72,143.61L102.66,143.61L102.58,143.61L102.41,143.59L102.35,143.36"/><path d="M103.06,143.38L102.77,143.60L103.03,143.51L103.32,143.29"/><path d="M105.31,149.47L105.24,149.45L104.64,149.25L104.85,149.29L105.16,149.33L104.01,148.99"/><path d="M104.66,149.05L104.68,148.90L104.55,148.95L104.52,148.96L104.52,148.98L104.55,149.00L104.59,149.03L105.34,149.23L105.50,149.26L105.59,149.26L105.72,149.26L106.33,144.47L106.69,144.41L106.07,149.20L107.04,149.11L108.16,149.09L108.29,149.10L108.42,149.11L108.55,149.14L108.66,149.17L109.28,144.38L109.14,144.14"/><path d="M104.17,149.10L104.35,149.15L104.64,149.25"/><path d="M104.68,148.90L104.81,148.86L105.20,148.62L105.33,148.33L105.31,148.30L105.26,148.27L105.18,148.24L105.07,148.20L104.63,148.10"/><path d="M105.16,149.33L105.65,149.47"/><path d="M105.72,149.26L106.07,149.20"/><path d="M105.34,149.23L105.95,144.44L106.11,144.47L106.20,144.48L106.33,144.47L106.59,144.27L106.47,144.28L106.32,144.28L106.15,144.26L105.99,144.24L105.86,144.21"/><path d="M105.33,148.33L105.88,144.02"/><path d="M105.07,148.20L105.68,143.42L105.78,143.45L105.87,143.48L105.93,143.52"/><path d="M105.83,144.41L105.95,144.44L105.85,144.24"/><path d="M105.59,143.19L105.68,143.42L105.24,143.32L105.16,143.08"/><path d="M106.95,144.21L106.69,144.41L107.65,144.33L108.78,144.31L108.89,144.31L109.04,144.33L109.18,144.35L109.66,144.50L109.05,149.28L109.14,149.32L109.20,149.35L109.22,149.38L109.21,149.41L109.11,149.47"/><path d="M106.59,144.27L106.68,144.25"/><path d="M108.66,149.17L109.05,149.28"/><path d="M108.16,149.09L108.78,144.31L108.94,144.11"/><path d="M109.22,149.38L109.73,145.43L109.86,145.42L109.34,149.47"/><path d="M109.88,145.41L109.86,145.42L109.88,145.42"/><path d="M109.73,145.43L109.76,145.24"/><path d="M109.52,144.25L109.66,144.50L109.75,144.53L109.81,144.57"/></g><g style="stroke:#000000;stroke-width:0.529"><path d="M109.90,145.23L109.76,145.24L109.84,144.60L109.58,144.28L109.52,144.25L109.10,144.12L108.99,144.11L108.92,144.11L107.66,144.13L106.95,144.21L106.68,144.25L105.88,144.02L105.94,143.55L105.93,143.52L105.69,143.23L105.67,143.21L105.59,143.19L105.11,143.07L105.00,143.06L104.94,143.07L103.87,143.17L103.32,143.29L103.06,143.38L102.97,143.40L102.83,143.41L102.68,143.40L102.51,143.39L102.35,143.36L101.70,143.23L101.74,142.93L101.60,142.62L101.35,142.32L101.31,142.29L101.22,142.27L100.70,142.18L100.59,142.17L100.54,142.18L99.71,142.36L99.34,142.52L99.17,142.65L99.13,142.66L99.03,142.68L98.89,142.68L98.72,142.68L98.56,142.65L97.77,142.53L97.61,142.50L97.54,142.48L97.52,142.37L97.43,142.24L97.25,142.03L94.90,141.94L94.89,142.02L94.87,142.04L94.84,142.05L94.70,142.06L93.73,141.96L93.65,141.94L93.54,141.90L93.52,141.90L90.98,141.81L90.96,141.86L90.85,141.91L90.65,141.94L90.37,141.95L89.99,141.93L88.77,141.66L88.22,141.87L87.84,141.86L87.52,141.83L87.20,141.78L86.92,141.71L86.76,141.66L84.20,141.57L84.16,141.62L84.16,141.62L83.39,141.66L83.24,141.65L83.14,141.63L82.83,141.52L80.49,141.44L80.04,141.63L80.00,141.94L79.62,141.83L78.72,141.62L77.27,141.35L77.17,141.34L77.12,141.35L76.79,141.42L76.49,141.64L76.46,141.67L76.39,142.20L74.99,142.01L74.89,142.01L74.82,142.02L74.64,142.10L74.31,142.34L74.23,142.92L73.60,142.86L73.51,142.86L73.47,142.87L73.15,143.11L73.06,143.21L72.96,143.97L72.75,144.12L72.74,144.15L72.12,148.93L72.14,149.05L72.16,149.08L72.22,149.11L72.31,149.15L72.42,149.18L72.80,149.25L72.79,149.37"/></g></g><g id="Actor_.8"><g style="stroke:#000000;stroke-width:0.176"><path d="M66.92,155.46L67.04,155.17L67.58,154.96L68.47,154.85L69.62,154.85L70.91,154.96L72.20,155.17L73.34,155.46L73.99,155.70L74.22,155.79L74.74,156.13L74.83,156.44"/><path d="M66.97,155.52L67.28,155.84L67.97,156.18L68.98,156.48L70.20,156.73L71.49,156.89L72.71,156.95L73.73,156.89L73.99,156.83L74.44,156.73L74.77,156.48L74.67,156.18L74.17,155.84L73.30,155.52L72.17,155.24L70.90,155.03L69.63,154.92L68.50,154.92L67.62,155.03L67.09,155.24L66.97,155.52"/><path d="M68.97,155.80L69.23,155.97L69.66,156.13L70.22,156.27L70.86,156.38L71.50,156.43L72.07,156.43L72.51,156.38L72.77,156.27L72.83,156.13L72.83,156.13L72.77,156.25L72.51,156.36L72.07,156.41L71.50,156.41L70.86,156.36L70.23,156.25L69.66,156.11L69.23,155.95L68.97,155.78L68.93,155.64L68.92,155.65L68.97,155.80"/><path d="M68.93,155.64L69.09,155.52L69.44,155.44L69.75,155.43L69.72,155.44L69.61,155.48L69.49,155.51L69.30,155.54L69.17,155.57L69.06,155.60L68.99,155.64L68.97,155.67L69.00,155.70L69.07,155.72L69.18,155.74L69.50,155.73L69.64,155.76L69.75,155.80L69.75,155.81L69.79,155.88L69.74,156.02L69.77,156.08L69.85,156.13L69.96,156.17L70.10,156.19L70.24,156.19L70.38,156.17L70.64,156.09L70.82,156.07L71.01,156.10L71.03,156.10L71.20,156.15L71.46,156.30L71.60,156.35L71.74,156.38L71.87,156.39L71.98,156.38L72.05,156.34L72.08,156.29L72.03,156.14L72.07,156.08L72.16,156.05L72.17,156.05L72.30,156.06L72.60,156.14L72.71,156.15L72.77,156.14L72.79,156.12L72.76,156.08L72.69,156.03L72.58,155.97L72.46,155.91L72.28,155.84L72.14,155.77L72.03,155.71L72.33,155.80L72.68,155.97L72.83,156.13"/><path d="M69.76,155.96L69.78,155.96L69.79,155.95L69.80,155.94L69.81,155.93L69.80,155.97L69.80,155.97"/><path d="M69.30,155.54L69.31,155.54L69.17,155.57L69.07,155.60L69.00,155.64"/><path d="M69.84,155.83L69.84,155.83L69.80,155.76L69.79,155.75L69.68,155.70L69.52,155.67L69.32,155.67L69.34,155.53L69.49,155.50L69.63,155.47L69.74,155.44L69.76,155.43L69.75,155.43"/><path d="M69.34,155.53L69.31,155.54"/><path d="M69.02,155.64L69.02,155.64L69.02,155.63L69.04,155.65L69.11,155.67L69.21,155.67L69.32,155.67L69.32,155.70L69.32,155.73L69.32,155.73"/><path d="M69.80,155.97L69.79,155.99L69.80,155.97L69.82,156.03L69.89,156.08L69.99,156.11L70.11,156.13L70.23,156.13L70.35,156.11L70.45,156.07L70.45,156.09L70.46,156.11L70.47,156.12L70.48,156.13L70.49,156.14"/><path d="M69.02,155.63L69.02,155.63L69.02,155.63"/><path d="M69.03,155.62L69.02,155.63"/><path d="M69.02,155.63L69.01,155.63"/><path d="M69.81,155.93L69.84,155.83L69.89,155.42L69.76,155.43"/><path d="M69.80,155.76L69.86,155.42"/><path d="M70.53,155.44L70.45,156.07L70.62,156.03L70.81,156.01L71.02,156.03L71.05,156.04L71.23,156.10L71.40,156.19L71.50,156.25L71.62,156.29L71.74,156.32L71.86,156.33L71.95,156.31L72.01,156.28L72.03,156.24L72.02,156.19L72.03,156.20L72.03,156.21L72.04,156.22L72.06,156.23"/><path d="M69.89,155.42L69.95,155.42L70.57,155.44L71.21,155.52L71.82,155.65L72.03,155.71"/><path d="M71.35,156.24L71.36,156.23L71.37,156.23L71.38,156.21L71.39,156.20L71.40,156.19L71.48,155.58"/><path d="M72.46,155.91L72.28,155.84L72.22,155.81"/><path d="M72.00,156.09L72.00,156.09L72.03,156.02L72.13,155.99L72.15,155.99L72.29,156.00L72.48,156.04L72.50,155.93L72.58,155.97L72.68,156.02L72.75,156.07L72.75,156.07"/><path d="M72.50,155.93L72.46,155.91"/><path d="M72.05,155.86L72.03,156.02L72.06,155.73L72.04,155.72L72.00,156.08"/><path d="M72.03,156.20L72.00,156.10L72.00,156.09L72.00,156.07"/><path d="M72.47,156.11L72.47,156.10L72.47,156.09L72.47,156.07L72.48,156.04L72.59,156.07L72.68,156.09L72.74,156.08L72.74,156.07L72.74,156.07"/><path d="M72.74,156.07L72.76,156.10L72.76,156.10"/><path d="M72.14,155.77L72.06,155.73"/><path d="M72.04,155.72L72.02,155.71"/><path d="M72.03,156.24L72.04,156.25L72.04,156.25"/><path d="M72.02,156.19L72.02,156.19"/></g><g style="stroke:#000000;stroke-width:0.529"><path d="M66.99,154.82L66.92,155.46L66.92,155.47L66.93,155.49L66.94,155.50L67.25,155.83L67.26,155.84L67.96,156.18L68.98,156.48L70.20,156.73L71.49,156.89L72.49,156.94L72.72,156.95L73.75,156.89L74.46,156.73L74.48,156.73L74.82,156.47L74.83,156.45L74.83,156.44L74.90,155.83"/></g></g><g id="Actor_.9"><g style="stroke:#000000;stroke-width:0.176"><path d="M70.54,117.38L70.36,118.76L70.09,118.78L69.59,118.89L69.10,119.14L68.33,119.93L67.82,121.05L67.65,121.66L67.53,122.31L67.43,122.93L67.37,123.53L67.34,124.07L67.37,124.55L67.63,125.35L68.23,125.88L68.27,125.90L68.67,126.04L69.41,126.12L66.40,149.47"/><path d="M73.29,139.85L69.28,137.62L67.66,149.47"/><path d="M69.28,137.62L73.78,137.62"/><path d="M69.41,126.12L70.25,126.01L71.31,125.52L72.23,124.70L72.89,123.64L73.22,122.44L73.20,121.25L72.81,120.18L72.11,119.36L71.17,118.87L70.36,118.76"/><path d="M70.91,138.12L72.45,138.98L72.57,138.12L70.91,138.12"/><path d="M72.63,157.59L72.56,157.47L72.64,157.38L72.87,157.31L73.21,157.28L73.64,157.29L74.11,157.34L74.56,157.42L74.95,157.53L75.23,157.65L75.38,157.77L75.37,157.88"/><path d="M72.45,138.98L73.41,138.98"/><path d="M72.57,138.12L73.71,138.12"/><path d="M76.34,117.38L84.13,117.38L86.31,100.46"/><path d="M79.03,117.38L78.81,116.78L78.80,116.11L78.99,115.44L79.36,114.84L79.87,114.37L80.47,114.10L81.10,114.04L81.68,114.21L82.14,114.58L82.46,115.12L82.57,115.77L82.56,116.11L82.49,116.45L82.20,117.09L81.96,117.38"/><path d="M80.91,106.34L80.51,105.88L80.30,105.28L80.28,104.60L80.47,103.93L80.84,103.33L81.35,102.87L81.96,102.60L82.58,102.54L83.16,102.71L83.63,103.08L83.94,103.62L84.06,104.26L84.04,104.60L83.97,104.95L83.68,105.59L83.23,106.13L82.67,106.50L82.05,106.67L81.44,106.61L80.91,106.34"/><path d="M81.26,135.60L81.59,133.02L83.60,132.94L85.17,132.69L86.20,132.30L85.77,135.62"/><path d="M84.13,117.38L85.23,117.38L87.42,100.40"/><path d="M85.23,117.38L88.96,117.38L91.65,96.54"/><path d="M86.20,132.30L87.67,131.37L87.08,135.97L90.67,136.67"/><path d="M87.08,135.97L86.93,136.07"/><path d="M89.27,100.12L87.04,117.38"/><path d="M87.67,131.37L92.49,132.30L92.07,135.53"/><path d="M90.62,137.00L88.89,136.66"/><path d="M88.96,117.38L95.54,117.38L98.10,97.52"/><path d="M90.30,117.38L92.98,96.54"/><path d="M99.15,137.24L99.69,133.02L97.38,132.94L94.92,132.69L92.49,132.30"/><path d="M95.54,117.38L98.02,117.38L100.41,98.81"/><path d="M98.02,117.38L108.92,117.38L111.11,100.40"/><path d="M110.56,138.98L110.66,138.98L110.82,137.62L102.42,137.62"/><path d="M101.90,117.38L104.17,99.73"/><path d="M110.76,138.12L106.64,138.12"/><path d="M108.92,117.38L110.28,117.38L112.46,100.46"/><path d="M110.66,138.98L109.87,145.50"/><path d="M118.79,111.83L118.03,117.69L117.65,117.62L116.17,117.44L115.33,117.40L115.59,117.09L115.87,116.45L115.94,116.11L115.96,115.77L115.84,115.12L115.53,114.58L115.06,114.21L114.49,114.04L113.86,114.10L113.26,114.37L112.75,114.84L112.37,115.44L112.19,116.11L112.20,116.78L112.42,117.38L114.78,117.38L110.64,149.50"/><path d="M110.58,139.59L110.48,139.59"/><path d="M110.28,117.38L112.42,117.38"/><path d="M115.91,154.43L115.91,154.32L115.77,154.20L115.48,154.08L115.10,153.98L114.64,153.90L114.18,153.85L113.75,153.84L113.40,153.87L113.18,153.93L113.10,154.03L113.17,154.14"/><path d="M114.03,106.03L113.90,105.88L113.68,105.28L113.67,104.60L113.86,103.93L114.23,103.33L114.74,102.87L115.34,102.60L115.97,102.54L116.55,102.71L117.01,103.08L117.33,103.62L117.44,104.26L117.42,104.60L117.35,104.95L117.07,105.59L116.62,106.13L116.06,106.50L115.44,106.67L114.83,106.61L114.30,106.34L114.03,106.03"/><path d="M114.78,117.38L115.33,117.40"/><path d="M128.97,122.94L124.80,155.33L116.99,151.00L121.17,118.61L123.01,119.63"/><path d="M118.03,117.69L119.07,117.89L120.28,118.23L121.17,118.61"/><path d="M118.96,110.50L120.25,100.46"/><path d="M119.38,157.59L119.30,157.47L119.38,157.38L119.61,157.31L119.95,157.28L120.38,157.29L120.85,157.34L121.30,157.42L121.69,157.53L121.97,157.65L122.12,157.77L122.12,157.88"/></g><g style="stroke:#000000;stroke-width:0.529"><path d="M124.42,108.68L125.13,103.17L120.25,100.46L112.46,100.46L111.80,100.45L111.11,100.40L104.17,99.73L103.05,99.58L101.99,99.36L101.08,99.10L100.41,98.81L98.10,97.52L97.38,97.22L96.42,96.94L95.28,96.73L94.10,96.59L92.98,96.54L91.65,96.54L90.70,96.59L90.02,96.73L89.68,96.94L89.27,100.12L87.42,100.40L86.91,100.45L86.31,100.46L78.52,100.46L76.34,117.38L70.54,117.38L69.36,117.44L68.51,117.62L68.07,117.89L63.98,149.67"/><path d="M72.34,157.22L72.63,157.59L72.85,157.71L73.19,157.83L73.62,157.92L74.08,157.99L74.54,158.02L74.93,158.01L75.22,157.96L75.37,157.88L75.68,157.65"/><path d="M109.87,145.50L109.39,149.47"/><path d="M116.21,154.21L115.91,154.43L115.76,154.51L115.47,154.56L115.10,154.57L114.62,154.54L114.15,154.48L113.73,154.38L113.39,154.26L113.17,154.14L112.87,153.78"/><path d="M122.42,157.65L122.12,157.88L121.96,157.96L121.67,158.01L121.28,158.02L120.83,157.99L120.36,157.92L119.94,157.83L119.59,157.71L119.38,157.59L119.08,157.22"/><path d="M124.25,110.01L123.01,119.63L128.97,122.94L129.45,123.32L129.47,123.67L125.35,155.65"/></g></g><g id="Actor_.10"><g style="stroke:#000000;stroke-width:0.176"><path d="M80.20,153.71L80.28,153.45"/><path d="M85.78,152.91L87.27,153.04L89.40,153.39L91.30,153.86L92.75,154.40L93.52,154.91L93.60,154.96L93.76,155.48L93.22,155.89L92.02,156.16L90.30,156.25L88.25,156.16L86.33,155.92L86.09,155.89L84.05,155.48L82.35,154.96L81.19,154.40L80.67,153.86L80.87,153.39L81.75,153.04L82.78,152.91"/><path d="M80.45,154.01L80.68,153.20"/><path d="M107.92,157.77L108.16,156.92L107.36,155.96L106.62,155.56"/><path d="M107.70,155.75L107.74,155.80"/></g><g style="stroke:#000000;stroke-width:0.529"><path d="M108.37,157.06L108.23,157.54L107.92,157.77L106.71,158.42L92.54,158.42L88.99,157.77L85.69,156.92L83.05,155.96L81.25,154.97L80.45,154.01L80.20,153.71L80.23,153.47"/></g></g><g id="Actor_.11"><g style="stroke:#000000;stroke-width:0.176"><path d="M100.32,160.85L99.32,168.57L99.77,168.81L77.31,168.81"/><path d="M84.92,170.81L83.10,169.80L81.01,169.80L84.77,171.89L86.86,171.89L84.92,170.81L84.77,171.89"/><path d="M85.11,169.85L85.01,169.80L87.10,169.80L88.92,170.81L88.78,171.89L85.11,169.85"/><path d="M85.88,172.51L87.97,172.51L90.63,173.98L88.54,173.98L85.88,172.51"/><path d="M88.54,173.98L88.68,172.90"/><path d="M88.78,171.89L90.87,171.89L88.92,170.81"/><path d="M89.12,169.85L89.02,169.80L91.10,169.80L92.93,170.81L92.79,171.89L89.12,169.85"/><path d="M92.31,176.07L89.65,174.60L91.74,174.60L92.46,175.00L92.31,176.07L94.40,176.07L92.46,175.00"/><path d="M120.23,159.62L119.05,168.81L132.79,176.45L91.06,176.45"/><path d="M92.59,173.63L91.56,173.43L92.55,173.98L94.63,173.98L94.31,173.80L93.40,173.74L92.59,173.63L92.55,173.98"/><path d="M92.49,173.16L92.06,173.04L91.80,172.92L91.69,172.80L91.74,172.70L91.93,172.62L92.25,172.58L92.66,172.58L93.12,172.62L93.58,172.70L93.99,172.80L94.30,172.92L94.48,173.04L94.52,173.15L94.40,173.24L94.14,173.30L93.77,173.32L93.33,173.30L92.86,173.24L92.49,173.16"/><path d="M92.79,171.89L94.87,171.89L92.93,170.81"/><path d="M96.94,170.81L95.11,169.80L93.02,169.80L96.79,171.89L98.88,171.89L96.94,170.81L96.79,171.89"/><path d="M94.55,175.09L93.66,174.60L95.74,174.60L96.47,175.00L96.32,176.07L94.55,175.09"/><path d="M96.40,173.27L96.47,172.77L95.98,172.51L94.81,172.51L95.58,172.75L96.13,173.01L96.40,173.27L96.34,173.50L96.00,173.67L96.55,173.98L98.64,173.98L96.70,172.90L96.55,173.98"/><path d="M96.32,176.07L98.40,176.07L96.47,175.00"/><path d="M96.47,172.77L96.70,172.90"/><path d="M97.13,169.85L97.03,169.80L99.12,169.80L100.94,170.81L100.80,171.89L97.13,169.85"/><path d="M98.39,175.00L97.66,174.60L99.75,174.60L100.47,175.00L100.32,176.07L98.39,175.00"/><path d="M97.90,172.51L100.56,173.98L100.71,172.91L99.99,172.51L97.90,172.51"/><path d="M99.32,168.57L100.16,168.57L100.60,168.81L101.63,160.85"/><path d="M100.58,181.73L142.32,181.73L142.19,181.61L142.08,181.42L142.01,181.18L141.98,180.87L141.99,180.57L100.26,180.57"/><path d="M100.32,176.07L102.41,176.07L100.47,175.00"/><path d="M100.56,173.98L102.65,173.98L100.71,172.91"/><path d="M100.60,168.81L106.61,168.81L106.17,168.57L107.00,168.57L108.00,160.85"/><path d="M100.16,168.57L101.15,160.85"/><path d="M132.79,176.45L132.93,176.48L100.77,176.48"/><path d="M101.74,174.64L101.67,174.60L103.76,174.60L104.48,175.00L104.33,176.07L101.74,174.64"/><path d="M100.80,171.89L102.89,171.89L100.94,170.81"/><path d="M100.89,169.85L100.79,169.80L102.87,169.80L104.70,170.81L104.56,171.89L100.89,169.85"/><path d="M102.77,172.98L101.91,172.51L103.99,172.51L106.65,173.98L104.57,173.98L102.77,172.98"/><path d="M103.80,182.45L103.17,182.10L105.26,182.10L105.97,182.50L105.83,183.58L103.80,182.45"/><path d="M104.33,176.07L106.42,176.07L104.48,175.00"/><path d="M104.57,173.98L104.71,172.90"/><path d="M104.56,171.89L106.64,171.89L104.70,170.81"/><path d="M104.82,169.81L104.79,169.80L106.88,169.80L106.98,169.85L108.71,170.81L108.56,171.89L104.82,169.81"/><path d="M105.83,183.58L107.92,183.58L105.97,182.50"/><path d="M108.49,175.00L107.76,174.60L105.68,174.60L108.34,176.07L110.42,176.07L108.49,175.00L108.34,176.07"/><path d="M108.32,173.98L105.66,172.51L107.75,172.51L108.47,172.90L108.32,173.98L110.41,173.98L108.47,172.90"/><path d="M106.17,168.57L107.16,160.85"/><path d="M109.60,185.67L106.94,184.20L109.02,184.20L109.63,184.53L109.74,184.59L109.60,185.67L111.68,185.67L109.74,184.59"/><path d="M107.36,182.21L107.18,182.10L109.26,182.10L109.98,182.50L109.84,183.58L107.36,182.21"/><path d="M107.00,168.57L107.44,168.81L119.05,168.81"/><path d="M107.44,168.81L108.47,160.85"/><path d="M108.56,171.89L110.65,171.89L108.71,170.81"/><path d="M108.90,169.85L108.80,169.80L110.89,169.80L112.02,170.43L112.71,170.81L112.57,171.89L108.90,169.85"/><path d="M109.84,183.58L111.92,183.58L109.98,182.50"/><path d="M109.96,174.89L109.43,174.60L111.52,174.60L112.02,174.87L112.24,175.00L112.09,176.07L109.96,174.89"/><path d="M109.67,172.51L112.33,173.98L112.47,172.90L111.76,172.51L109.67,172.51"/><path d="M110.77,186.32L110.71,186.29L112.79,186.29L113.04,186.43L113.51,186.69L113.37,187.76L110.77,186.32"/><path d="M110.94,184.20L113.03,184.20L113.75,184.59L113.60,185.67L110.94,184.20"/><path d="M112.02,182.57L111.18,182.10L113.27,182.10L113.99,182.50L113.84,183.58L112.02,182.57"/><path d="M112.09,176.07L114.18,176.07L112.24,175.00"/><path d="M112.33,173.98L114.42,173.98L112.47,172.90"/><path d="M112.57,171.89L114.66,171.89L112.71,170.81"/><path d="M116.58,171.89L112.81,169.80L114.89,169.80L116.72,170.81L116.58,171.89L118.66,171.89L116.72,170.81"/><path d="M113.51,186.69L115.45,187.76L113.37,187.76"/><path d="M113.60,185.67L115.69,185.67L113.75,184.59"/><path d="M113.84,183.58L115.93,183.58L113.99,182.50"/><path d="M119.17,176.48L118.86,178.90L113.85,178.90L114.16,176.48"/><path d="M113.85,178.90L114.52,179.27L119.52,179.27L118.86,178.90"/><path d="M116.25,175.00L115.52,174.60L113.44,174.60L116.10,176.07L116.25,175.00L118.18,176.07L116.10,176.07"/><path d="M114.07,172.73L113.68,172.51L114.84,172.51L114.94,172.75L115.35,173.01L116.02,173.27L116.42,173.37L116.34,173.98L114.07,172.73"/><path d="M116.54,186.29L114.71,186.29L116.42,187.23L116.65,187.05L117.14,186.92L117.83,186.86L116.80,186.29L116.54,186.29L116.42,187.23"/><path d="M115.08,184.26L114.95,184.20L117.04,184.20L117.53,184.47L117.75,184.59L117.61,185.67L115.08,184.26"/><path d="M115.37,182.21L115.19,182.10L117.28,182.10L117.99,182.50L117.85,183.58L115.37,182.21"/><path d="M116.34,173.98L118.42,173.98L117.86,173.67L116.90,173.50L116.42,173.37"/><path d="M117.10,173.04L116.85,172.92L116.73,172.80L116.78,172.70L116.97,172.62L117.29,172.58L117.70,172.58L118.16,172.62L118.62,172.70L119.03,172.80L119.34,172.92L119.52,173.04L119.56,173.15L119.44,173.24L119.18,173.30L118.81,173.32L118.37,173.30L117.90,173.24L117.46,173.15L117.10,173.04"/><path d="M116.91,169.85L116.81,169.80L118.90,169.80L119.21,169.97L120.72,170.81L120.58,171.89L116.91,169.85"/><path d="M117.61,185.67L119.70,185.67L117.75,184.59"/><path d="M117.85,183.58L119.94,183.58L117.99,182.50"/><path d="M120.10,176.07L117.44,174.60L119.53,174.60L120.26,175.00L120.10,176.07L122.19,176.07L120.26,175.00"/><path d="M118.29,187.57L118.40,187.68L118.65,187.81L119.02,187.92L119.46,188.01L119.93,188.06L120.37,188.08L120.74,188.06L121.00,188.01L121.11,187.92L121.08,187.81L120.90,187.68L120.58,187.57L120.17,187.46L119.72,187.39L119.25,187.35L118.84,187.35L118.52,187.39L118.33,187.46L118.29,187.57"/><path d="M119.21,186.56L118.72,186.29L120.08,186.29L119.99,186.99L119.21,186.56"/><path d="M119.08,184.26L118.96,184.20L121.04,184.20L121.27,184.32L121.76,184.59L121.62,185.67L119.08,184.26"/><path d="M119.20,182.10L121.86,183.58L123.94,183.58L122.00,182.50L121.86,183.58"/><path d="M119.99,186.99L120.83,187.14L121.61,187.32L122.25,187.54L122.71,187.76L122.76,187.37L123.47,187.76L122.71,187.76"/><path d="M120.08,186.29L120.81,186.29L122.76,187.37"/><path d="M119.21,182.11L121.28,182.10L122.00,182.50"/><path d="M119.52,179.27L119.88,176.48"/><path d="M120.24,173.92L120.02,173.80L120.37,173.77L120.34,173.98L120.24,173.92"/><path d="M120.34,173.98L122.43,173.98L121.44,173.43L121.20,173.61L120.71,173.74L120.37,173.77"/><path d="M120.58,171.89L122.67,171.89L120.72,170.81"/><path d="M121.62,185.67L123.70,185.67L121.76,184.59"/><path d="M122.18,175.00L121.45,174.60L123.54,174.60L124.26,175.00L124.11,176.07L122.18,175.00"/><path d="M121.69,172.51L124.35,173.98L124.49,172.90L123.78,172.51L121.69,172.51"/><path d="M125.53,186.69L124.81,186.29L122.73,186.29L125.39,187.76L127.47,187.76L125.53,186.69L125.39,187.76"/><path d="M123.32,184.39L122.96,184.20L125.05,184.20L125.77,184.59L125.62,185.67L123.32,184.39"/><path d="M123.32,182.31L122.95,182.10L125.04,182.10L125.75,182.50L125.61,183.58L123.32,182.31"/><path d="M123.01,119.63L124.25,110.01"/><path d="M124.11,176.07L126.20,176.07L124.26,175.00"/><path d="M124.35,173.98L126.40,173.98L126.40,173.96L124.49,172.90"/><path d="M125.19,102.71L124.42,108.68"/><path d="M125.62,185.67L127.71,185.67L125.77,184.59"/><path d="M125.61,183.58L127.70,183.58L125.75,182.50"/><path d="M126.40,175.12L125.46,174.60L127.54,174.60L128.12,174.92L128.27,175.00L128.12,176.07L126.40,175.12"/><path d="M126.80,186.32L126.73,186.29L128.82,186.29L129.53,186.68L129.39,187.76L126.80,186.32"/><path d="M126.84,184.26L126.72,184.20L128.81,184.20L129.21,184.42L129.52,184.59L129.38,185.67L126.84,184.26"/><path d="M129.62,183.58L126.96,182.10L129.05,182.10L129.76,182.50L129.62,183.58L131.71,183.58L129.76,182.50"/><path d="M126.40,173.98L126.44,173.98"/><path d="M128.12,176.07L130.20,176.07L128.27,175.00"/><path d="M129.39,187.76L131.48,187.76L129.53,186.68"/><path d="M129.38,185.67L131.47,185.67L129.52,184.59"/><path d="M130.52,186.30L130.49,186.29L132.58,186.29L133.29,186.68L133.15,187.76L130.52,186.30"/><path d="M130.85,184.26L130.73,184.20L132.81,184.20L133.53,184.59L133.39,185.67L130.85,184.26"/><path d="M131.15,182.21L130.97,182.10L133.05,182.10L133.77,182.50L133.63,183.58L131.15,182.21"/><path d="M133.15,187.76L135.23,187.76L133.29,186.68"/><path d="M133.39,185.67L135.47,185.67L133.53,184.59"/><path d="M132.93,176.48L133.07,176.42L133.20,176.27L133.29,176.05L133.35,175.78L134.09,170.26L142.68,175.03L141.99,180.57"/><path d="M133.45,175.03L134.72,175.03L134.85,174.01"/><path d="M133.54,174.38L134.72,175.03"/><path d="M134.56,186.32L134.50,186.29L136.58,186.29L137.30,186.69L137.15,187.76L134.56,186.32"/><path d="M133.77,182.50L135.71,183.58L133.63,183.58"/><path d="M138.86,174.01L138.72,175.03L136.70,175.03L133.68,173.35"/><path d="M133.82,172.31L138.72,175.03"/><path d="M142.68,175.03L140.71,175.03L133.95,171.28"/><path d="M135.65,184.71L134.73,184.20L136.82,184.20L137.54,184.59L137.39,185.67L135.65,184.71"/><path d="M137.63,183.58L134.97,182.10L137.06,182.10L137.71,182.46L137.77,182.50L137.63,183.58L139.72,183.58L137.77,182.50"/><path d="M137.15,187.76L139.24,187.76L137.30,186.69"/><path d="M137.39,185.67L139.48,185.67L137.54,184.59"/><path d="M138.50,186.29L141.16,187.76L141.30,186.68L140.59,186.29L138.50,186.29"/><path d="M138.86,184.26L138.74,184.20L140.83,184.20L141.54,184.59L141.40,185.67L138.86,184.26"/><path d="M139.76,182.54L138.98,182.10L141.07,182.10L141.78,182.50L141.64,183.58L139.76,182.54"/><path d="M141.16,187.76L141.92,187.76L141.57,187.54L141.44,187.32L141.54,187.14L141.86,186.99L141.50,186.79L141.44,187.32"/><path d="M141.50,186.79L141.30,186.68"/><path d="M141.40,185.67L143.49,185.67L141.54,184.59"/><path d="M141.64,183.58L143.72,183.58L141.78,182.50"/><path d="M143.61,186.29L142.51,186.29L143.54,186.86L144.45,186.92L145.41,187.05L146.30,187.23L144.59,186.29L143.61,186.29L143.54,186.86"/><path d="M142.75,184.20L145.41,185.67L145.55,184.59L144.90,184.23L144.83,184.20L142.75,184.20"/><path d="M142.32,181.73L160.72,191.95L160.81,192.02L160.82,192.09"/><path d="M143.88,187.86L143.69,187.81L143.44,187.68L143.33,187.57L143.37,187.46L143.56,187.39L143.88,187.35L144.30,187.35L144.76,187.39L145.22,187.46L145.62,187.57L145.94,187.68L146.12,187.81L146.15,187.90L146.15,187.92L146.04,188.01L145.78,188.06L145.41,188.08L144.97,188.06L144.50,188.01L143.88,187.86"/><path d="M143.80,117.48L147.68,119.64L148.10,116.42L147.76,116.86L147.42,117.11"/><path d="M145.41,185.67L147.49,185.67L145.55,184.59"/><path d="M149.17,187.76L146.51,186.29L148.60,186.29L149.32,186.69L149.17,187.76L151.26,187.76L149.32,186.69"/><path d="M147.13,119.33L147.40,117.27"/><path d="M148.11,116.22L147.84,116.59"/><path d="M148.10,116.42L148.14,116.24L148.21,116.08"/><path d="M148.02,116.34L148.00,116.35"/><path d="M160.72,191.95L169.08,127.08"/></g><g style="stroke:#000000;stroke-width:0.529"><path d="M78.37,160.64L77.31,168.81L91.06,176.45L91.20,176.48L100.77,176.48L100.26,180.57L100.24,180.87L100.27,181.16L100.34,181.42L100.45,181.61L100.58,181.73L118.98,191.95L119.16,192.02L119.68,192.15L120.26,192.19L160.32,192.19L160.56,192.18L160.73,192.15L160.82,192.09L169.18,127.22L169.17,127.15L169.08,127.08L148.98,115.92L148.61,115.83L148.36,115.93L148.00,116.35L147.62,116.62L147.51,116.80L147.44,116.99L147.40,117.27L147.09,117.10"/><path d="M124.30,102.71L125.19,102.71L131.62,106.28"/><path d="M133.05,107.07L138.64,110.18L138.95,110.45L139.17,110.82L139.26,111.11L139.29,111.33L139.28,111.52L138.86,114.74L143.80,117.48"/></g></g><g id="Actor_.12"><g style="stroke:#000000;stroke-width:0.176"><path d="M68.82,82.73L69.49,83.07L70.50,83.19L71.53,82.94L72.49,82.34L73.26,81.47L73.75,80.40L73.93,79.27L73.76,78.18L73.64,77.95L73.26,77.27L72.50,76.62"/><path d="M69.50,80.35L69.77,79.75L69.08,79.36L68.80,80.20L69.46,80.32L69.95,81.00L70.16,80.72L70.15,80.70L69.46,80.32"/><path d="M69.08,79.36L69.00,78.61L69.70,78.41L70.39,78.79L70.73,78.42L70.70,78.41L71.51,78.61L71.08,79.36L71.30,80.20L70.46,80.32L70.16,80.72"/><path d="M69.77,79.75L69.62,78.95L70.39,78.79"/><path d="M69.62,78.95L69.00,78.61"/><path d="M69.70,78.41L70.36,77.81L70.70,78.41"/><path d="M71.40,78.79L71.39,78.79L70.73,78.42"/><path d="M74.28,80.34L74.27,80.37L73.85,81.46L73.15,82.40L73.13,82.41"/></g><g style="stroke:#000000;stroke-width:0.529"><path d="M73.13,82.41L72.23,83.07L71.20,83.41L70.18,83.38L69.26,82.98L68.82,82.73L68.62,82.58L67.98,81.79L67.65,80.78L67.65,79.65L67.99,78.54L68.63,77.55L69.50,76.81L70.51,76.38L71.55,76.31L72.50,76.62L72.72,76.76L73.54,77.33L74.11,78.18L74.36,79.23L74.28,80.34"/><path d="M74.28,80.34L79.69,83.34L79.97,83.53L80.16,83.82L80.24,84.17L80.21,84.55L80.07,84.91L79.84,85.22L79.53,85.45L79.19,85.56L78.85,85.55L78.54,85.42L73.13,82.41"/></g></g><g id="Actor_.13"><g style="stroke:#000000;stroke-width:0.176"><path d="M126.96,91.01L126.57,90.66L125.01,87.88L124.54,84.83"/><path d="M134.94,85.32L133.89,85.18L131.77,85.42L129.83,86.16L128.21,87.34L127.02,88.88L126.93,89.12L126.08,87.61L125.78,85.64L127.32,83.33L129.65,81.61L132.51,80.67L135.54,80.62"/><path d="M125.78,85.64L125.66,84.89L126.26,82.22L127.80,79.90L130.14,78.18L133.00,77.24L135.64,77.20"/><path d="M126.93,89.12L127.47,90.10L127.84,90.43L127.86,90.38L128.77,88.88L130.15,87.69L131.87,86.94L133.79,86.68L134.75,86.80"/><path d="M127.42,90.01L127.61,89.51L128.69,88.11L130.17,87.03L131.94,86.36L133.86,86.14L134.81,86.27"/><path d="M126.76,88.83L126.69,88.40L127.19,86.17L128.49,84.23L130.44,82.78L132.84,82.00L135.37,81.96"/><path d="M127.84,90.43L128.47,90.99L128.48,90.94L129.29,89.60L130.52,88.55L132.06,87.87L133.77,87.64L134.62,87.75"/><path d="M128.47,90.99L128.48,91.01"/><path d="M134.21,90.98L134.18,90.97L132.28,91.00L131.72,91.18"/><path d="M137.18,102.23L137.12,102.26L135.74,102.69L134.57,102.84L133.68,102.85L133.64,103.14"/><path d="M136.26,102.23L135.59,102.49L133.70,102.70L133.77,102.23"/><path d="M133.70,102.70L133.69,102.80L135.56,102.59L135.33,102.61"/><path d="M133.69,102.80L133.68,102.85"/><path d="M135.56,102.59L136.48,102.23"/><path d="M135.54,76.22L135.23,76.22L135.24,76.11"/><path d="M135.23,76.21L135.23,76.21"/><path d="M135.23,76.22L135.23,76.23"/><path d="M138.33,105.75L139.04,105.91L139.46,106.02"/><path d="M146.85,119.00L146.40,117.95L144.80,116.82L144.42,116.62L144.54,115.70L139.39,115.03"/><path d="M138.99,113.79L142.28,114.77L144.54,115.70"/><path d="M139.16,112.41L142.46,113.39L143.68,113.91L143.91,112.17"/><path d="M144.42,116.62L141.59,116.25"/><path d="M143.93,93.60L142.62,95.35L141.42,96.34"/><path d="M143.31,94.45L142.56,95.46L141.47,96.37"/><path d="M145.34,87.54L144.13,90.37L141.92,92.66L141.12,93.07"/><path d="M141.41,90.04L141.74,90.80L141.79,91.26L141.24,91.83"/><path d="M141.79,91.26L143.16,89.84L143.84,88.25L143.85,88.01L142.93,85.36L141.88,84.07"/><path d="M142.00,91.04L142.26,90.43L142.34,88.14L141.76,86.48"/><path d="M143.84,88.25L144.24,87.31L144.33,84.58L143.41,81.94L141.59,79.67L141.51,79.62"/><path d="M142.36,96.87L142.89,95.99"/><path d="M143.68,113.91L145.10,114.52L146.70,115.65L146.96,116.27"/><path d="M146.14,118.78L145.86,118.53L145.44,118.35L145.38,118.36"/><path d="M145.44,118.35L145.26,118.27L145.18,118.25"/><path d="M146.20,109.02L146.61,109.47L146.77,109.75L146.84,109.97L146.85,110.11L146.84,110.26L146.79,110.41L146.78,110.44"/><path d="M146.26,109.08L146.41,109.25"/></g><g style="stroke:#000000;stroke-width:0.529"><path d="M135.53,76.14L135.24,76.11L135.23,76.23L132.76,76.27L129.55,77.32L126.94,79.24L125.21,81.84L124.54,84.83L124.27,86.78L124.00,88.90L124.28,91.01"/><path d="M147.65,110.92L147.77,109.96L147.64,109.69L147.17,109.40L146.41,109.12L146.26,109.08L146.03,108.81L144.96,108.08L144.74,107.95L143.23,107.23L141.31,106.55L139.46,106.02L139.57,104.90"/><path d="M139.83,102.23L139.70,103.59"/><path d="M142.37,96.87L142.83,96.11L142.89,95.99L143.31,94.45L143.86,93.71L143.93,93.60L144.74,91.60L145.34,87.54L145.44,84.48L144.41,81.52L142.37,78.99L141.31,78.30"/><path d="M147.25,114.04L146.96,116.27L147.14,116.70L146.85,119.00L146.75,119.12"/></g></g><g id="Actor_.14"><g style="stroke:#000000;stroke-width:0.176"><path d="M163.48,194.41L159.49,192.19L121.09,192.19L125.08,194.41"/><path d="M136.77,194.41L134.11,192.93L136.96,192.93"/><path d="M160.90,191.48L160.94,191.44L161.24,190.92L161.40,190.35L165.46,158.85L168.63,134.22L168.62,133.65L168.45,133.14L168.42,133.10"/><path d="M161.40,190.35L165.39,192.57"/><path d="M167.39,177.46L167.32,177.54L169.77,158.53L170.29,159.62L171.05,162.48L171.31,165.52L171.05,168.63L170.30,171.72L169.57,173.48L169.06,174.70L167.39,177.46"/><path d="M167.32,177.54L167.29,177.80"/><path d="M168.63,134.22L172.62,136.44"/><path d="M169.77,158.53L169.78,158.44"/></g><g style="stroke:#000000;stroke-width:0.529"><path d="M168.45,132.89L171.69,134.69L172.12,134.95L172.44,135.36L172.61,135.87L172.62,136.44L169.78,158.44L170.39,159.72L171.15,162.57L171.41,165.69L171.15,168.77L170.41,171.83L169.19,174.78L167.53,177.51L167.29,177.80L165.39,192.57L165.23,193.14L164.93,193.65L164.51,194.06L164.01,194.32L163.48,194.41L151.79,194.41L149.14,192.93L136.96,192.93L136.77,194.41L125.08,194.41L124.58,194.32L120.75,192.19"/></g></g><g id="Actor_.15"><g style="stroke:#000000;stroke-width:0.176"><path d="M37.63,88.12L38.39,88.77L38.89,89.68L39.05,90.74L39.06,90.77L38.88,91.90L38.39,92.97L37.62,93.85L36.66,94.44L35.63,94.69L34.62,94.57L33.95,94.24"/><path d="M34.63,91.85L35.28,92.20L35.29,92.22L35.08,92.50L34.59,91.82L33.93,91.70L34.21,90.87L34.90,91.25L34.63,91.85L34.59,91.82"/><path d="M34.21,90.87L34.13,90.11L34.83,89.91L35.49,89.31L35.83,89.91L36.64,90.11L36.53,90.29L36.52,90.29L35.86,89.92L35.52,90.29L34.75,90.45L34.13,90.11"/><path d="M34.90,91.25L34.75,90.45"/><path d="M34.83,89.91L35.52,90.29"/><path d="M35.29,92.22L35.59,91.82L36.43,91.70L36.21,90.86L36.53,90.29"/><path d="M35.83,89.91L35.86,89.92"/><path d="M39.41,91.84L39.41,91.87L38.98,92.96L38.28,93.90L38.26,93.91"/></g><g style="stroke:#000000;stroke-width:0.529"><path d="M38.26,93.91L37.36,94.57L36.34,94.91L35.31,94.88L34.39,94.48L33.95,94.24L33.75,94.08L33.11,93.29L32.78,92.28L32.78,91.15L33.12,90.04L33.76,89.06L34.63,88.31L35.64,87.88L36.68,87.82L37.63,88.12L37.85,88.26L38.67,88.83L39.24,89.68L39.49,90.74L39.41,91.84"/><path d="M38.26,93.91L43.67,96.92L43.98,97.05L44.32,97.06L44.66,96.95L44.97,96.72L45.20,96.41L45.34,96.05L45.37,95.67L45.29,95.32L45.10,95.04L44.83,94.85L39.41,91.84"/></g></g><g id="Actor_.16"><g style="stroke:#000000;stroke-width:0.176"><path d="M36.15,99.63L36.91,100.27L37.24,100.88L37.41,101.19L37.58,102.27L37.40,103.41L36.90,104.47L36.14,105.35L35.18,105.94L34.15,106.19L33.14,106.07L32.47,105.74"/><path d="M32.45,103.21L33.10,103.32L33.60,104.00L34.11,103.32L34.95,103.20L34.73,102.37L35.15,101.61L34.35,101.41L34.00,100.81L33.35,101.41L32.65,101.61L32.73,102.37L32.45,103.21"/><path d="M32.73,102.37L33.42,102.75L33.15,103.35L33.10,103.32"/><path d="M32.65,101.61L33.27,101.95L33.42,102.75"/><path d="M33.81,103.72L33.79,103.71L33.15,103.35"/><path d="M33.27,101.95L34.04,101.79L34.38,101.42L34.35,101.41"/><path d="M33.35,101.41L34.04,101.79"/><path d="M34.38,101.42L35.04,101.79L35.05,101.80"/><path d="M36.77,105.42L36.80,105.40L37.50,104.47L37.92,103.37L37.93,103.34"/></g><g style="stroke:#000000;stroke-width:0.529"><path d="M37.93,103.34L38.01,102.24L37.76,101.19L37.19,100.33L36.37,99.76L36.15,99.63L35.20,99.32L34.16,99.38L33.15,99.81L32.28,100.56L31.64,101.54L31.30,102.66L31.29,103.78L31.63,104.79L32.27,105.59L32.47,105.74L32.91,105.99L33.83,106.38L34.85,106.41L35.88,106.07L36.77,105.42"/><path d="M37.93,103.34L43.34,106.35L43.62,106.54L43.81,106.82L43.89,107.17L43.86,107.55L43.72,107.92L43.48,108.23L43.18,108.45L42.84,108.57L42.49,108.56L42.19,108.42L36.77,105.42"/></g></g><g><g><path style="stroke:#000000;stroke-width:0.250;stroke-dasharray:3.0 2.0 1.0 2.0" d="M46.68,84.91L82.16,104.61"/></g></g><g><g><path style="stroke:#000000;stroke-width:0.250;stroke-dasharray:3.0 2.0 1.0 2.0" d="M45.20,96.41L82.25,116.98"/></g></g><g><g><path style="stroke:#000000;stroke-width:0.250;stroke-dasharray:3.0 2.0 1.0 2.0" d="M69.89,122.44L43.72,107.92"/></g></g><g><g><path style="stroke:#000000;stroke-width:0.250;stroke-dasharray:3.0 2.0 1.0 2.0" d="M80.07,84.91L115.55,104.60"/></g></g><g><g><path style="stroke:#000000;stroke-width:0.250;stroke-dasharray:3.0 2.0 1.0 2.0" d="M115.64,116.98L78.59,96.41"/></g></g><g><g/><g><path style="fill:#ffffa0" d="M180.81,70.31L243.78,70.31L243.78,30.10L180.81,30.10z"/><path style="stroke:#000000;stroke-width:0.250;stroke-opacity:0.98" d="M180.81,70.31L243.78,70.31L243.78,30.10L180.81,30.10z"/><text xml:space="preserve" fill="#000000" stroke-width="0" x="181.86" y="36.19" font-size="5.19" opacity="1.00" font-family="MS Shell Dlg">ATTENZIONE! Prima di </text><text xml:space="preserve" fill="#000000" stroke-width="0" x="181.86" y="41.48" font-size="5.16" opacity="1.00" font-family="MS Shell Dlg">estrarre il frontalino, </text><text xml:space="preserve" fill="#000000" stroke-width="0" x="181.86" y="46.77" font-size="5.13" opacity="1.00" font-family="MS Shell Dlg">posizionare un </text><text xml:space="preserve" fill="#000000" stroke-width="0" x="181.86" y="52.06" font-size="5.17" opacity="1.00" font-family="MS Shell Dlg">contenitore sotto all'area </text><text xml:space="preserve" fill="#000000" stroke-width="0" x="181.86" y="57.35" font-size="5.17" opacity="1.00" font-family="MS Shell Dlg">di lavoro per recuperare il </text><text xml:space="preserve" fill="#000000" stroke-width="0" x="181.86" y="62.64" font-size="5.17" opacity="1.00" font-family="MS Shell Dlg">colorante residuo nel tubo </text><text xml:space="preserve" fill="#000000" stroke-width="0" x="181.86" y="67.93" font-size="5.12" opacity="1.00" font-family="MS Shell Dlg">di ricircolo</text></g></g><g><g><path style="stroke:#ff0000;stroke-width:0.250" d="M165.39,96.69L162.28,96.69L117.10,111.76"/></g><g><path style="fill:#000000" d="M118.10,111.76L118.09,111.66L118.08,111.56L118.06,111.47L118.02,111.38L117.98,111.29L117.93,111.20L117.87,111.13L117.81,111.05L117.73,110.99L117.65,110.93L117.57,110.88L117.48,110.84L117.39,110.80L117.29,110.78L117.20,110.76L117.10,110.76L117.00,110.76L116.90,110.78L116.81,110.80L116.72,110.84L116.63,110.88L116.54,110.93L116.46,110.99L116.39,111.05L116.33,111.13L116.27,111.20L116.22,111.29L116.17,111.38L116.14,111.47L116.12,111.56L116.10,111.66L116.10,111.76L116.10,111.86L116.12,111.96L116.14,112.05L116.17,112.14L116.22,112.23L116.27,112.32L116.33,112.39L116.39,112.47L116.46,112.53L116.54,112.59L116.63,112.64L116.72,112.68L116.81,112.72L116.90,112.74L117.00,112.76L117.10,112.76L117.20,112.76L117.29,112.74L117.39,112.72L117.48,112.68L117.57,112.64L117.65,112.59L117.73,112.53L117.81,112.47L117.87,112.39L117.93,112.32L117.98,112.23L118.02,112.14L118.06,112.05L118.08,111.96L118.09,111.86z"/></g><g><path style="fill:#ffffff" d="M165.39,101.73L258.41,101.73L258.41,91.64L165.39,91.64z"/><path style="stroke:#ff0000;stroke-width:0.250;stroke-opacity:0.98" d="M165.39,101.73L258.41,101.73L258.41,91.64L165.39,91.64z"/><text xml:space="preserve" fill="#000000" stroke-width="0" x="166.16" y="96.10" font-size="3.79" opacity="1.00" font-family="MS Shell Dlg">Svitare le 5 viti che fissano il frontalino al corpo pompa</text><text xml:space="preserve" fill="#000000" stroke-width="0" x="166.16" y="99.98" font-size="3.78" opacity="1.00" font-family="MS Shell Dlg">(cacciavite torx T20) </text></g></g><g/><g id="paperID" visibility="hidden" opacity="0.00" transform="scale(0.000100)"><path style="stroke:#000000;stroke-width:0.500;fill:#e6e6e6;fill-rule:evenodd" d="M-2000.00,-2000.00L2297.00,-2000.00L2297.00,2210.00L-2000.00,2210.00zM0.00,0.00L297.00,0.00L297.00,210.00L0.00,210.00z"/><path style="fill:#000000;fill-opacity:0.118" d="M3.00,210.00L297.00,210.00L297.00,3.00L300.00,3.00L300.00,213.00L3.00,213.00z"/></g><g id="ToolTip" visibility="hidden" opacity="0" transform="translate(0,0)"><rect id="ToolTipShadow" opacity="0.20" fill="black" stroke="none" x="0" y="0" width="30" height="8"/><rect id="ToolTipBG" fill="#ffffe1" stroke="black" x="0" y="0" width="30" height="8"/><text xml:space="preserve" id="ToolTipText" fill="black" x="0" y="0" width="30" height="8">tooltip</text></g></g></svg>