<?xml version="1.0" encoding="UTF-8" standalone="yes"?><svg xmlns="http://www.w3.org/2000/svg" xmlns:xlink="http://www.w3.org/1999/xlink" width="297.000mm" height="210.000mm" viewBox="0.000000 0.000000 297.000000 210.000000" stroke-linejoin="round" stroke-linecap="round" fill="none" fill-rule="evenodd"><desc>Composer Export</desc><script type="text/ecmascript"><![CDATA[
if(typeof(top) != "undefined")
{
	top.ShowPaper = ShowPaper;
}
function ShowHotSpot(evt,hotspotid)
{
	var svgDocument = evt.target.ownerDocument;
	var strId = "hotspot."+hotspotid;
	var hotspot = svgDocument.getElementById(strId);
	if(hotspot)
		hotspot.setAttribute("opacity",".5");
}
function HideHotSpot(evt,hotspotid)
{
	var svgDocument = evt.target.ownerDocument;
	var strId = "hotspot."+hotspotid;
	var hotspot = svgDocument.getElementById(strId);
	if(hotspot)
		hotspot.setAttribute("opacity","0");

	var toolTip = svgDocument.getElementById('ToolTip');
	if(toolTip)
		toolTip.setAttribute("visibility","hidden");
}
function ShowToolTip(evt,hotspotid,strTooltip)
{
	if(strTooltip=="")
	return;

	// change text
	var svgDocument = evt.target.ownerDocument;
	var tiptext = svgDocument.getElementById('ToolTipText');
	if( !tiptext )
	return;
	tiptext.firstChild.nodeValue = " " + strTooltip + "  " ;

	// show tooltip before, else some refresh issue

	var toolTip = svgDocument.getElementById('ToolTip');
	if(!toolTip)
	return;

	toolTip.setAttribute("visibility","visible");
	toolTip.setAttribute("opacity",".95");

	// move tooltip
	// get viewbox

	var root = svgDocument.documentElement;
	var vbox = (root.getAttribute("viewBox")).split(' ');
	var x0 = parseFloat(vbox[0]);
	var y0 = parseFloat(vbox[1]);
	var vboxW = parseFloat(vbox[2]);
	var vboxH = parseFloat(vbox[3]);

	// get default width of svg

	var strW = root.getAttribute("width");
	var svgW = parseFloat(strW);
	if(strW.indexOf('mm') != -1)
	svgW *= 3.779;

	var strH = root.getAttribute("height");
	var svgH = parseFloat(strH);
	if(strH.indexOf('mm') != -1)
	svgH *= 3.779;  	// 96 dpi  -> 96/25.4 = 3.779

	// update the viewbox / width / height if svg is embedded in html with zoom fit all
	var realx0 = x0;
	var realy0 = y0;
	var realvboxW = vboxW;
	var realvboxH = vboxH;
	var realsvgW = svgW;
	var realsvgH = svgH;

	if ((typeof(top) == "undefined") || (typeof(top.svgctl1) != "undefined")) // embedded in html
	{
		// get window size in pxl

		svgW = window.innerWidth;
		svgH = window.innerHeight;

		// calculate real viewbox

		realsvgW = svgW;
		realsvgH = svgH;
		if((svgW / svgH) > (vboxW / vboxH))
		{
			realvboxW = (vboxH * svgW) / svgH;
			realvboxH = vboxH;
			realx0 = x0 - (realvboxW - vboxW)/2 ;
		}
		else
		{
			realvboxH = (vboxW * svgH) / svgW;
			realvboxW = vboxW;
			realy0 = y0 - (realvboxH - vboxH)/2 ;
		}
	}

	// get user zoom/pan

	var newScale = root.currentScale;
	var translation = root.currentTranslate;

	// transform pxl to user unit

	var xPos = (((evt.clientX+10- translation.x)/newScale) * realvboxW)/realsvgW  + realx0 ;
	var yPos = (((evt.clientY+5- translation.y)/newScale) * realvboxH)/ realsvgH  + realy0 ;
	var scaleForWidth = ( (1 / newScale) * realvboxH) / realsvgH;

	// move tooltip

	toolTip.setAttribute("transform", "translate(" + xPos + "," + yPos + ")" );

	// resize tooltip

	var fontsize = 12;
	tiptext.setAttribute("font-size",fontsize*scaleForWidth);
	tiptext.setAttribute("y", fontsize*scaleForWidth);
	var tipBG = svgDocument.getElementById('ToolTipBG');
	var outline = tiptext.getBBox();
	if(tipBG)
	{
		tipBG.setAttribute("stroke-width", 1*scaleForWidth);
		tipBG.setAttribute("width", Number(outline.width) );
		tipBG.setAttribute("height", Number(outline.height) + fontsize*.5*scaleForWidth );
	}
	var ToolTipShadow = svgDocument.getElementById('ToolTipShadow');
	if(ToolTipShadow)
	{
		ToolTipShadow.setAttribute("width", Number(outline.width) );
		ToolTipShadow.setAttribute("height", Number(outline.height) + fontsize*.5*scaleForWidth );
		ToolTipShadow.setAttribute("x", 3*scaleForWidth);
		ToolTipShadow.setAttribute("y", 3*scaleForWidth);
	}
}
function ShowPaper()
{
  var svgDocument = getDocument();
  var paper = svgDocument.getElementById("paperID");
  if(paper)
  {
    paper.setAttribute("transform","scale(1)");
    paper.setAttribute("opacity","1");
    paper.setAttribute("visibility","visible");
  }
  var svg = svgDocument.getRootElement();
  if(svg)
  {
    svg.setAttribute("width","307.000mm");
    svg.setAttribute("height","220.000mm");
    svg.setAttribute("viewBox","-5.000000 -5.000000 307.000000 220.000000");
  }
}
]]></script><defs/><g><path style="fill:#000000;fill-opacity:0.098;fill-rule:evenodd" d="M174.33,11.16L174.06,11.42L170.72,11.90L167.71,13.42L165.04,16.04L163.19,19.47L162.76,21.56L162.74,23.51L164.54,26.60L164.18,23.01L164.76,20.04L166.55,16.80L168.58,15.05L171.22,13.66L172.75,13.43L174.84,13.43L176.86,13.92L178.15,14.67L174.75,15.17L172.57,16.27L170.96,17.68L169.33,19.83L168.48,21.99L168.05,24.08L168.05,26.26L168.54,28.54L169.30,30.04L170.61,31.51L170.87,32.10L168.06,31.28L165.79,29.02L165.44,28.27L166.03,32.05L166.55,32.53L166.24,32.81L166.28,37.59L166.77,47.42L166.96,47.98L171.24,47.66L264.70,37.57L264.70,39.18L250.51,40.85L250.60,121.25L250.85,120.22L250.75,47.66L257.07,46.90L259.42,46.89L259.57,74.43L265.96,73.91L269.76,73.41L268.55,67.71L268.98,68.29L269.98,71.83L270.74,76.35L270.74,83.73L269.99,88.01L268.22,92.79L265.86,96.46L264.09,97.97L263.12,98.51L259.57,98.99L259.42,119.73L259.16,120.48L258.60,121.18L250.54,122.18L250.33,122.47L211.76,126.69L209.07,126.69L199.00,124.67L197.83,124.34L199.25,124.42L208.06,126.18L209.35,126.26L209.09,118.88L191.62,120.64L190.87,120.90L190.87,122.74L197.83,124.34L194.98,123.92L190.87,123.14L190.70,127.78L190.45,128.53L189.96,129.05L160.16,132.33L160.00,104.28L157.90,104.29L155.45,104.63L155.22,56.45L145.55,57.46L145.39,59.06L145.10,59.26L143.79,59.33L143.64,57.71L138.00,58.07L138.00,56.45L172.75,52.70L173.63,52.42L173.39,52.18L166.78,50.92L158.73,51.76L154.62,52.03L154.45,29.79L153.97,26.75L152.69,24.00L151.69,23.74L149.43,21.22L147.17,19.96L143.05,19.97L136.99,20.56L137.00,0.33L161.24,0.31L160.48,2.42L159.49,8.22L159.49,11.66L159.72,15.46L160.23,17.04L161.52,14.78L164.19,12.16L167.45,10.64L169.22,10.41L171.82,10.41zM200.60,46.57L201.80,46.90L199.26,47.48L192.37,48.15L192.37,49.76L195.51,49.68L195.49,50.77L186.05,51.75L186.06,51.47L186.70,51.21L186.70,50.97L186.09,50.75L186.08,47.90L198.92,46.40L200.49,46.42zM189.44,12.92L190.73,13.90L191.96,16.20L192.95,20.74L193.47,21.98L193.92,36.87L193.16,37.36L190.62,37.84L188.59,37.93L188.43,36.33L188.20,30.79L187.91,31.07L185.81,32.53L182.32,34.58L182.14,38.17L179.87,38.92L178.52,39.60L177.62,39.61L175.58,39.36L168.27,36.80L168.21,36.57L170.31,36.69L170.32,35.31L167.44,34.82L171.25,34.58L174.63,33.43L177.63,31.15L180.13,27.86L181.64,23.83L181.64,18.96L180.42,15.15L178.14,12.15L177.53,11.39L178.37,11.40L179.13,11.69L179.65,11.66L178.37,10.91L173.25,9.23L173.32,7.95L174.34,7.88zM179.91,17.70L179.81,18.47L178.78,18.70L177.61,19.29L176.12,20.58L174.76,22.49L174.00,25.26L174.33,28.04L175.11,29.77L175.88,30.54L175.78,31.05L175.35,31.08L173.09,30.28L171.58,28.77L170.55,26.53L170.30,24.09L170.55,22.05L171.84,19.57L173.58,18.03L175.01,17.19L176.02,16.95L178.88,16.93zM132.06,20.22L132.28,52.72L132.81,53.22L130.96,53.28L131.03,19.96zM175.85,24.83L176.08,23.55L177.51,21.71L178.79,20.72L180.41,20.23L180.39,23.58L179.12,27.09L177.51,29.30L177.13,29.29L176.09,27.79L175.85,26.51zM108.41,27.26L108.63,48.42L110.33,48.41L119.75,47.41L119.65,49.18L110.33,50.17L108.14,50.17L79.95,44.64L72.31,45.23L72.31,43.62L77.71,43.11L78.19,43.63L107.14,49.27L107.12,27.01zM274.49,29.12L275.44,28.77L276.28,28.76L276.30,29.86L274.48,29.53zM215.78,32.56L216.26,32.29L217.41,32.31L217.40,32.88L216.34,32.82zM202.43,35.13L202.51,34.67L203.19,34.30L206.22,33.81L207.83,33.80L207.83,35.42L206.22,35.57L203.77,35.59zM258.31,35.82L293.14,32.03L293.14,33.64L292.84,33.85L265.12,36.83L262.68,36.83L258.88,36.10zM237.14,36.89L237.14,36.60L238.81,36.34L238.78,37.18zM203.54,37.04L203.77,38.07L203.52,38.91L203.28,42.95L202.72,43.15L200.68,43.48L200.55,40.37L199.69,40.63L196.66,41.11L190.61,41.60L190.46,44.48L188.59,44.48L188.45,41.86L182.30,41.86L182.15,44.48L178.78,44.48L178.63,41.60L172.83,41.11L169.80,40.62L168.87,40.28L173.84,40.86L177.86,41.11L185.08,41.11L191.37,40.61L196.98,39.67L200.20,38.87L200.70,38.36L203.30,37.92L203.30,36.79zM198.04,37.90L196.61,37.90L196.61,37.61L198.04,37.61zM149.43,38.79L149.43,40.45L148.15,40.70L148.08,39.34L148.91,39.16L149.19,38.56zM224.11,38.86L222.83,38.94L222.83,37.58L224.21,37.35zM151.06,46.13L151.30,45.88L152.73,45.90L152.71,46.48zM134.58,49.69L133.19,49.73L133.20,49.42L133.80,49.39zM78.10,50.44L78.86,50.17L81.26,49.94L81.15,50.68L79.20,50.68zM74.85,50.64L75.43,50.70L75.49,50.97L75.15,50.97zM82.13,51.19L82.62,50.91L85.02,50.94L85.02,51.50L83.23,51.43zM77.35,51.70L78.11,51.43L79.48,51.44L79.47,52.01L78.45,51.93zM85.89,51.94L89.28,51.68L89.27,52.53L87.00,52.19zM128.08,53.43L128.32,53.68L126.01,53.70L123.50,53.20L122.40,53.18L122.46,53.41L123.27,53.92L123.25,59.57L121.73,60.34L121.48,52.94L120.61,52.49L120.61,52.20L121.74,52.19zM81.11,52.44L83.73,52.16L83.77,53.01zM76.32,52.94L78.95,52.67L78.98,53.51zM69.43,53.17L67.85,53.52L67.85,53.04L69.18,52.93zM92.16,53.17L92.41,52.93L95.06,52.67L95.07,53.53L93.30,53.44zM147.29,53.75L147.30,53.48L148.08,53.19L149.19,53.19L149.18,54.04zM87.38,53.68L87.62,53.43L89.55,53.45L89.54,54.03L88.51,53.95zM95.96,53.95L97.49,53.70L99.37,53.71L99.37,54.27L97.32,54.20zM68.80,53.94L74.45,53.20L74.41,54.28L73.85,54.47L70.39,54.45L69.08,54.21zM92.70,54.18L93.58,54.21L93.58,54.53L92.75,54.44zM131.06,57.49L131.09,57.79L130.71,58.48L129.80,59.85L129.70,57.20L130.56,57.20zM98.11,58.94L98.82,61.11L95.72,61.34L95.79,59.55L96.31,58.56L97.59,58.46zM122.92,62.98L128.01,62.47L127.51,63.83L127.28,65.11L123.92,65.53L121.14,65.54L122.27,65.05L122.72,65.11L123.00,64.35zM132.56,63.76L133.09,64.24L134.07,66.28L134.34,68.38L133.23,68.54L129.44,68.89L129.53,65.85L130.06,64.37L131.22,63.48zM153.46,65.12L151.93,65.37L151.85,59.48L153.47,58.98zM139.13,66.25L139.10,70.39L138.35,72.91L137.49,74.31L135.77,75.61L133.48,75.85L131.98,75.81L132.56,76.56L129.78,83.49L129.79,74.06L130.31,74.57L131.80,75.37L133.58,75.19L135.33,73.59L136.07,73.68L136.85,72.16L137.34,69.63L137.25,66.02L138.88,66.00zM127.05,66.25L127.27,67.54L127.28,76.44L125.67,76.44L125.74,66.59L125.94,66.03L126.80,65.99zM268.30,66.95L268.12,66.28L268.22,66.26zM152.19,67.53L152.94,68.55L153.22,69.88L151.08,69.88L151.41,68.28L150.82,67.77L151.72,67.29zM122.26,68.03L123.24,68.55L123.25,74.42L122.40,74.57L121.74,75.20L121.75,67.25zM268.55,67.71L268.30,66.95L268.45,67.06zM141.85,68.88L142.28,66.77L146.32,66.28L148.42,66.27L148.35,68.06L147.60,68.82L143.56,69.31L143.14,71.65L142.04,74.34L140.64,75.96L138.78,76.87L135.74,77.12L137.24,76.33L138.78,74.60L139.62,72.67L140.09,69.86L140.30,69.32L141.39,68.83zM149.16,70.58L149.68,72.06L149.68,98.33L148.09,98.61L148.08,70.28L148.67,70.27zM97.81,73.35L98.59,74.57L98.51,75.86L95.73,76.20L95.79,74.15L96.73,73.05L97.33,73.04zM124.77,78.10L124.77,78.95L122.98,79.21L122.97,77.34L122.37,76.82L122.61,76.58L123.77,76.58zM145.39,78.19L145.09,78.40L142.77,78.36L144.31,75.85L145.14,73.41L145.39,72.30zM125.91,78.11L127.29,78.10L127.28,96.07L125.69,96.34L125.75,81.20L126.01,80.21zM136.35,80.11L137.59,80.38L140.63,80.37L139.85,80.71L136.83,88.25L136.60,95.57L129.71,96.34L129.78,89.00L133.84,79.21L134.34,78.86zM123.27,83.37L123.26,92.05L121.72,92.30L121.74,82.11zM49.50,82.64L50.51,83.64L51.52,86.16L51.52,87.26L47.90,87.52L47.70,82.69L47.91,82.39L49.01,82.38zM74.13,82.97L74.07,54.94L80.96,54.17L80.97,82.48L78.35,82.63L78.20,85.25L75.93,85.16L73.14,84.68L72.34,84.16L72.34,83.88L74.41,83.18zM108.14,84.15L104.79,84.15L100.75,84.49L100.75,56.45L109.07,55.46L111.17,55.45L111.20,84.73zM124.00,94.68L123.69,96.25L122.93,97.01L117.88,97.49L115.86,97.51L116.73,97.02L117.18,97.07L117.61,94.96L123.74,94.22zM153.45,97.82L153.15,98.03L151.85,98.09L151.86,74.34L153.47,73.58zM144.39,102.53L144.39,129.30L143.55,129.30L143.63,102.26zM145.82,103.28L147.40,102.85L147.82,100.75L153.96,100.25L153.97,101.87L153.37,102.78L149.35,103.28L149.26,103.43L146.11,103.56zM150.21,103.75L150.18,130.31L149.33,130.31L149.26,103.43L149.95,103.50zM54.81,107.56L53.20,107.82L52.99,108.37L52.45,108.58L52.53,115.12L52.27,121.73L51.97,121.94L49.91,122.00L49.92,106.79zM57.45,109.07L59.34,108.81L59.33,109.41zM64.35,111.17L63.72,111.39L63.75,110.83L64.12,110.78zM59.73,114.95L59.74,111.34L60.49,111.08L61.84,111.07L61.86,117.45L59.76,117.14L59.49,116.84L61.59,116.96L61.59,115.10zM64.76,116.21L64.84,112.41L68.13,112.07L68.14,118.22L66.34,118.15L65.77,117.87L67.88,117.97L67.88,116.11zM71.56,112.59L72.91,112.32L73.06,118.22L74.21,118.40L74.20,118.70L73.18,118.65L71.81,118.90L69.60,118.61L69.55,118.36L71.66,118.47zM57.82,116.63L56.52,116.63L55.95,116.35zM83.13,118.47L84.76,118.63L82.49,118.99L81.82,119.32L81.87,113.09L82.99,113.09zM78.10,118.48L79.47,118.63L77.34,118.87L76.69,119.23L75.16,119.42L74.57,119.13L75.69,118.98L75.85,113.10L77.37,112.57L77.94,112.57zM72.92,119.63L72.90,125.51L71.57,125.79L71.81,119.88L72.42,119.12zM82.99,119.59L83.00,125.79L82.74,126.03L81.89,126.29L81.96,119.74L82.77,119.37zM81.72,119.47L80.60,119.39L81.82,119.32zM77.94,119.64L77.96,122.01L77.71,122.26L75.85,122.76L75.91,120.21L76.92,119.96L77.12,119.39L77.42,119.33zM61.84,124.26L59.81,124.51L59.73,121.39L61.59,121.24L61.83,118.11zM68.14,125.27L67.03,125.43L64.76,125.52L64.76,122.65L67.88,122.25L68.12,119.11zM113.85,127.21L114.94,127.17L114.94,130.54L114.46,130.82L106.41,131.71L105.80,131.44L105.37,131.80L103.28,132.22L102.25,132.22L102.75,131.44L104.59,131.24L104.89,130.94L104.13,130.45L102.51,130.45L101.51,130.96L99.75,132.47L92.27,133.32L92.27,129.77L93.30,129.54L93.45,88.17L113.19,86.01L113.96,85.66zM191.21,19.46L192.21,19.98L192.21,20.79L189.35,22.77L188.94,22.75L187.93,20.22L187.69,19.95L187.57,19.22L190.20,19.21zM203.52,46.49L203.51,45.99L204.55,45.88zM204.84,49.73L203.45,49.92L201.68,49.93L203.70,49.42L204.84,49.44zM190.87,122.74L190.87,120.90L191.62,120.64L209.09,118.88L209.35,126.26L208.06,126.18L199.25,124.42L197.83,124.34z"/><g id="Actor_.0"><path style="fill:#ff0000;fill-rule:evenodd" d="M56.53,70.10L62.65,75.18L62.68,75.39L62.40,75.68L53.91,86.57L53.73,86.19L53.22,81.62L52.11,81.63L15.08,85.65L13.56,85.65L12.44,75.52L51.94,71.16L51.99,70.10L51.57,66.08z"/></g><g id="Actor_.1"><g style="stroke:#000000;stroke-width:0.250"><path d="M12.52,76.27L12.44,75.48L52.10,71.17L51.53,65.99L62.73,75.27L53.78,86.74L53.22,81.55L13.56,85.85L12.52,76.27"/></g></g><g id="Actor_.2"><g style="stroke:#000000;stroke-width:0.176"><path d="M52.94,116.24L52.50,115.81L52.50,114.93L52.50,115.10L52.31,115.07L52.24,115.05"/><path d="M55.67,109.13L55.67,109.41L56.40,109.39L56.40,109.14L55.67,109.13L54.06,109.08L52.54,108.98L52.41,108.97L52.31,108.95L52.25,108.93L52.23,108.90"/><path d="M53.11,116.27L53.01,115.96L54.63,116.01L55.49,116.01L55.49,116.32"/><path d="M52.85,116.15L52.85,116.15"/><path d="M52.50,115.10L52.49,115.29"/><path d="M52.50,114.93L52.50,110.75L52.50,111.79"/><path d="M53.01,115.96L52.88,115.96L52.74,115.94L52.64,115.92L52.59,115.89L52.59,109.77L52.64,109.80L52.73,109.82L52.86,109.83L53.01,109.84L53.01,115.96"/><path d="M52.50,110.75L52.50,109.69L52.59,109.77"/><path d="M53.01,109.84L54.63,109.89L56.28,109.89L56.28,110.20L55.62,110.25L54.59,110.37L54.48,110.39L54.42,110.41L54.40,110.44L54.43,110.46L54.43,114.41L54.40,114.38L54.40,110.44"/><path d="M52.54,108.98L52.54,109.64L52.63,109.62L52.75,109.60L54.20,109.48L55.67,109.41"/><path d="M52.54,109.64L52.50,109.66L52.50,109.69"/><path d="M53.10,108.07L53.12,108.09L53.20,108.11L53.31,108.13L54.65,108.27L56.16,108.37L56.16,108.64L55.86,108.64L54.21,108.67L53.10,108.72"/><path d="M53.31,108.71L53.31,108.13"/><path d="M54.84,110.62L54.93,110.64L55.06,110.66L55.21,110.67L55.39,110.67L55.39,114.62L55.21,114.61L55.06,114.60L54.93,114.58L54.84,114.56L54.84,110.62L54.43,110.46"/><path d="M55.39,114.62L56.31,114.61L56.31,115.24L56.32,115.25L56.34,115.26L56.34,111.32L56.32,111.31L56.31,111.30L56.31,114.61"/><path d="M54.84,114.56L54.43,114.41"/><path d="M55.39,110.67L56.69,110.66L57.97,110.62L57.97,110.98L57.59,111.03L56.60,111.22L56.34,111.28L56.32,111.29L56.31,111.30"/><path d="M55.27,107.86L55.27,107.87L55.32,107.87"/><path d="M55.15,107.87L55.27,107.87"/><path d="M58.23,117.08L57.97,116.84L57.97,115.36L57.87,115.36L57.87,116.74L55.49,116.38"/><path d="M55.49,116.01L55.49,114.62"/><path d="M56.34,115.26L56.80,115.36L56.80,111.42L56.96,111.44L57.52,111.43L57.52,115.37L57.03,115.38L57.03,111.44"/><path d="M56.34,111.32L56.80,111.42"/><path d="M56.28,109.89L57.00,109.88L57.21,109.88L57.30,109.89L57.36,109.90L57.40,109.92L57.66,110.06L57.66,110.09L57.61,110.10L57.54,110.12L57.40,110.13L57.40,109.92"/><path d="M56.28,110.20L56.77,110.16L57.00,110.15L57.00,109.88"/><path d="M56.40,109.14L56.59,109.15L56.67,109.16L56.72,109.17L56.73,109.19L56.74,109.37L56.78,109.35L56.78,109.34L56.73,109.19"/><path d="M56.40,109.39L56.58,109.39L56.74,109.37"/><path d="M56.16,108.37L56.95,108.40L57.09,108.43L57.12,108.44L57.11,108.46L56.95,108.60L56.92,108.62L56.86,108.63L56.86,108.40"/><path d="M56.86,108.63L56.69,108.65L56.16,108.64"/><path d="M57.03,115.38L56.90,115.38L56.80,115.36"/><path d="M57.52,111.43L59.13,111.38L60.64,111.28L61.77,111.17L62.15,111.15L62.56,111.14L62.95,111.16L63.28,111.20L63.63,111.25L63.63,111.84L63.60,112.08L64.47,112.09L64.25,112.15L63.83,112.39L63.75,112.46L63.74,112.47L63.79,112.49L64.52,112.56L64.65,112.57L64.78,112.56L65.21,112.53L66.57,112.39L67.72,112.22L67.72,116.16L66.57,116.33L65.62,116.43L65.62,117.92L67.99,118.28L68.14,118.51L68.21,118.60"/><path d="M57.40,110.13L57.00,110.15"/><path d="M57.52,109.24L57.02,109.32L59.01,109.58L59.04,109.57L59.04,108.98L57.52,109.24"/><path d="M57.87,116.74L57.97,116.84"/><path d="M57.87,115.36L57.52,115.37"/><path d="M57.97,115.36L58.64,115.33L58.64,117.05"/><path d="M57.97,110.98L58.82,110.87L59.09,110.84L59.09,110.61L59.03,110.60L58.85,110.58L58.64,110.58L58.64,110.89"/><path d="M57.66,110.06L57.68,110.07L57.66,110.09"/><path d="M57.97,110.62L58.64,110.58"/><path d="M59.64,108.72L59.43,108.71L58.55,108.59L57.97,108.44L57.89,108.38"/><path d="M58.64,115.33L59.09,115.32L59.09,117.08"/><path d="M59.51,117.27L59.50,117.27"/><path d="M61.77,111.17L61.77,117.52L61.58,117.31L59.21,116.95L59.42,117.18"/><path d="M60.64,111.28L60.64,115.22L59.21,115.31L59.21,116.95"/><path d="M59.21,115.31L59.09,115.32"/><path d="M59.55,110.79L59.59,110.77L59.58,110.75L59.55,110.74L59.55,110.79L59.51,110.80L59.09,110.84"/><path d="M59.09,110.61L59.55,110.74"/><path d="M59.04,108.98L59.35,108.95L59.72,108.93L60.12,108.93L60.50,108.94L60.59,108.96"/><path d="M59.04,109.57L59.35,109.54L59.72,109.52L60.12,109.51L60.50,109.53L60.81,109.57L60.97,109.60L60.81,109.63L60.46,109.65L60.06,109.66L59.67,109.65L59.33,109.62L59.01,109.58"/><path d="M60.64,115.22L61.58,115.13L61.58,117.31"/><path d="M61.18,109.20L61.13,109.10"/><path d="M61.12,109.09L61.12,109.58L61.18,109.56"/><path d="M60.97,109.60L61.09,109.59L61.12,109.58"/><path d="M61.77,117.52L61.89,117.63"/><path d="M63.28,111.20L63.28,117.67"/><path d="M63.60,117.72L63.60,112.08"/><path d="M63.74,112.47L63.74,116.41L63.76,116.42L63.84,116.43L63.84,112.49"/><path d="M63.63,111.84L63.66,111.64L63.66,111.05L63.68,111.03"/><path d="M63.63,111.25L63.66,111.05"/><path d="M63.66,111.64L63.74,111.58L63.93,111.53L64.24,111.49L64.61,111.47L65.01,111.47L65.39,111.48L65.56,111.50L65.71,111.50L65.71,111.07"/><path d="M64.52,112.56L64.52,116.51L64.65,116.51L64.78,116.51L64.78,112.56"/><path d="M64.78,116.51L65.28,116.46L65.28,117.97"/><path d="M64.52,116.51L63.84,116.43"/><path d="M64.47,112.09L64.97,111.94L65.63,111.80L65.63,111.56L65.86,111.60L65.96,111.66L65.92,111.72L65.75,111.78L65.63,111.80"/><path d="M65.64,118.03L65.63,117.95L65.70,118.04"/><path d="M65.63,117.95L65.62,117.92"/><path d="M65.62,116.43L65.28,116.46"/><path d="M65.21,116.47L65.21,112.53"/><path d="M65.28,111.87L65.28,111.50L65.63,111.56"/><path d="M65.28,111.50L65.56,111.50"/><path d="M65.71,111.50L66.67,111.51L67.07,111.50L67.42,111.47L67.56,111.45L67.56,111.21L67.78,111.26L67.88,111.32L67.85,111.37L67.69,111.43L67.56,111.45"/><path d="M67.56,111.21L66.81,111.10"/><path d="M67.72,116.16L67.99,116.11L67.99,118.28"/><path d="M67.72,112.22L68.21,112.12L68.41,112.11L68.61,112.12L68.61,118.59"/><path d="M68.14,118.51L68.14,112.13"/><path d="M68.97,116.52L68.97,112.58L68.98,112.61L69.04,112.63L69.16,112.66L69.31,112.67L69.31,116.61L69.16,116.60L69.04,116.58L68.98,116.55L68.97,116.52"/><path d="M68.61,112.12L69.58,112.20L69.65,112.21L69.68,112.23L69.68,112.24L69.66,112.26L69.50,112.31L69.50,112.19"/><path d="M68.97,112.58L69.12,112.46L69.37,112.35L69.50,112.31"/><path d="M69.31,112.67L70.94,112.77L70.94,116.72L69.33,116.62L69.33,118.49L71.71,118.85L71.67,119.12"/><path d="M69.33,118.49L69.42,118.66"/><path d="M69.31,116.61L69.33,116.62"/><path d="M70.94,116.72L71.12,116.72L71.30,116.72L71.47,116.71L71.61,116.69L71.61,112.75L71.47,112.76L71.30,112.78L71.12,112.78L70.94,112.77"/><path d="M71.61,112.75L72.09,112.65L72.47,112.55L72.47,118.67L72.09,118.77L71.71,118.85L71.71,116.67L71.61,116.69"/><path d="M72.14,119.00L72.47,118.67L72.75,118.57L72.75,112.45L72.47,112.55"/><path d="M72.75,112.45L72.81,112.44L72.98,112.42L73.19,112.42L73.19,118.54L72.98,118.54L72.81,118.56L72.75,118.57L72.42,118.90"/><path d="M73.19,112.42L74.16,112.46L74.16,118.58L73.19,118.54L73.30,118.84"/><path d="M74.16,118.58L74.21,118.74L74.21,118.59L74.16,118.58"/><path d="M74.21,118.99L74.48,119.23L74.83,119.57"/><path d="M74.21,118.74L74.21,118.88"/><path d="M74.21,118.59L74.21,112.87L74.48,113.11L74.54,113.13L74.64,113.15L74.78,113.16L74.94,113.17L74.94,119.29L75.69,119.31L75.87,119.30L76.03,119.29L76.13,119.27L75.84,119.60"/><path d="M74.21,112.87L74.27,112.63L74.41,112.52L74.41,112.51L74.39,112.49L74.33,112.48L74.16,112.46"/><path d="M74.40,119.16L74.82,119.56"/><path d="M75.01,119.59L74.94,119.29L74.79,119.28L74.64,119.27L74.53,119.25L74.48,119.23L74.48,113.11"/><path d="M74.94,113.17L75.71,113.19L75.87,113.18L76.01,113.17L76.13,113.15L76.13,119.27L77.00,119.07L77.57,118.84L77.22,119.19"/><path d="M75.54,119.31L75.54,113.19"/><path d="M75.54,119.31L75.61,119.61"/><path d="M76.13,113.15L77.00,112.95L77.57,112.72L77.57,118.84L77.71,118.74L77.71,112.62L77.57,112.72"/><path d="M77.33,112.20L77.33,112.39L76.28,112.19L76.09,112.14L76.02,112.09L76.08,112.03L76.24,111.99"/><path d="M77.36,119.08L77.71,118.74L77.74,118.72L77.81,118.71L77.99,118.70L78.10,118.70L78.10,112.58L77.89,112.58L77.74,112.60L77.71,112.62"/><path d="M77.33,112.39L78.21,112.54L78.43,112.52L78.03,112.51"/><path d="M79.13,119.01L79.11,118.71L78.10,118.70L78.14,119.00"/><path d="M78.10,112.58L79.21,112.59L79.37,112.61L79.42,112.63L79.44,112.64L79.45,112.75L79.45,118.87L79.73,119.11L80.34,119.33L80.66,119.66"/><path d="M78.43,112.52L78.75,112.48"/><path d="M79.11,112.59L79.11,118.71L79.30,118.72L79.37,118.73L79.42,118.75L79.44,118.76L79.44,112.64"/><path d="M79.63,119.05L79.45,118.87L79.44,118.76"/><path d="M79.45,112.75L79.73,112.99L80.34,113.21L80.43,113.23L80.56,113.25L80.71,113.26L80.88,113.26L81.66,113.25L81.81,113.24L81.93,113.23L82.02,113.21L82.16,113.15"/><path d="M80.34,113.21L80.34,119.33L80.42,119.35L80.56,119.37L80.73,119.38L81.49,119.38L81.48,119.68"/><path d="M83.09,119.00L83.12,118.70L82.93,118.71L82.86,118.73L82.81,118.74L82.81,118.86L82.58,119.10L82.02,119.33L81.94,119.35L81.81,119.36L81.64,119.37L81.49,119.38L81.49,113.26"/><path d="M80.88,113.26L80.87,119.68"/><path d="M81.69,119.66L82.02,119.33L82.02,113.21"/><path d="M83.12,113.34L83.12,118.70L84.13,118.68L84.33,118.69L84.42,118.70L84.49,118.71L84.52,118.72L84.69,118.83L85.25,119.03"/><path d="M82.81,118.74L82.81,113.28"/><path d="M82.64,119.04L82.69,118.99"/><path d="M85.03,119.17L84.69,118.83L84.69,113.65"/><path d="M84.87,119.07L84.52,118.72L84.52,113.62"/><path d="M84.13,113.54L84.13,118.68L84.08,118.99"/></g><g style="stroke:#000000;stroke-width:0.529"><path d="M85.26,119.26L85.03,119.17L84.87,119.07L84.80,119.04L84.66,119.01L84.49,119.00L84.29,118.99L84.08,118.99L83.09,119.00L82.88,119.01L82.70,119.03L82.64,119.04L82.31,119.39L81.71,119.65L81.66,119.67L81.54,119.68L80.81,119.68L80.75,119.67L80.66,119.66L79.99,119.40L79.63,119.05L79.52,119.03L79.34,119.02L79.13,119.01L77.93,119.00L77.73,119.01L77.56,119.03L77.43,119.05L77.36,119.08L77.22,119.19L76.82,119.36L75.84,119.60L75.67,119.61L74.95,119.59L74.89,119.58L74.83,119.57L74.21,118.99L74.21,118.88L73.09,118.84L72.88,118.84L72.69,118.86L72.53,118.88L72.42,118.90L72.14,119.00L71.67,119.12L69.48,118.79L69.42,118.66L68.52,118.59L68.31,118.59L68.21,118.60L65.82,118.23L65.70,118.04L65.28,117.97L63.60,117.97L63.60,117.72L63.28,117.67L62.95,117.63L62.56,117.62L62.15,117.62L61.89,117.63L59.50,117.27L59.42,117.18L59.09,117.08L59.03,117.07L58.85,117.05L58.75,117.05L58.23,117.08L56.04,116.75L55.49,116.38L55.49,116.32L54.99,116.32L53.14,116.27L53.06,116.26L52.96,116.25L52.94,116.24L52.85,116.15L52.50,115.81L52.49,115.29L52.24,115.05L52.23,115.02L52.23,108.90L52.26,108.81L52.30,108.79L52.38,108.77L52.49,108.75L52.64,108.74L53.10,108.72L53.10,108.07L53.11,108.04L53.28,107.95L53.34,107.93L53.45,107.91L53.59,107.90L53.75,107.89L55.15,107.87L55.15,107.84"/><path d="M74.83,119.57L74.82,119.56"/></g></g><g id="Actor_.3"><g style="stroke:#000000;stroke-width:0.176"/><g style="stroke:#000000;stroke-width:0.529"><path d="M63.18,123.78L63.24,123.94L63.71,124.14"/><path d="M73.20,125.78L72.73,125.76"/><path d="M75.67,125.93L76.56,125.98L77.84,126.00"/><path d="M82.81,126.02L83.01,126.01"/></g></g><g id="Actor_.4"><g style="stroke:#000000;stroke-width:0.176"><path d="M59.92,43.50L59.92,41.74L59.57,41.64L59.45,41.54"/><path d="M59.92,41.74L69.49,43.62L69.49,45.39"/><path d="M69.49,43.62L70.69,43.75L72.16,43.75L72.82,43.69L72.82,45.46"/><path d="M72.82,43.69L77.72,43.16L78.00,43.81L78.48,44.34L79.07,44.65L79.50,44.74"/><path d="M74.19,8.93L74.18,-0.00"/><path d="M74.57,9.04L74.57,-0.00"/><path d="M77.72,43.16L77.60,42.31L77.60,39.39"/><path d="M77.60,42.31L107.04,48.10L107.14,48.90L107.44,49.60L107.92,50.14L108.51,50.44"/><path d="M108.47,27.47L107.04,27.19L107.04,48.10L108.47,47.94L108.50,48.21L108.60,48.44L108.76,48.62L108.88,48.68L109.17,48.74L109.17,50.50"/><path d="M108.47,47.94L108.47,39.63"/><path d="M108.88,48.68L109.17,48.74L119.80,47.58L119.80,40.00"/><path d="M119.80,50.61L130.80,52.77L130.92,53.63L126.91,54.06"/><path d="M119.80,47.58L119.80,49.35"/><path d="M121.31,52.96L121.28,52.95"/><path d="M125.53,56.41L125.53,54.65L125.19,54.55L125.06,54.44"/><path d="M125.53,54.65L135.11,56.53L136.31,56.65L137.04,56.67L138.44,56.60L172.82,52.87L172.82,54.64"/><path d="M130.92,53.63L132.81,53.42L132.64,53.35L132.94,53.41L132.81,53.42"/><path d="M132.23,50.15L132.23,52.62L130.80,52.77L130.80,20.10L132.23,20.38"/><path d="M132.23,52.62L132.27,52.88L132.36,53.11L132.52,53.29L132.64,53.35"/><path d="M135.03,49.83L140.82,49.20L132.23,47.51L132.23,49.27"/><path d="M132.23,47.51L132.23,41.64L133.51,41.65L134.40,41.71L135.11,41.81L135.55,41.94L135.69,42.08L135.47,42.23L135.02,42.34L134.29,42.44L133.38,42.49L132.23,42.49"/><path d="M132.23,41.64L132.23,38.66"/><path d="M133.82,20.69L133.82,-0.00"/><path d="M135.11,58.29L135.11,56.53"/><path d="M137.55,20.77L137.55,-0.00"/><path d="M138.44,58.37L138.44,56.60"/><path d="M144.65,40.47L144.61,40.51L144.72,40.62L145.09,40.73L146.39,40.86L147.19,40.87L147.97,40.84L148.66,40.78L149.16,40.69L149.44,40.58L149.46,40.46L149.42,40.44"/><path d="M147.26,53.58L147.04,53.75L147.21,53.92L147.75,54.08L148.75,54.21L149.69,54.27L150.88,54.29L152.04,54.25L153.06,54.16L153.81,54.02L154.21,53.86L154.25,53.68L153.89,53.52L153.18,53.38L152.20,53.28L151.04,53.23L149.85,53.24L148.75,53.31L147.85,53.42L147.26,53.58"/><path d="M147.12,20.16L147.91,20.22L150.59,21.62L152.69,23.98L154.04,27.12L154.51,30.70L153.45,30.49"/><path d="M153.45,46.68L152.74,46.65L151.61,46.51L151.35,46.45L151.05,46.32L151.07,46.17L151.40,46.04L152.03,45.93L153.45,45.83L153.45,52.15L154.51,52.36L166.54,51.05"/><path d="M153.45,45.83L153.45,36.35"/><path d="M154.51,52.36L154.51,30.70"/><path d="M166.48,42.20L166.11,34.98"/><path d="M166.88,50.08L166.79,48.33L263.72,37.81L263.72,39.58"/><path d="M166.79,48.33L166.53,43.22"/><path d="M172.82,52.87L173.34,52.79L173.67,52.70L173.78,52.59"/><path d="M217.66,35.95L218.14,35.89L219.60,35.52L220.15,35.09L219.73,34.67L218.39,34.29L216.27,33.99L213.61,33.81L210.69,33.76L207.83,33.86L205.33,34.09L203.48,34.42L202.46,34.82L202.40,35.25L203.29,35.66L204.06,35.84L204.75,35.96"/><path d="M204.59,42.70L205.43,42.27L205.52,41.48L204.19,40.71L203.42,40.50"/><path d="M216.09,32.53L216.72,32.42L217.55,32.34L219.47,32.32L220.36,32.38L221.07,32.48L221.51,32.61L221.65,32.75L221.47,32.89L220.99,33.02L220.25,33.11L219.34,33.16L218.37,33.17L217.42,33.14L216.62,33.05L216.03,32.94L215.74,32.80L215.76,32.66L216.09,32.53"/><path d="M224.18,38.83L224.22,38.85L224.21,38.96L223.93,39.07L222.84,39.22L221.96,39.25L221.16,39.24L219.92,39.12L219.49,39.00L219.37,38.89L219.43,38.85"/><path d="M237.37,36.72L237.04,36.85L237.02,36.99L237.37,37.14L237.90,37.24L238.70,37.32L239.65,37.36L240.62,37.35L241.53,37.30L242.27,37.20L242.75,37.08L242.93,36.94L242.79,36.80L242.35,36.67L241.64,36.57L240.75,36.51L238.83,36.53L238.00,36.60L237.37,36.72"/><path d="M263.62,37.21L257.83,36.07L292.36,32.32L292.36,34.09"/><path d="M264.69,37.53L264.58,37.64L264.24,37.73L263.72,37.81"/><path d="M275.64,28.95L275.64,29.94L274.75,29.76L274.29,29.56L274.28,29.34L274.75,29.13L276.04,28.87L276.28,28.78L276.33,28.68"/><path d="M276.32,30.01L275.64,29.94"/><path d="M292.36,32.32L292.88,32.25L293.21,32.15L293.32,32.04"/></g><g style="stroke:#000000;stroke-width:0.529"><path d="M193.80,31.98L220.41,29.11L221.88,29.11L223.07,29.23L229.46,30.49L263.98,26.74L265.38,26.68L266.11,26.69L267.31,26.82L276.19,28.59L276.33,28.68L276.33,30.01L278.33,30.13L279.83,30.13L282.56,30.02L283.82,30.09L292.85,31.84L293.19,31.94L293.32,32.04L293.32,33.81L293.21,33.91L292.88,34.01L292.36,34.09L263.62,37.21L264.56,37.42L264.69,37.53L264.69,39.29L264.58,39.40L264.25,39.50L263.72,39.58L166.88,50.08L166.93,51.01L166.54,51.05L173.31,52.38L173.66,52.48L173.78,52.59L173.78,54.35L173.67,54.46L173.34,54.56L172.82,54.64L138.44,58.37L137.78,58.42L136.31,58.42L135.11,58.29L125.53,56.41L125.19,56.31L125.06,56.21L125.06,54.44L125.17,54.33L125.49,54.24L126.91,54.06L121.28,52.95L120.68,52.65L120.21,52.12L119.91,51.41L119.80,50.61L119.80,49.35L109.17,50.50L108.51,50.44L79.50,44.74L72.82,45.46L72.16,45.51L70.69,45.51L70.03,45.46L69.02,45.30L59.92,43.50L59.57,43.41L59.45,43.30L59.45,41.54L59.56,41.43L59.89,41.33L77.60,39.39L77.60,9.63L74.57,9.04L74.19,8.93L74.05,8.81L74.05,-0.00"/><path d="M108.76,39.69L108.47,39.63L108.47,27.47L119.80,29.70L119.80,40.00L113.73,40.66L108.76,39.69"/><path d="M132.23,50.13L132.23,49.27L135.03,49.83L132.23,50.13"/><path d="M132.23,38.66L132.23,20.38L134.42,20.78L135.99,20.85L137.55,20.77L144.96,19.97L147.12,20.16L149.51,21.40L151.62,23.77L152.98,26.91L153.45,30.49L153.45,36.35L132.23,38.66"/><path d="M161.47,-0.00L160.25,3.29L159.33,9.24L159.63,15.16L161.13,20.66L163.75,25.40L165.29,28.42L165.96,31.98L166.11,34.98L166.87,34.90"/><path d="M203.42,42.27L204.19,42.47L204.59,42.70L203.93,43.04L201.15,43.71L197.25,44.27L192.50,44.65L187.23,44.85L181.80,44.83L180.92,44.80L176.57,44.62L171.90,44.21L168.12,43.64L166.53,43.22L166.48,42.20"/><path d="M204.97,35.92L204.75,35.96L207.46,36.25L210.29,36.36L213.22,36.34L215.94,36.17L217.66,35.95L216.27,35.76L213.61,35.57L210.69,35.53L207.83,35.62L205.33,35.85L204.97,35.92"/></g></g><g id="Actor_.5"><g style="stroke:#000000;stroke-width:0.176"><path d="M99.85,132.47L100.09,132.48L101.73,132.47L103.26,132.38L104.49,132.22L104.58,132.19L105.31,132.01L105.61,131.77"/><path d="M105.48,131.19L104.96,131.39L103.92,131.58L102.52,131.71L100.92,131.76L100.71,131.76"/><path d="M105.42,131.15L104.94,131.34L103.90,131.53L102.51,131.65L100.92,131.71L100.78,131.70"/><path d="M103.22,132.44L103.22,132.44"/></g><g style="stroke:#000000;stroke-width:0.529"><path d="M99.79,132.53L100.10,132.54L101.72,132.53L103.23,132.44L104.45,132.28L105.26,132.07L105.28,132.06L105.58,131.83L105.60,131.81L105.61,131.79L105.61,131.77L105.58,131.26"/></g></g><g id="Actor_.6"><g style="stroke:#000000;stroke-width:0.176"><path d="M46.46,121.74L46.77,122.00L47.63,122.25L47.63,125.78"/><path d="M47.63,122.25L53.19,123.34L54.38,124.84L54.38,128.37"/><path d="M53.19,126.87L53.19,123.34"/><path d="M54.38,124.84L54.76,125.05L55.51,125.25L67.80,127.67L67.80,131.20"/><path d="M55.51,125.25L55.51,128.78"/><path d="M62.92,123.99L62.55,124.38L62.92,124.45"/><path d="M67.80,127.67L68.88,127.83L70.21,127.95L79.67,128.55L79.67,132.08"/><path d="M70.21,131.48L70.21,127.95"/><path d="M79.67,128.55L85.23,129.64L86.56,129.83L88.22,129.95L90.06,129.99L91.90,129.95L93.55,129.82L93.55,133.35"/><path d="M85.23,133.17L85.23,129.64"/><path d="M93.55,129.82L112.65,127.75L112.65,131.28"/><path d="M101.77,130.97L102.82,130.53L103.94,130.53L105.28,131.05L105.67,131.32"/><path d="M112.65,127.75L113.95,127.55L114.78,127.31L115.05,127.04"/></g><g style="stroke:#000000;stroke-width:0.529"><path d="M47.61,121.22L46.73,121.47L46.46,121.74L46.46,125.27L46.77,125.54L47.63,125.78L53.19,126.87L54.38,128.37L54.76,128.59L55.51,128.78L67.80,131.20L68.88,131.36L70.21,131.48L79.67,132.08L85.23,133.17L86.56,133.36L88.22,133.48L90.06,133.52L91.90,133.48L93.55,133.35L99.62,132.69L100.02,132.30L101.63,131.03L101.77,130.97"/><path d="M85.30,126.96L80.45,127.05L75.56,126.94L75.20,126.87"/><path d="M113.91,126.54L114.74,126.77L115.05,127.04L115.05,130.57L114.78,130.84L113.95,131.08L112.65,131.28L106.58,131.94L105.67,131.32L105.58,131.28"/></g></g><g id="Actor_.7"><g style="stroke:#000000;stroke-width:0.176"><path d="M52.89,116.19L52.54,116.16L52.42,116.15L52.31,116.13L52.24,116.11L52.23,116.08L52.51,115.81"/><path d="M52.54,122.28L52.54,119.50L52.59,119.54L52.59,116.95L52.64,116.98L52.73,117.00L52.88,117.01L53.01,117.02L53.01,119.61L54.63,119.66L55.49,119.66L55.49,117.44L56.04,117.10L58.23,117.43L57.97,117.70L57.97,121.16L58.64,121.07L58.64,117.41L58.85,117.41L59.03,117.42L59.09,117.43L59.55,117.57L59.59,117.58L59.59,117.60L59.55,117.61L59.55,117.57"/><path d="M52.50,119.45L52.50,119.10L52.50,119.45L52.54,119.50"/><path d="M52.50,119.10L52.50,116.87L52.59,116.95L52.94,116.59L53.00,116.61L53.11,116.62L54.96,116.67L55.92,116.67"/><path d="M53.01,119.61L52.86,119.60L52.73,119.59L52.64,119.57L52.59,119.54"/><path d="M56.24,116.78L56.29,117.08L56.42,117.07L54.63,117.07L53.01,117.02L53.11,116.62"/><path d="M52.94,116.59L52.85,116.50L52.85,116.50L52.87,116.49L52.91,116.48L52.98,116.47L54.63,116.34L55.04,116.32"/><path d="M52.85,116.50L52.50,116.87L52.49,116.84L52.50,116.84"/><path d="M52.64,115.94L52.54,116.16L52.54,116.80L52.85,116.50"/><path d="M52.50,117.01L52.49,116.84L52.54,116.80"/><path d="M54.43,123.76L54.43,120.64L54.84,120.80L54.93,120.82L55.06,120.84L55.21,120.85L55.39,120.85L56.70,120.84L57.87,120.81L57.87,117.80L57.97,117.70"/><path d="M54.84,120.80L54.84,123.92"/><path d="M55.39,123.97L55.39,120.85"/><path d="M54.40,122.39L54.40,120.62L54.43,120.64"/><path d="M54.40,120.62L54.41,120.59L54.48,120.57L54.59,120.55L55.49,120.44L55.49,119.66"/><path d="M56.34,124.62L56.34,121.50L56.32,121.49L56.31,121.48L56.31,123.97"/><path d="M56.34,121.50L56.80,121.60L56.90,121.61L57.03,121.62L57.03,124.74"/><path d="M57.97,121.16L57.59,121.21L56.60,121.40L56.34,121.46L56.32,121.47L56.31,121.48"/><path d="M55.49,120.44L57.87,120.81"/><path d="M56.42,117.07L56.89,117.04L57.49,117.00L57.52,116.97"/><path d="M56.04,117.10L56.29,117.08"/><path d="M55.49,117.44L57.87,117.80"/><path d="M57.52,124.73L57.52,121.61L57.03,121.62"/><path d="M56.80,124.72L56.80,121.60"/><path d="M57.00,117.03L56.98,116.89"/><path d="M57.49,117.00L57.66,116.99"/><path d="M61.58,121.37L59.21,121.01L59.21,118.01L61.58,118.37L61.58,121.37L60.64,121.46L59.13,121.56L57.52,121.61"/><path d="M58.23,117.43L58.64,117.41"/><path d="M58.64,121.07L58.82,121.05L59.09,121.02L59.09,117.43"/><path d="M59.09,121.02L59.21,121.01"/><path d="M65.64,118.38L65.86,118.43L65.96,118.49L65.92,118.55L65.82,118.59L65.64,118.95L65.64,118.38L65.28,118.33L63.60,118.32L63.63,118.08L63.28,118.02L62.95,117.99L62.56,117.97L62.15,117.97L61.89,117.99L59.50,117.62L59.55,117.61"/><path d="M59.50,117.62L59.43,117.73L59.21,118.01"/><path d="M60.64,121.46L60.64,124.58"/><path d="M61.58,118.37L61.89,117.99"/><path d="M61.77,118.13L61.77,124.47"/><path d="M62.30,117.62L62.30,117.66L62.48,117.71L62.86,117.77L63.35,117.81L63.60,117.81"/><path d="M62.17,117.62L62.30,117.66"/><path d="M63.28,123.32L63.28,118.02"/><path d="M63.84,125.79L63.84,122.67L63.79,122.67L63.74,122.65L63.74,123.62"/><path d="M63.60,118.32L63.60,123.37"/><path d="M63.74,122.65L63.75,122.64L63.83,122.57L64.25,122.33L64.97,122.12L65.28,122.05L65.28,118.33"/><path d="M64.52,125.86L64.52,122.74L63.84,122.67"/><path d="M64.78,125.86L64.78,122.74L64.65,122.75L64.52,122.74"/><path d="M64.78,122.74L65.21,122.71L66.57,122.57L67.72,122.40L67.72,125.52"/><path d="M65.21,125.83L65.21,122.71"/><path d="M65.28,122.05L65.62,121.98L67.99,122.34L67.99,119.34L65.62,118.98L65.64,118.95"/><path d="M65.62,121.98L65.62,118.98"/><path d="M65.82,118.59L68.21,118.95L68.31,118.94L68.52,118.94L69.58,119.03L69.64,119.04L69.68,119.05L69.68,119.07L69.66,119.08L69.48,119.14L71.67,119.48L71.71,119.91L71.71,122.91L69.33,122.55L69.11,122.65L68.97,122.76L68.98,122.79L69.04,122.82L69.16,122.84L69.31,122.85L70.94,122.95L70.94,126.07"/><path d="M67.72,122.40L67.99,122.34"/><path d="M68.98,125.88L68.97,125.88"/><path d="M68.21,118.95L68.14,119.06L68.14,125.43"/><path d="M68.61,125.42L68.61,118.94"/><path d="M68.97,125.45L68.97,122.76"/><path d="M67.99,119.34L68.14,119.06"/><path d="M69.31,125.97L69.31,122.85"/><path d="M69.33,122.55L69.33,119.55L71.71,119.91L72.09,119.83L72.47,119.73L72.47,125.85"/><path d="M69.50,119.14L69.50,119.02"/><path d="M69.48,119.14L69.33,119.55"/><path d="M71.61,126.05L71.61,122.93L71.47,122.95L71.30,122.96L71.12,122.96L70.94,122.95"/><path d="M71.71,122.91L71.61,122.93"/><path d="M71.67,119.48L72.14,119.35L72.42,119.26L72.53,119.23L72.69,119.21L72.88,119.20L73.09,119.19L74.26,119.24L74.16,119.64L74.16,122.23L74.21,122.24L74.21,122.64L74.48,122.88L74.54,122.90L74.64,122.92L74.78,122.93L74.94,122.94L74.94,120.35L74.79,120.34L74.64,120.33L74.53,120.31L74.48,120.29L74.48,122.88"/><path d="M72.14,119.35L72.47,119.73L72.75,119.63L72.81,119.62L72.98,119.60L73.19,119.60L74.16,119.64L74.33,119.66L74.40,119.68L74.62,119.47L74.54,119.65L74.82,119.92L74.85,119.93L74.89,119.94L75.01,119.95L74.94,120.35L75.54,120.37L75.54,122.96L75.87,122.95L76.01,122.94L76.13,122.92L76.13,120.33L76.03,120.35L75.87,120.36L75.54,120.37L75.61,119.96L75.01,119.95"/><path d="M73.19,125.72L73.19,119.60L73.30,119.20"/><path d="M72.75,125.75L72.75,119.63L72.42,119.26"/><path d="M74.21,118.97L72.50,118.88"/><path d="M74.21,122.24L74.21,120.05L74.27,119.81L74.40,119.68"/><path d="M74.21,120.05L74.48,120.29L74.83,119.92"/><path d="M75.54,122.96L74.94,122.94"/><path d="M74.26,119.24L74.50,119.26"/><path d="M74.62,119.47L74.67,119.42"/><path d="M76.13,122.92L77.00,122.72L77.57,122.49L77.71,122.39L77.71,119.80L77.57,119.90L77.57,122.49"/><path d="M75.61,119.96L75.74,119.96L75.84,119.95L76.13,120.33L77.00,120.13L77.57,119.90L77.22,119.54L77.36,119.44L77.43,119.41L77.56,119.38L77.73,119.36L77.93,119.35L79.13,119.36L79.34,119.37L79.52,119.39L79.67,119.41L79.76,119.44L79.80,119.47L79.44,119.82L79.45,119.93L79.45,126.05"/><path d="M75.84,119.95L76.81,119.71L77.22,119.54"/><path d="M77.36,119.44L77.71,119.80L77.75,119.78L77.81,119.77L77.89,119.76L78.10,119.76L78.10,122.35L77.89,122.35L77.81,122.36L77.75,122.37L77.71,122.39"/><path d="M79.70,119.12L77.37,119.08"/><path d="M79.11,125.89L79.11,119.77L78.10,119.76L78.14,119.35"/><path d="M79.13,119.36L79.11,119.77L79.21,119.77L79.37,119.79L79.42,119.81L79.44,119.82L79.44,125.94"/><path d="M79.80,119.47L79.81,119.57L79.45,119.93L79.73,120.16L80.34,120.39L80.34,126.51"/><path d="M79.81,119.57L79.99,119.75L80.66,120.01L80.34,120.39L80.42,120.41L80.56,120.43L80.73,120.44L81.49,120.44L81.49,126.56"/><path d="M80.87,126.56L80.87,120.03L80.75,120.03L80.66,120.01"/><path d="M82.02,126.51L82.02,120.39L81.94,120.40L81.81,120.42L81.64,120.43L81.49,120.44L81.48,120.03L80.87,120.03"/><path d="M84.69,126.01L84.69,119.89L84.53,119.78L84.87,119.42L84.80,119.39L84.66,119.37L84.49,119.35L84.29,119.34L83.09,119.36L82.88,119.36L82.70,119.38L82.56,119.40L82.47,119.43L82.44,119.46L82.46,119.57L82.31,119.75L81.69,120.01L81.61,120.03L81.48,120.03"/><path d="M81.69,120.01L82.02,120.39L82.58,120.16L82.81,119.92L82.46,119.57"/><path d="M82.52,119.17L82.52,119.33L82.47,119.23"/><path d="M82.52,119.33L85.24,119.25"/><path d="M83.09,119.36L83.12,119.76L82.93,119.77L82.86,119.78L82.82,119.80L82.80,119.81L82.44,119.46"/><path d="M83.12,125.88L83.12,119.76L84.13,119.74L84.13,125.86"/><path d="M82.81,125.92L82.81,119.92L82.80,119.81"/><path d="M84.08,119.34L84.13,119.74L84.33,119.75L84.42,119.76L84.49,119.77L84.53,119.78L84.53,125.90"/><path d="M85.26,120.10L84.69,119.89L85.03,119.52L84.87,119.42"/><path d="M85.26,119.61L85.03,119.52"/></g><g style="stroke:#000000;stroke-width:0.529"><path d="M85.29,126.23L84.69,126.01L84.53,125.90L84.49,125.89L84.42,125.88L84.23,125.86L84.13,125.86L83.02,125.88L82.86,125.90L82.81,125.92L82.81,126.04L82.58,126.28L82.02,126.51L81.93,126.53L81.81,126.54L81.66,126.55L81.49,126.56L80.71,126.56L80.56,126.55L80.43,126.53L80.34,126.51L79.73,126.28L79.45,126.05L79.44,125.94L79.42,125.93L79.37,125.91L79.30,125.90L79.11,125.89L73.20,125.72L72.98,125.72L72.81,125.74L72.75,125.75L72.47,125.85L72.09,125.95L71.61,126.05L71.47,126.06L71.30,126.08L71.12,126.08L70.94,126.07L69.31,125.97L69.16,125.96L69.04,125.93L68.98,125.91L68.97,125.88L68.97,125.45L68.52,125.41L68.41,125.41L68.21,125.42L67.72,125.52L66.57,125.69L65.21,125.83L64.78,125.86L64.65,125.87L64.52,125.86L63.84,125.79L63.79,125.78L63.74,125.77L63.74,123.62L63.60,123.62L63.60,123.37L63.28,123.32L62.95,123.28L62.56,123.27L62.15,123.27L62.00,123.28L62.00,124.45L61.77,124.47L60.64,124.58L59.13,124.68L57.52,124.73L57.03,124.74L56.84,124.73L56.32,124.61L56.31,124.60L56.31,123.97L55.39,123.97L55.21,123.97L55.06,123.96L54.93,123.94L54.84,123.92L54.43,123.76L54.40,123.74L54.40,122.39L54.06,122.38L52.54,122.28L52.41,122.27L52.31,122.25L52.25,122.23L52.23,122.20L52.23,116.08L52.26,115.99L52.49,115.77"/></g></g><g id="Actor_.8"><g style="stroke:#000000;stroke-width:0.176"><path d="M48.78,122.12L48.78,91.87L48.19,91.59L47.92,91.27L47.89,91.22L47.62,90.17"/><path d="M47.62,83.24L47.89,82.60L48.19,82.45L48.55,82.43L48.78,82.46L48.78,82.03"/><path d="M48.78,91.87L49.47,91.87L50.33,91.41L51.02,90.50L51.46,89.22L51.62,87.72L51.46,86.17L51.02,84.71L50.33,83.53L49.47,82.74L48.78,82.46"/><path d="M59.88,108.77L61.18,109.11L61.18,110.98L67.45,111.11L70.44,111.24L73.11,111.47L75.27,111.79L75.27,105.91L64.84,103.86L59.88,102.88L59.88,108.77L49.92,106.81L49.84,122.33"/><path d="M53.16,81.56L53.22,81.57"/><path d="M57.21,82.35L86.37,88.09L87.70,88.28L89.37,88.40L90.98,88.43L93.05,88.39L94.70,88.27L94.70,129.70L96.31,129.52"/><path d="M59.88,102.88L61.39,103.28L62.15,103.72L62.10,104.17L61.18,105.09L67.45,105.23L70.44,105.35L73.11,105.58L75.27,105.91"/><path d="M61.18,109.11L61.18,105.09"/><path d="M67.22,82.85L67.22,54.60L68.36,54.82L68.36,83.07L67.22,82.85L66.53,82.66L66.28,82.44L66.28,78.01L65.29,77.82"/><path d="M65.29,49.57L71.91,50.87L71.91,53.23L69.64,53.47L69.48,53.27L68.97,52.95L68.44,52.92L67.96,53.18L67.56,53.72L67.16,53.78L66.50,53.98L66.28,54.19L66.53,54.41L67.22,54.60"/><path d="M66.28,78.01L66.28,54.19"/><path d="M67.45,111.11L67.45,105.23"/><path d="M67.56,53.72L68.20,53.63L69.64,53.47"/><path d="M68.36,83.07L69.42,83.22L70.75,83.32L72.23,83.35L73.69,83.32L75.01,83.21L75.01,54.97L80.01,54.43L81.26,54.33L82.65,54.29L84.05,54.31L85.36,54.39L92.82,55.07L92.82,83.32L85.36,82.64L84.05,82.56L82.65,82.54L81.26,82.58L80.01,82.67L75.01,83.21"/><path d="M68.36,54.82L69.42,54.98L70.75,55.07L72.30,55.10L73.69,55.07L75.01,54.97"/><path d="M69.02,54.36L68.79,54.30L68.66,54.19L68.77,54.08L69.02,54.01L69.62,53.91L74.40,53.39L74.40,54.60L73.59,54.69L72.94,54.74L72.20,54.76L71.46,54.74L70.80,54.69L70.27,54.62L69.02,54.36"/><path d="M69.63,54.49L69.62,53.91"/><path d="M71.91,53.23L73.20,53.09L74.20,52.94L74.86,52.76L74.96,52.68L74.96,52.35L72.69,51.11L72.69,53.14"/><path d="M71.91,50.87L72.38,50.99L72.69,51.11"/><path d="M73.02,84.76L73.68,84.99L75.75,85.34L78.48,85.56L81.57,85.65L84.68,85.58L87.48,85.38L89.66,85.04L90.98,84.63L91.31,84.17L90.61,83.72L88.89,83.33L86.52,83.04L83.57,82.89L80.43,82.87L77.43,83.01L74.91,83.29L73.13,83.67L72.29,84.11L72.48,84.57L73.02,84.76"/><path d="M75.27,111.79L76.24,111.99"/><path d="M74.40,54.60L78.37,54.17L74.40,53.39"/><path d="M74.96,52.35L75.12,52.55L74.96,52.68"/><path d="M74.64,50.83L75.60,51.35L75.60,50.73L74.64,50.83"/><path d="M76.34,53.12L76.12,53.14L78.98,53.71L78.98,52.83L76.34,53.12"/><path d="M75.60,50.73L78.04,51.20L75.78,51.45L75.60,51.35"/><path d="M79.46,52.34L76.64,51.79L79.46,51.48L79.46,52.34L79.48,52.35L82.29,52.04L79.46,51.48"/><path d="M77.51,50.52L81.33,50.10L81.33,50.85L79.95,51.00L77.51,50.52"/><path d="M78.98,53.71L80.47,54.00L83.33,53.69L78.98,52.83"/><path d="M80.01,82.67L80.01,54.43"/><path d="M83.71,52.32L80.89,52.63L83.71,53.18L83.71,52.32L88.06,53.18L85.25,53.48L83.71,53.18"/><path d="M81.57,51.25L81.37,51.28L84.20,51.83L85.19,51.73L85.19,50.86L81.57,51.25"/><path d="M81.33,50.85L83.77,50.58L81.33,50.10"/><path d="M85.36,82.64L85.36,54.39"/><path d="M85.19,51.73L88.02,51.42L85.19,50.86"/><path d="M85.75,52.14L85.62,52.11L89.44,51.70L93.79,52.56L89.97,52.97L85.75,52.14"/><path d="M86.37,88.09L86.37,129.52"/><path d="M86.66,53.76L89.48,54.32L89.48,53.46L86.66,53.76"/><path d="M89.48,53.46L92.32,54.01L89.50,54.33L89.48,54.32"/><path d="M89.44,52.86L89.44,51.70"/><path d="M94.70,129.70L93.05,129.82L91.57,129.86"/><path d="M91.48,54.54L95.21,54.88L96.17,54.77L93.74,54.29L91.48,54.54"/><path d="M95.21,53.70L94.23,53.81L91.39,53.25L95.21,52.83L95.21,53.70L98.05,53.39L95.21,52.83"/><path d="M92.82,83.32L93.53,83.40L94.13,83.49L94.13,55.25L100.76,56.55L111.26,55.41"/><path d="M92.82,55.07L93.53,55.15L94.13,55.25"/><path d="M93.74,54.74L93.74,54.29"/><path d="M94.70,88.27L111.51,86.44L111.51,127.87"/><path d="M94.13,83.49L100.76,84.80L107.06,84.11L111.26,84.94"/><path d="M96.21,77.69L95.95,77.24L95.70,76.42L95.61,75.54L95.70,74.70L95.95,73.98L96.34,73.47L96.82,73.21L97.34,73.25L97.85,73.56L98.29,74.12L98.61,74.87L98.78,75.73L98.80,76.17L98.78,76.60L98.61,77.40L98.29,78.02L97.85,78.41L97.34,78.52L96.82,78.35L96.34,77.90L96.21,77.69"/><path d="M96.21,62.98L95.95,62.53L95.70,61.71L95.61,60.83L95.70,59.99L95.95,59.27L96.34,58.76L96.81,58.51L97.34,58.53L97.85,58.85L98.29,59.41L98.61,60.16L98.78,61.02L98.80,61.46L98.78,61.89L98.61,62.69L98.29,63.31L97.85,63.70L97.34,63.81L96.82,63.64L96.34,63.19L96.21,62.98"/><path d="M99.47,53.67L95.65,54.09L98.08,54.56L101.90,54.15L99.47,53.67L99.47,54.41"/><path d="M100.76,84.80L100.76,56.55"/><path d="M104.94,128.58L109.68,128.07"/><path d="M111.51,86.44L112.81,86.25L113.64,86.01L113.91,85.74"/></g><g style="stroke:#000000;stroke-width:0.529"><path d="M52.23,122.07L49.84,122.33L48.78,122.12L47.92,121.88L47.61,121.61L47.62,90.17L47.66,88.77L47.82,87.19L47.85,86.40L47.82,85.64L47.66,84.28L47.62,83.24L47.61,82.16"/><path d="M109.68,128.07L111.51,127.87L112.81,127.68L113.64,127.43L113.91,127.16L113.91,85.74L113.60,85.47L112.73,85.23L111.26,84.94L111.26,55.41L75.80,48.43L65.29,49.57L65.29,77.82L60.32,78.36"/><path d="M76.24,111.99L85.23,113.75L85.31,129.31L86.37,129.52L87.70,129.71L89.37,129.83L91.21,129.87L91.57,129.86"/><path d="M104.94,128.58L96.31,129.52"/></g></g><g id="Actor_.9"><g style="stroke:#000000;stroke-width:0.176"><path d="M62.91,124.43L62.91,124.43L62.95,124.56L63.74,125.11"/><path d="M63.74,123.93L63.71,123.91"/><path d="M62.95,123.39L63.18,123.55"/><path d="M65.79,125.77L66.43,125.94L70.01,126.47L74.46,126.83L75.29,126.87L75.41,126.89L75.52,126.93L75.53,126.93"/></g><g style="stroke:#000000;stroke-width:0.529"><path d="M63.00,123.29L62.95,123.39L62.91,124.43L62.91,124.45L62.91,124.45"/></g></g><g id="Actor_.10"><g style="stroke:#000000;stroke-width:0.176"><path d="M115.16,97.05L115.53,97.39L115.82,97.51L115.92,97.52L116.30,97.43L116.64,97.14L116.88,96.67L117.01,96.07L117.01,95.42L116.88,94.77L116.64,94.20L116.30,93.78L115.92,93.54L115.52,93.52L115.16,93.71L114.87,94.10"/><path d="M115.76,93.13L116.22,93.15L116.68,93.43L117.07,93.93L117.36,94.60L117.51,95.37L117.53,95.76L117.51,96.14L117.36,96.85L117.07,97.40L116.97,97.49L116.68,97.75L116.22,97.85"/><path d="M119.85,97.49L122.99,97.16L123.40,96.88L123.73,96.35L123.92,95.66L123.96,94.87L123.85,94.07L123.58,93.35L123.40,93.04L123.39,92.22L121.62,92.42L121.62,82.01L122.14,82.72L122.75,83.23L123.40,83.48L123.39,92.22"/><path d="M121.62,92.42L119.85,92.64"/><path d="M120.66,65.18L120.37,64.68L120.18,64.06L120.11,63.40L120.20,62.69L120.37,62.22L120.66,61.83L121.02,61.64L121.42,61.66L121.80,61.90L122.13,62.33L122.38,62.89L122.51,63.54L122.51,64.20L122.38,64.80L122.13,65.27L121.80,65.56L121.42,65.65L121.32,65.64L121.02,65.52L120.66,65.18L120.83,65.42L121.26,65.82L121.72,65.97L122.06,65.90L122.17,65.87L122.56,65.53L122.85,64.97L123.00,64.27L123.02,63.89L123.00,63.49L122.85,62.73L122.56,62.06L122.17,61.56L121.72,61.28L121.26,61.26L120.83,61.48L120.48,61.94L120.37,62.22"/><path d="M121.31,61.26L127.77,60.54L128.00,60.56L128.24,60.64L128.68,60.97L128.82,61.18L128.35,61.80L128.15,62.27L129.29,60.76L130.70,60.01L132.23,60.11L133.73,61.03L135.02,62.69L135.97,64.88L136.47,67.40L136.47,69.96L135.97,72.28L135.02,74.11L133.73,75.25L132.23,75.59L131.85,75.54L130.70,75.07L129.29,73.77L129.60,74.20L129.60,84.15L132.57,76.85L132.29,76.33L133.26,77.07L135.22,77.46L137.07,76.76L138.62,75.07L139.69,72.56L140.17,69.50L140.18,69.37L139.98,69.19L139.52,68.45L139.33,67.83L139.26,67.17L139.33,66.53L139.52,65.99L139.81,65.60L140.17,65.41L140.57,65.43L140.95,65.67L141.29,66.09L141.53,66.66L141.66,67.31L141.66,67.97L141.53,68.57L141.29,69.04L140.95,69.33L140.57,69.42L140.47,69.40L140.18,69.29L139.82,68.96"/><path d="M122.28,80.45L122.38,80.69L122.79,81.22L123.27,81.51L123.76,81.54L124.21,81.30L124.57,80.82L124.70,80.45L124.49,80.72L124.15,80.90L123.78,80.88L123.40,80.64L123.10,80.25L122.87,79.72L122.75,79.11L122.75,78.49L122.87,77.93L123.10,77.48L123.40,77.22L123.78,77.12L124.15,77.25L124.38,77.47L124.21,77.16L123.76,76.75L123.40,76.60L123.27,76.58L122.79,76.69L122.38,77.05L122.08,77.64L121.92,78.37L121.92,79.19L122.08,79.99L122.28,80.45"/><path d="M123.39,74.59L123.40,68.77L122.75,68.51L122.14,68.01L121.62,67.30L121.62,75.43L122.15,74.93L122.76,74.66L123.39,74.59L123.40,74.66L122.76,74.66"/><path d="M121.72,65.97L122.36,65.91L122.79,66.50L123.27,66.80L123.76,66.83L124.21,66.59L124.57,66.11L124.73,65.64L127.32,65.36L127.42,64.38L128.15,62.27"/><path d="M121.62,53.02L121.62,60.72L122.15,60.21L122.76,59.95L123.40,59.94L123.39,59.88L122.76,59.95"/><path d="M121.99,53.09L122.14,53.30L122.75,53.80L123.40,54.06L123.39,59.88"/><path d="M122.36,65.91L123.30,65.80L123.41,65.94L123.78,66.16L124.15,66.19L124.49,66.01L124.70,65.72"/><path d="M123.30,65.80L124.73,65.64"/><path d="M124.38,77.47L124.57,77.78L124.80,78.55L124.88,79.36L124.80,80.15L124.70,80.45"/><path d="M143.46,129.52L143.46,102.44L124.62,98.73"/><path d="M125.49,96.55L127.26,96.34L127.26,96.90L125.49,96.55L125.49,96.12L125.49,82.19L125.90,81.02L126.05,79.59L125.90,78.11L125.49,76.78L125.49,67.48L125.77,66.82L125.96,66.04L127.22,66.29L127.17,66.87L127.21,67.32L125.49,67.49"/><path d="M125.49,76.76L127.26,76.56L127.26,82.02L125.49,82.21"/><path d="M127.26,96.34L127.26,82.02"/><path d="M127.26,76.56L127.27,67.91L127.42,69.42L128.15,71.82L129.29,73.77"/><path d="M127.27,67.91L127.21,67.32"/><path d="M127.22,66.29L127.32,65.36"/><path d="M129.60,96.18L136.69,95.35L136.65,89.31L136.68,89.00L136.75,88.71L139.97,80.64L141.13,80.53L141.01,80.41L140.80,80.32L140.54,80.34L138.60,80.78L136.56,80.38L134.93,79.37L133.76,79.48L129.71,89.44L129.63,89.73L129.60,90.04L129.60,96.18L129.63,96.55L129.74,96.90L129.89,97.19L130.09,97.40L130.31,97.50L144.90,100.35L144.83,100.57L144.76,101.20L144.83,101.86L145.02,102.48L145.31,102.98L145.67,103.32L146.07,103.45L146.45,103.36L146.78,103.07L147.03,102.60L147.15,102.00L147.15,101.35L147.03,100.70L146.78,100.13L146.45,99.71L146.07,99.47L145.97,99.44L145.67,99.45L145.31,99.64L145.02,100.03L144.90,100.35"/><path d="M129.60,90.04L136.65,89.31"/><path d="M129.60,74.20L131.09,75.58L132.74,76.13L132.82,76.12L134.35,75.77L135.74,74.54L136.76,72.57L137.29,70.07L137.36,68.71L137.29,67.32L136.76,64.61L135.74,62.24L134.35,60.46L132.74,59.47L131.09,59.38L133.82,59.10L135.47,59.65L137.00,61.07L138.21,63.16L139.01,65.82L139.27,68.50L139.00,71.16L138.21,73.43L136.99,75.05L135.47,75.86L132.82,76.12"/><path d="M129.68,69.85L134.33,69.33L134.33,68.28L129.37,68.81L129.40,69.19L129.51,69.54L129.68,69.85L130.88,71.49L131.08,71.68L131.29,71.78L132.41,72.00L132.65,71.97L132.41,72.00"/><path d="M129.37,68.81L129.37,67.28L134.15,66.76L133.86,65.75L133.31,64.73L132.62,64.00L131.85,63.65L131.08,63.70L130.39,64.15L129.84,64.95L129.49,66.03L129.37,67.28"/><path d="M128.82,61.18L129.57,60.18L131.09,59.38"/><path d="M129.60,60.17L129.60,57.21"/><path d="M130.31,97.50L137.41,96.66L145.56,98.27L145.56,99.24L145.91,99.06L146.26,99.05L146.37,99.08L146.82,99.36L147.22,99.86L147.50,100.53L147.65,101.30L147.65,102.07L147.50,102.78L147.22,103.33L146.82,103.68L146.37,103.78L145.91,103.63L145.48,103.23L145.31,102.98"/><path d="M129.71,89.44L136.75,88.71"/><path d="M132.44,57.77L132.30,57.78L130.58,58.99L129.96,59.97"/><path d="M130.58,58.99L131.21,57.53"/><path d="M131.47,75.70L132.29,76.33"/><path d="M130.88,71.49L133.50,71.20L133.11,71.58L131.29,71.78"/><path d="M132.65,71.97L132.81,71.87L133.11,71.58"/><path d="M133.76,79.48L133.92,79.22L134.13,79.07L134.36,79.05L134.59,79.15L134.93,79.37"/><path d="M133.50,71.20L134.03,70.70L134.19,70.47L134.29,70.15L134.33,69.79L134.33,69.33"/><path d="M133.15,50.03L133.15,49.45"/><path d="M134.15,66.76L134.21,66.96L134.33,68.28"/><path d="M135.22,77.46L138.56,77.09L140.42,76.40L141.96,74.71L143.04,72.19L143.47,69.45L140.87,69.74L141.33,69.64L141.72,69.29L142.00,68.74L142.16,68.04L142.17,67.65L142.16,67.26L142.00,66.50L141.72,65.83L141.33,65.33L140.87,65.05L140.41,65.02L139.98,65.25L139.64,65.71L139.52,65.99"/><path d="M135.84,58.38L136.17,58.54L137.90,60.43L139.22,63.09L139.82,65.46"/><path d="M134.92,49.84L134.92,49.80"/><path d="M137.41,96.66L137.19,96.56L137.00,96.36L136.83,96.07L136.73,95.72L136.69,95.35"/><path d="M138.60,80.78L139.97,80.64"/><path d="M140.52,65.03L143.08,64.74L142.57,62.72L141.24,60.07L139.57,58.24"/><path d="M141.13,80.53L141.22,80.63L141.40,80.99L145.45,92.54L145.53,92.85L145.56,93.18L145.56,98.27"/><path d="M140.80,80.32L140.54,80.34"/><path d="M140.18,69.37L140.41,69.59L140.87,69.74"/><path d="M140.41,65.02L142.23,64.85L141.18,64.96"/><path d="M142.75,129.09L142.75,102.30"/><path d="M145.56,78.51L145.56,87.29L142.59,78.82L143.94,76.88L144.96,74.38L145.56,71.53L145.56,78.51L142.59,78.82"/><path d="M143.79,57.79L143.79,59.59L144.90,62.61L145.28,64.50L143.08,64.74"/><path d="M143.46,102.44L144.41,102.62L144.41,129.41"/><path d="M143.47,69.45L147.62,69.00L148.03,68.71L148.34,68.20L148.53,67.53L148.56,66.67L148.46,65.99L148.20,65.29L147.83,64.74L147.39,64.40L147.16,64.32L146.92,64.31L145.28,64.50"/><path d="M143.79,59.59L145.56,59.39L145.58,64.46"/><path d="M144.41,102.62L145.19,102.78"/><path d="M145.56,99.24L145.48,99.28L145.13,99.74L145.02,100.03"/><path d="M144.66,40.37L144.65,40.55"/><path d="M144.75,39.01L144.78,39.00"/><path d="M144.67,39.12L144.84,39.23L145.26,39.33L145.86,39.40L146.60,39.44L147.38,39.44L148.13,39.41L148.76,39.34L149.20,39.25L149.41,39.14"/><path d="M145.10,38.67L145.03,38.76L145.18,38.86L145.53,38.94L146.04,39.00L147.33,39.04L147.97,39.01L148.50,38.95L148.88,38.87L149.05,38.78L149.01,38.68"/><path d="M146.41,103.78L148.96,103.52L149.27,103.58L149.27,130.66"/><path d="M145.91,99.06L147.90,98.82L147.90,70.36L149.20,70.61L149.39,71.46L149.67,72.25L149.67,98.60L151.77,98.35L151.77,74.35L152.40,74.35L153.54,74.24L153.54,73.58L153.01,74.08L152.40,74.35"/><path d="M145.56,57.59L145.56,59.39"/><path d="M147.90,98.82L149.67,98.60"/><path d="M148.56,130.23L148.56,103.56"/><path d="M149.27,103.58L150.23,103.77L150.23,130.56"/><path d="M148.96,103.52L153.13,103.10L153.55,102.81L153.88,102.28L154.07,101.59L154.11,100.80L153.99,100.00L153.73,99.28L153.54,98.96L153.54,98.14L151.77,98.35"/><path d="M149.42,39.86L149.42,40.59"/><path d="M149.37,39.02L149.34,39.01"/><path d="M150.23,103.77L155.31,104.77L155.31,56.53"/><path d="M150.54,71.04L150.46,70.86L150.30,70.06L150.30,69.24L150.46,68.51L150.76,67.92L151.17,67.56L151.64,67.45L151.77,67.47L152.13,67.61L152.58,68.03L152.76,68.33L152.52,68.12L152.15,67.99L151.79,68.07L151.48,68.35L151.25,68.79L151.12,69.36L151.12,69.98L151.25,70.59L151.48,71.12L151.79,71.52L152.15,71.75L152.52,71.77L152.86,71.59L153.08,71.31L152.94,71.69L152.58,72.17L152.13,72.41L151.64,72.38L151.18,72.09L150.76,71.56L150.54,71.04"/><path d="M150.89,57.02L151.17,57.37L151.64,57.67L152.13,57.70L152.58,57.46L152.94,56.98L153.01,56.78"/><path d="M153.54,65.32L153.54,67.00L153.01,66.29L152.68,66.01L152.40,65.78L151.77,65.53L151.77,59.64L152.40,59.64L152.71,59.50L153.01,59.37L153.54,58.87L153.54,65.32L151.77,65.53"/><path d="M152.40,59.64L153.54,59.53"/><path d="M152.92,56.79L152.86,56.87L152.52,57.06L152.15,57.03L151.93,56.90"/><path d="M153.54,98.14L153.54,74.24"/><path d="M153.08,71.31L153.18,71.02L153.26,70.23L153.18,69.41L152.94,68.65L152.76,68.33"/><path d="M155.31,104.77L160.09,104.25L160.09,132.50"/><path d="M195.28,51.00L185.92,52.02L185.92,48.02"/><path d="M185.92,51.51L186.87,51.41L186.87,50.88L185.92,50.98"/><path d="M185.92,50.62L188.44,50.57"/><path d="M186.87,51.41L192.33,50.81"/><path d="M186.87,50.88L190.19,50.74L190.63,50.71"/><path d="M190.69,123.25L190.71,120.94L209.22,118.93L209.27,125.99L209.32,126.35L209.45,126.66L209.67,126.90L209.93,127.03"/><path d="M190.70,122.34L209.27,125.99"/><path d="M203.57,49.59L204.93,49.45L204.93,49.95L199.26,50.57"/><path d="M204.93,49.45L204.93,48.92L204.83,48.93"/><path d="M204.93,48.92L204.93,47.88L204.83,47.89"/><path d="M204.83,48.42L204.93,48.41"/><path d="M204.93,47.88L204.93,47.84L204.83,47.80"/><path d="M204.93,47.84L204.93,45.97"/><path d="M203.97,43.02L204.00,42.89L204.17,42.55L204.30,42.53"/><path d="M204.17,42.57L204.17,42.55"/><path d="M210.50,35.54L213.58,36.14L214.85,36.00L214.85,35.66"/><path d="M212.94,36.02L212.94,35.56"/><path d="M214.85,36.00L216.65,35.81"/><path d="M224.18,38.97L224.18,37.52L223.97,37.63L223.53,37.73L222.90,37.79L222.15,37.83L221.37,37.83L220.63,37.79L220.02,37.72L219.61,37.62L219.43,37.51L219.42,38.94"/><path d="M219.43,37.51L219.55,37.38"/><path d="M219.52,37.39L219.86,37.05L219.79,37.15L219.94,37.24L220.19,37.31L220.81,37.39L221.43,37.42L222.10,37.42L222.75,37.39L223.27,37.34L223.65,37.26L223.82,37.16L223.80,37.08L223.53,36.97L223.09,36.90L222.51,36.85L221.86,36.83L220.66,36.89L220.15,36.96L219.86,37.05"/><path d="M223.80,37.08L224.13,37.41L224.11,37.40"/><path d="M224.13,37.41L224.18,37.52"/><path d="M249.87,41.08L249.87,122.76"/></g><g style="stroke:#000000;stroke-width:0.529"><path d="M119.85,50.94L119.85,92.64L115.76,93.13L115.33,93.35L114.99,93.81L114.68,94.64L114.62,95.27L114.68,95.93L114.87,96.55L115.33,97.30L115.76,97.70L116.22,97.85L119.85,97.49L119.85,97.79L124.62,98.73L124.62,125.52L142.75,129.09L142.75,129.38L143.46,129.52L144.41,129.41L148.56,130.23L148.56,130.52L148.94,130.60L149.27,130.66L150.23,130.56L160.09,132.50L189.71,129.28L190.00,129.20L190.26,129.00L190.47,128.72L190.61,128.38L190.66,128.01L190.69,123.25L209.93,127.03L210.22,127.06L249.87,122.76L250.30,122.67L250.35,122.62L250.35,41.03"/><path d="M149.42,39.86L149.41,39.14L149.37,39.02L149.01,38.68L148.76,38.59L148.32,38.52L147.74,38.47L147.09,38.45L146.43,38.47L145.84,38.51L145.38,38.58L145.10,38.67L144.75,39.01L144.67,39.12L144.66,40.37"/></g></g><g id="Actor_.11"><g style="stroke:#000000;stroke-width:0.176"><path d="M160.21,17.30L161.37,15.10L164.06,12.44L167.37,10.81L170.93,10.40L174.37,11.26L175.02,11.71L174.46,11.57L170.89,11.97L167.58,13.60L164.89,16.26L163.10,19.68L162.48,23.10"/><path d="M164.19,23.33L164.17,23.43L164.57,26.59L165.92,29.37L168.06,31.49L170.77,32.71L171.87,32.78L171.09,32.34L169.35,30.55L168.16,28.29L167.59,25.74L167.70,23.08L168.47,20.51L169.85,18.23L171.73,16.40L173.97,15.15L176.41,14.58L177.88,14.68L177.14,14.16L174.26,13.45L171.28,13.79L168.50,15.16L166.24,17.39L164.75,20.25L164.19,23.33"/><path d="M166.22,37.10L166.28,37.04L166.22,37.10"/><path d="M166.17,36.08L166.24,36.25L166.75,36.44L167.23,36.54L167.00,36.80L167.06,37.30L167.76,37.78L169.08,38.24L170.97,38.65L173.36,39.01L174.47,39.12L176.31,39.73L178.49,39.86L178.64,39.59L178.81,39.46L179.29,39.49L182.62,39.59L186.02,39.61L189.37,39.52L192.56,39.35L195.47,39.09L197.99,38.76L199.14,38.55L199.96,38.54L201.25,38.46L202.33,38.33L203.08,38.16L203.42,37.96L203.42,39.20"/><path d="M165.96,32.01L167.06,33.10L167.86,33.46L166.76,33.39L166.01,33.05"/><path d="M166.34,39.41L167.09,39.94L167.41,40.10L168.75,40.56L168.82,40.58L168.82,43.74"/><path d="M167.23,36.54L166.97,36.53L166.75,36.60L166.68,36.65L166.28,37.04L166.60,36.72L166.68,36.65"/><path d="M166.41,34.75L170.38,35.00L174.28,33.84L177.69,31.41L180.23,27.96L181.64,23.87L181.76,19.58L180.57,15.55L178.20,12.23L174.92,9.97L171.08,9.01L170.92,9.03"/><path d="M170.33,35.95L168.14,35.81L168.13,36.18L168.16,36.53L168.23,36.83L168.34,37.04L168.48,37.14L170.66,37.28L170.52,37.18L170.41,36.97L170.34,36.67L170.31,36.32L170.33,35.95L170.39,35.37L168.20,35.23L168.19,35.34"/><path d="M168.13,36.03L168.04,36.08L168.12,36.20L168.13,36.20"/><path d="M168.17,35.57L168.14,35.81"/><path d="M167.86,33.46L170.31,33.61L172.91,32.85L171.87,32.78"/><path d="M175.34,44.51L175.45,41.58L173.13,41.34L170.68,40.98L168.82,40.58"/><path d="M174.47,39.12L168.48,37.14"/><path d="M172.91,32.85L173.58,32.65L171.93,31.73L170.36,30.09L169.27,28.04L168.76,25.72L168.86,23.30L169.55,20.97L169.60,20.90L170.81,18.89L172.52,17.23L174.56,16.09L176.78,15.58L179.01,15.72L179.05,15.73L177.30,13.27L175.02,11.71"/><path d="M170.39,35.37L173.35,36.35L174.25,36.21L173.45,36.35L173.35,36.35"/><path d="M170.20,28.21L169.67,26.95L169.42,24.56L169.84,22.16L170.89,19.96L172.49,18.15L174.48,16.91L176.70,16.33L178.94,16.47L179.55,16.72L179.86,17.78L179.07,17.45L177.07,17.32L175.09,17.84L173.31,18.95L171.89,20.56L170.96,22.52L170.58,24.66L170.59,24.71L170.81,26.79L171.62,28.72L172.93,30.27L174.63,31.32L175.33,31.48L174.41,32.14L173.96,32.04L172.05,30.86L170.58,29.11L170.20,28.21"/><path d="M170.66,37.28L178.49,39.86"/><path d="M171.08,9.01L173.08,9.44L173.14,8.85L170.95,8.72"/><path d="M173.58,32.65L173.79,32.58L174.41,32.14"/><path d="M173.08,9.44L174.92,9.97L178.50,11.12L180.91,12.49L182.93,14.44L184.46,16.86L185.42,19.62L185.75,22.57L185.44,25.57L184.50,28.44L182.99,31.04L180.98,33.24L178.58,34.91L175.92,35.96L174.25,36.21"/><path d="M173.14,8.85L173.20,8.50L173.30,8.19L173.43,7.96L173.57,7.84L173.72,7.83"/><path d="M174.23,36.22L176.06,35.95L177.13,36.31L177.23,36.31L179.65,35.88L177.13,36.31"/><path d="M179.86,17.78L180.11,18.62L179.18,18.73L177.15,19.72L175.49,21.36L174.39,23.47L173.96,25.80L174.26,28.12L175.25,30.17L176.06,30.97L175.33,31.48"/><path d="M175.45,41.58L175.99,41.63L176.62,41.68"/><path d="M178.79,44.71L178.79,41.82L176.61,41.68L176.61,44.62"/><path d="M176.06,35.95L178.70,34.90L181.09,33.24L183.09,31.06L184.59,28.46L185.52,25.60L185.83,22.62L185.50,19.68L184.55,16.93L183.03,14.53L182.26,13.79L184.25,15.03L186.12,17.04L187.44,19.52L188.14,22.29L188.18,25.21L187.54,28.08L186.28,30.73L186.15,30.89L184.46,33.00L182.20,34.76L179.65,35.88"/><path d="M176.06,30.97L176.84,30.41L179.11,27.33L180.37,23.67L180.45,20.41L179.56,20.51L178.05,21.26L176.82,22.47L176.01,24.03L175.69,25.76L175.91,27.48L176.65,28.99L177.36,29.70"/><path d="M179.12,41.83L179.29,41.84L178.79,41.82"/><path d="M178.81,39.46L182.25,38.30L182.30,34.76L179.77,35.87L178.83,36.03"/><path d="M178.69,15.23L177.88,14.68"/><path d="M182.16,44.83L182.20,41.93L179.29,41.84"/><path d="M180.37,23.50L179.58,23.71L179.34,23.92L179.31,24.06L179.24,25.10L179.20,26.41L179.17,27.15"/><path d="M179.34,23.92L179.38,23.73L179.52,23.38L179.73,23.04L180.16,22.56L180.40,22.39"/><path d="M179.55,16.72L179.41,16.24L179.05,15.73"/><path d="M180.45,20.41L180.47,19.84L180.11,18.62"/><path d="M180.96,12.54L182.26,13.79"/><path d="M182.20,41.93L182.61,41.95L186.02,41.96L189.37,41.88L190.55,41.81L190.66,44.72"/><path d="M182.25,38.30L185.05,38.35L187.97,38.27L190.56,38.05L192.54,37.73L193.72,37.33L193.97,36.90L193.90,34.76"/><path d="M182.99,34.24L183.01,34.23L183.00,34.23L182.30,34.76"/><path d="M183.00,34.23L184.57,33.01L186.38,30.75L187.63,28.11L188.26,25.25L188.23,22.35L187.72,20.31L188.35,21.23L189.12,23.65L189.21,26.25L188.59,28.79L187.33,31.08L185.52,32.92L183.33,34.15L183.01,34.23"/><path d="M182.96,34.26L183.46,34.15L185.64,32.92L186.08,32.47L186.96,31.99L187.88,31.27L188.85,30.26L189.53,29.24L190.01,28.10L190.20,26.86L190.08,25.64L189.70,24.43L189.13,23.31L190.38,23.18L191.97,22.93L193.02,22.62L193.47,22.28"/><path d="M184.25,15.03L184.36,15.12L186.22,17.13L187.53,19.59L187.59,19.80L187.68,19.84L188.00,20.14L188.02,20.42L187.94,20.57L188.44,21.31L189.02,23.12L189.13,23.31"/><path d="M185.92,50.31L186.20,50.31L191.59,50.14L195.69,49.85L195.69,51.03"/><path d="M194.28,50.94L185.92,50.41"/><path d="M204.83,45.99L203.35,46.77L202.88,46.88L200.49,47.46L196.47,48.01L191.59,48.38L186.20,48.54L185.92,48.54"/><path d="M189.02,23.12L189.21,23.71L189.29,26.29L188.68,28.82L187.43,31.10L186.08,32.47"/><path d="M187.94,20.57L187.69,20.21L187.72,20.31"/><path d="M188.04,20.73L188.85,20.64L190.00,20.46L190.77,20.23L191.09,19.99L190.95,19.74L190.35,19.50L189.34,19.30L188.34,19.18L188.67,19.21L188.63,19.20"/><path d="M187.59,19.80L187.69,20.21"/><path d="M187.47,19.47L188.34,19.18"/><path d="M188.68,19.21L188.67,19.21L189.86,19.34L190.99,19.56L191.65,19.82L192.29,20.12L192.79,20.60"/><path d="M190.55,41.81L192.58,41.70"/><path d="M197.21,44.27L197.21,41.23L195.69,41.43L192.56,41.71"/><path d="M193.90,34.77L196.21,35.00L198.61,35.36L200.50,35.77L201.82,36.23L202.52,36.71L202.58,37.21L202.34,37.47L202.82,37.57L203.34,37.76L203.42,37.96"/><path d="M203.42,46.12L203.42,46.56L203.08,46.75L202.33,46.92L201.25,47.05L199.96,47.13L198.56,47.14L197.21,47.09L195.47,46.98"/><path d="M196.61,37.77L196.43,37.87L196.51,38.00L196.85,38.11L197.42,38.20L198.16,38.26L198.99,38.28L199.82,38.25L200.56,38.20L201.13,38.10L201.47,37.99L201.53,37.87L201.32,37.75L200.86,37.65L200.19,37.57L199.39,37.53L198.55,37.53L197.75,37.57L197.09,37.65L196.63,37.75L196.61,37.77"/><path d="M197.21,47.09L197.21,46.79"/><path d="M199.14,38.55L199.56,38.59L199.96,38.70L200.33,38.88L200.65,39.14L200.80,39.37L200.85,39.52L200.87,39.71L200.82,39.92L200.71,40.14L200.53,40.36L200.28,40.56L199.96,40.73L199.56,40.86L198.26,41.09L197.21,41.23"/><path d="M203.53,39.10L203.52,39.11"/></g><g style="stroke:#000000;stroke-width:0.529"><path d="M159.72,15.50L160.37,14.27L163.38,11.29L167.09,9.47L170.92,9.03L170.95,8.72L171.02,8.36L171.11,8.05L171.24,7.82L171.39,7.70L171.53,7.69L173.72,7.83L189.47,13.02L190.87,14.13L191.99,16.37L192.72,19.51L192.79,20.60L192.99,20.93L193.33,21.57L193.47,22.28L193.90,34.76L196.44,35.02L198.88,35.38L200.81,35.80L202.15,36.26L202.48,36.41L203.21,36.92L203.47,37.17L203.64,37.50L203.70,37.87L203.77,38.40L203.71,38.77L203.53,39.10L203.42,39.20L203.42,43.16"/><path d="M168.17,35.57L167.25,35.68L166.50,35.85L166.16,36.04"/><path d="M166.09,34.60L166.41,34.75L168.19,35.34L168.17,35.57"/><path d="M204.83,45.97L204.83,48.94L203.35,49.71L200.49,50.40L196.47,50.95L195.69,51.03L194.28,50.94"/></g></g><g id="Actor_.12"><g style="stroke:#000000;stroke-width:0.176"><path d="M250.35,46.69L250.55,47.07L250.76,47.76L250.83,48.50L250.83,110.75L250.83,120.30L250.76,121.01L250.55,121.63L250.35,121.93"/><path d="M250.83,120.30L259.42,119.37"/><path d="M250.83,48.50L259.42,47.57"/><path d="M258.00,44.94L250.35,45.77"/><path d="M259.42,99.11L259.42,56.24L261.68,57.71L263.85,59.86L265.80,62.58L267.47,65.78L268.81,69.37L269.48,72.09L269.76,73.21L270.31,77.21L270.44,81.22L270.13,85.11L269.41,88.78L268.29,92.09L266.82,94.94L265.02,97.25L263.35,98.68"/><path d="M259.42,56.24L259.42,56.15"/><path d="M265.30,97.17L265.19,97.26"/></g><g style="stroke:#000000;stroke-width:0.529"><path d="M250.35,43.43L258.00,44.94L258.44,45.14L258.84,45.55L259.15,46.14L259.35,46.83L259.42,47.57L259.42,56.14L259.65,56.22L259.90,56.36L262.20,57.85L264.34,59.98L266.38,62.83L268.02,65.96L269.32,69.46L270.26,73.23L270.80,77.13L270.92,81.06L270.62,84.87L269.92,88.45L268.82,91.69L268.74,91.88L267.28,94.71L265.50,96.99L263.75,98.52L263.68,98.57L263.42,98.67L263.35,98.68L259.42,99.11L259.42,119.37L259.35,120.08L259.15,120.70L258.84,121.16L258.44,121.41L250.35,122.29"/></g></g><g><g/><g><path style="fill:#ffffa0" d="M75.92,183.49L200.30,183.49L200.30,159.15L75.92,159.15z"/><path style="stroke:#000000;stroke-width:0.250;stroke-opacity:0.98" d="M75.92,183.49L200.30,183.49L200.30,159.15L75.92,159.15z"/><text xml:space="preserve" fill="#000000" stroke-width="0" x="76.97" y="165.23" font-size="5.16" opacity="1.00" font-family="MS Shell Dlg">Prendere il nuovo frontalino e sostituire il vecchio, </text><text xml:space="preserve" fill="#000000" stroke-width="0" x="76.97" y="170.52" font-size="5.16" opacity="1.00" font-family="MS Shell Dlg">inserendo prima il tubo di ricircolo nella cartuccia </text><text xml:space="preserve" fill="#000000" stroke-width="0" x="76.97" y="175.82" font-size="5.18" opacity="1.00" font-family="MS Shell Dlg">JohnGuest (facendo attenzione ad infilarlo fino a fine </text><text xml:space="preserve" fill="#000000" stroke-width="0" x="76.97" y="181.11" font-size="5.13" opacity="1.00" font-family="MS Shell Dlg">corsa)</text></g></g><g/><g id="paperID" visibility="hidden" opacity="0.00" transform="scale(0.000100)"><path style="stroke:#000000;stroke-width:0.500;fill:#e6e6e6;fill-rule:evenodd" d="M-2000.00,-2000.00L2297.00,-2000.00L2297.00,2210.00L-2000.00,2210.00zM0.00,0.00L297.00,0.00L297.00,210.00L0.00,210.00z"/><path style="fill:#000000;fill-opacity:0.118" d="M3.00,210.00L297.00,210.00L297.00,3.00L300.00,3.00L300.00,213.00L3.00,213.00z"/></g><g id="ToolTip" visibility="hidden" opacity="0" transform="translate(0,0)"><rect id="ToolTipShadow" opacity="0.20" fill="black" stroke="none" x="0" y="0" width="30" height="8"/><rect id="ToolTipBG" fill="#ffffe1" stroke="black" x="0" y="0" width="30" height="8"/><text xml:space="preserve" id="ToolTipText" fill="black" x="0" y="0" width="30" height="8">tooltip</text></g></g></svg>