<?xml version="1.0" encoding="UTF-8" standalone="yes"?><svg xmlns="http://www.w3.org/2000/svg" xmlns:xlink="http://www.w3.org/1999/xlink" width="297.000mm" height="210.000mm" viewBox="0.000000 0.000000 297.000000 210.000000" stroke-linejoin="round" stroke-linecap="round" fill="none" fill-rule="evenodd"><desc>Composer Export</desc><script type="text/ecmascript"><![CDATA[
if(typeof(top) != "undefined")
{
	top.ShowPaper = ShowPaper;
}
function ShowHotSpot(evt,hotspotid)
{
	var svgDocument = evt.target.ownerDocument;
	var strId = "hotspot."+hotspotid;
	var hotspot = svgDocument.getElementById(strId);
	if(hotspot)
		hotspot.setAttribute("opacity",".5");
}
function HideHotSpot(evt,hotspotid)
{
	var svgDocument = evt.target.ownerDocument;
	var strId = "hotspot."+hotspotid;
	var hotspot = svgDocument.getElementById(strId);
	if(hotspot)
		hotspot.setAttribute("opacity","0");

	var toolTip = svgDocument.getElementById('ToolTip');
	if(toolTip)
		toolTip.setAttribute("visibility","hidden");
}
function ShowToolTip(evt,hotspotid,strTooltip)
{
	if(strTooltip=="")
	return;

	// change text
	var svgDocument = evt.target.ownerDocument;
	var tiptext = svgDocument.getElementById('ToolTipText');
	if( !tiptext )
	return;
	tiptext.firstChild.nodeValue = " " + strTooltip + "  " ;

	// show tooltip before, else some refresh issue

	var toolTip = svgDocument.getElementById('ToolTip');
	if(!toolTip)
	return;

	toolTip.setAttribute("visibility","visible");
	toolTip.setAttribute("opacity",".95");

	// move tooltip
	// get viewbox

	var root = svgDocument.documentElement;
	var vbox = (root.getAttribute("viewBox")).split(' ');
	var x0 = parseFloat(vbox[0]);
	var y0 = parseFloat(vbox[1]);
	var vboxW = parseFloat(vbox[2]);
	var vboxH = parseFloat(vbox[3]);

	// get default width of svg

	var strW = root.getAttribute("width");
	var svgW = parseFloat(strW);
	if(strW.indexOf('mm') != -1)
	svgW *= 3.779;

	var strH = root.getAttribute("height");
	var svgH = parseFloat(strH);
	if(strH.indexOf('mm') != -1)
	svgH *= 3.779;  	// 96 dpi  -> 96/25.4 = 3.779

	// update the viewbox / width / height if svg is embedded in html with zoom fit all
	var realx0 = x0;
	var realy0 = y0;
	var realvboxW = vboxW;
	var realvboxH = vboxH;
	var realsvgW = svgW;
	var realsvgH = svgH;

	if ((typeof(top) == "undefined") || (typeof(top.svgctl1) != "undefined")) // embedded in html
	{
		// get window size in pxl

		svgW = window.innerWidth;
		svgH = window.innerHeight;

		// calculate real viewbox

		realsvgW = svgW;
		realsvgH = svgH;
		if((svgW / svgH) > (vboxW / vboxH))
		{
			realvboxW = (vboxH * svgW) / svgH;
			realvboxH = vboxH;
			realx0 = x0 - (realvboxW - vboxW)/2 ;
		}
		else
		{
			realvboxH = (vboxW * svgH) / svgW;
			realvboxW = vboxW;
			realy0 = y0 - (realvboxH - vboxH)/2 ;
		}
	}

	// get user zoom/pan

	var newScale = root.currentScale;
	var translation = root.currentTranslate;

	// transform pxl to user unit

	var xPos = (((evt.clientX+10- translation.x)/newScale) * realvboxW)/realsvgW  + realx0 ;
	var yPos = (((evt.clientY+5- translation.y)/newScale) * realvboxH)/ realsvgH  + realy0 ;
	var scaleForWidth = ( (1 / newScale) * realvboxH) / realsvgH;

	// move tooltip

	toolTip.setAttribute("transform", "translate(" + xPos + "," + yPos + ")" );

	// resize tooltip

	var fontsize = 12;
	tiptext.setAttribute("font-size",fontsize*scaleForWidth);
	tiptext.setAttribute("y", fontsize*scaleForWidth);
	var tipBG = svgDocument.getElementById('ToolTipBG');
	var outline = tiptext.getBBox();
	if(tipBG)
	{
		tipBG.setAttribute("stroke-width", 1*scaleForWidth);
		tipBG.setAttribute("width", Number(outline.width) );
		tipBG.setAttribute("height", Number(outline.height) + fontsize*.5*scaleForWidth );
	}
	var ToolTipShadow = svgDocument.getElementById('ToolTipShadow');
	if(ToolTipShadow)
	{
		ToolTipShadow.setAttribute("width", Number(outline.width) );
		ToolTipShadow.setAttribute("height", Number(outline.height) + fontsize*.5*scaleForWidth );
		ToolTipShadow.setAttribute("x", 3*scaleForWidth);
		ToolTipShadow.setAttribute("y", 3*scaleForWidth);
	}
}
function ShowPaper()
{
  var svgDocument = getDocument();
  var paper = svgDocument.getElementById("paperID");
  if(paper)
  {
    paper.setAttribute("transform","scale(1)");
    paper.setAttribute("opacity","1");
    paper.setAttribute("visibility","visible");
  }
  var svg = svgDocument.getRootElement();
  if(svg)
  {
    svg.setAttribute("width","307.000mm");
    svg.setAttribute("height","220.000mm");
    svg.setAttribute("viewBox","-5.000000 -5.000000 307.000000 220.000000");
  }
}
]]></script><defs/><g><path style="fill:#000000;fill-opacity:0.098;fill-rule:evenodd" d="M147.74,0.51L148.16,6.13L148.16,11.74L147.92,13.01L145.63,19.28L144.89,23.57L144.89,27.77L145.14,30.04L145.41,30.91L146.68,29.13L149.17,26.84L150.84,25.99L152.36,25.76L154.71,25.76L156.72,26.26L156.69,26.49L153.61,27.01L151.93,27.85L149.44,29.88L147.83,32.81L147.41,34.90L147.40,36.09L148.45,38.12L148.68,38.18L148.66,35.66L149.16,33.13L150.70,30.64L152.19,29.36L154.36,28.26L156.74,28.04L158.74,28.52L159.53,29.02L157.13,29.52L155.63,30.29L154.35,31.27L152.87,33.07L152.12,34.58L151.69,36.66L151.69,38.34L151.92,39.87L152.19,40.61L153.72,42.88L152.93,42.89L151.45,42.36L149.92,40.60L149.57,40.10L149.91,42.39L150.43,43.36L150.13,43.63L150.65,55.49L150.85,55.79L154.96,55.54L228.99,47.41L228.95,48.74L228.39,48.93L217.54,50.16L217.62,114.70L217.90,114.21L218.12,55.53L223.09,54.96L224.69,54.94L224.84,76.94L229.21,76.68L233.00,76.19L232.57,72.73L233.23,74.85L233.99,79.62L233.99,83.23L233.49,87.00L232.23,91.03L230.21,94.30L228.14,96.25L224.84,96.73L224.69,113.69L224.34,114.35L218.04,115.09L217.39,115.46L186.34,118.88L184.91,118.88L183.80,118.64L184.67,118.47L184.67,112.58L183.32,112.60L169.97,114.09L169.98,115.70L170.90,116.03L169.97,116.11L169.81,119.73L169.48,120.65L158.23,121.99L145.30,123.25L145.14,100.74L141.53,101.11L141.38,62.75L139.27,62.76L134.49,63.26L133.74,63.51L133.58,64.86L132.21,64.86L132.07,63.75L127.69,63.86L127.70,62.76L128.45,62.50L156.01,59.54L156.01,59.25L150.93,58.23L141.02,59.07L140.86,41.87L140.36,38.85L139.35,36.59L138.53,36.40L136.59,34.31L135.08,33.55L134.07,33.31L132.48,33.31L126.94,33.91L126.93,0.33L147.66,0.33zM177.68,54.60L178.64,55.03L176.02,55.46L170.98,55.95L170.98,57.31L173.85,57.21L173.85,58.06L169.56,58.56L165.90,58.79L165.93,58.52L166.54,58.24L165.97,58.05L165.94,55.70L177.58,54.46zM168.30,27.52L169.84,28.49L170.82,30.28L171.56,33.83L172.07,35.32L172.36,47.01L172.09,47.25L169.98,47.65L167.96,47.75L167.81,42.11L165.67,43.60L163.27,44.97L163.01,47.98L160.18,48.93L157.71,48.93L151.92,46.86L151.86,46.63L153.46,46.74L153.46,45.63L151.16,45.41L150.58,45.13L154.14,45.15L156.98,44.22L159.77,41.98L161.50,39.43L162.52,36.68L162.52,32.30L161.54,29.50L159.75,27.01L159.21,26.73L159.16,26.49L160.53,26.50L158.73,25.77L155.89,24.83L155.88,23.73L156.98,23.74zM160.98,31.31L161.30,31.81L161.27,32.13L160.40,32.30L159.41,32.80L158.00,33.91L156.97,35.65L156.46,37.68L156.71,39.87L157.48,41.60L158.00,42.12L157.21,42.14L155.73,41.60L154.20,39.86L153.69,38.61L153.69,35.14L154.59,33.28L156.74,31.39L157.90,31.05L160.52,31.02zM157.96,36.90L158.87,35.04L160.16,34.06L160.66,33.79L161.51,33.80L161.51,36.42L160.75,38.68L159.24,40.93L158.50,40.33L157.96,39.11zM103.86,39.36L104.11,56.23L107.14,56.04L112.93,55.45L112.93,56.81L106.30,57.47L103.11,57.47L81.46,53.20L75.08,53.54L75.10,52.44L75.84,52.18L79.43,51.96L80.18,52.46L102.85,56.82L103.10,39.08zM236.90,40.82L238.20,40.34L238.28,41.21L237.21,41.13zM189.85,43.36L191.25,43.40L191.24,43.69L190.14,43.64zM179.28,45.16L179.78,44.87L183.65,44.35L183.66,45.74L182.06,45.89L180.37,45.90L179.34,45.63zM223.82,46.15L251.85,43.10L251.87,44.48L229.38,46.90L227.45,46.90zM208.36,46.96L206.93,46.88L207.18,46.64L208.36,46.67zM180.01,47.12L180.13,47.14L179.88,51.76L179.58,51.97L177.79,52.29L177.64,49.67L177.05,49.93L175.77,50.17L170.48,50.67L169.73,50.93L169.82,52.95L168.21,53.03L168.06,50.92L163.17,50.92L163.02,53.03L160.40,53.03L160.24,50.93L159.49,50.67L154.46,50.17L153.34,49.92L156.97,50.17L167.71,50.17L173.33,49.50L177.58,48.46L177.80,48.18L179.84,47.74zM175.65,47.72L174.50,47.67L175.01,47.37L175.63,47.41zM196.50,48.50L195.38,48.50L195.39,47.66L196.23,47.44L196.51,47.15zM152.13,49.74L152.01,49.59L152.97,49.67zM136.60,49.76L135.74,49.76L135.74,48.90L136.60,48.90zM138.25,54.19L139.40,54.22L139.39,54.52L138.30,54.43zM124.25,57.30L123.92,57.30L123.92,56.97L124.25,56.97zM79.35,57.72L82.25,57.48L82.17,57.97L80.71,57.97zM77.11,57.93L77.69,58.00L77.76,58.27L77.42,58.27zM82.89,58.21L85.29,58.01L85.26,58.54L83.17,58.49zM78.59,58.73L80.76,58.51L80.72,59.06zM85.89,58.98L88.77,58.72L88.77,59.58zM120.00,60.24L119.12,60.52L118.48,60.51L115.11,59.97L115.16,60.21L115.97,60.72L115.94,65.10L114.69,65.63L114.44,59.74L113.59,59.22L114.69,59.24zM82.63,59.50L83.12,59.21L84.00,59.24L84.03,59.79zM123.21,59.82L123.49,60.02L121.89,60.08L121.89,33.55L123.01,33.55zM78.61,59.72L80.25,59.76L80.25,60.05L78.89,60.00zM72.70,59.97L71.52,59.97L71.78,59.71L72.44,59.71zM90.94,60.01L91.70,59.73L93.32,59.74L93.24,60.23L92.04,60.24zM135.00,60.24L135.75,59.98L136.61,59.99L136.62,60.56L135.27,60.50zM86.90,60.23L88.81,60.26L88.81,60.55L87.48,60.51zM94.21,60.48L96.62,60.27L96.59,60.81L94.50,60.76zM72.28,60.80L72.28,60.51L76.72,60.00L76.69,60.82L76.38,61.03L73.41,60.99zM92.04,61.05L91.45,61.01L92.10,60.78zM96.07,65.26L96.07,66.37L93.72,66.64L93.78,65.09L94.46,64.24L95.32,64.24zM122.02,63.84L120.99,65.38L120.89,63.25L122.01,63.27zM123.78,69.02L124.51,70.55L124.51,72.16L120.97,72.67L120.97,69.62L121.64,68.53L122.16,68.27L122.74,68.27zM139.87,69.64L138.76,69.64L138.76,65.02L139.89,64.78zM118.97,69.64L116.87,69.81L114.10,69.82L115.44,69.38L115.68,67.86L119.49,67.54zM136.10,70.52L136.10,71.41L135.34,72.41L132.04,72.89L131.56,75.44L130.80,76.94L129.94,78.09L128.29,78.96L125.93,79.14L127.30,78.21L128.28,76.94L129.04,75.18L129.47,72.84L130.79,72.40L131.04,70.88L135.88,70.30zM128.55,70.79L128.53,73.41L127.95,75.60L126.95,77.11L125.94,77.87L123.15,78.38L123.21,78.83L120.97,84.49L120.99,76.57L122.22,77.62L123.68,77.62L124.66,77.09L125.53,76.37L126.17,76.36L126.76,74.66L127.02,73.66L126.91,70.31L128.28,70.31zM139.12,71.56L139.62,72.31L139.54,73.34L138.25,73.42L138.30,72.07L137.96,71.56L138.24,71.28zM115.20,72.07L115.94,72.33L115.94,76.93L114.69,77.46L114.67,71.31zM232.57,72.73L232.38,72.07L232.47,72.05zM136.83,74.84L136.84,96.06L136.53,96.27L135.75,96.34L135.74,73.82L136.58,73.82zM96.07,77.09L96.07,78.20L93.71,78.20L93.79,76.92L94.22,76.10L95.33,76.08zM118.96,78.44L117.63,78.72L117.69,71.13L118.10,70.27L118.97,70.29zM116.44,78.88L116.98,79.87L116.89,80.63L115.42,80.63L115.43,78.69L115.95,78.58zM133.50,80.14L131.45,80.13L132.56,78.44L133.56,75.32zM126.50,81.66L128.19,81.89L129.05,81.88L129.07,82.19L126.75,87.99L126.52,93.80L120.90,94.57L120.97,89.00L124.24,80.94L124.44,80.62L124.74,80.59zM114.96,83.62L115.95,84.15L115.96,91.04L114.67,91.29L114.67,83.14zM57.33,84.12L58.31,86.16L58.32,87.26L55.45,87.52L55.45,83.39L56.57,83.38zM81.97,83.22L81.67,83.43L79.10,83.64L79.69,83.90L79.70,85.77L76.67,85.42L75.16,84.89L75.15,84.50L76.21,84.01L76.35,61.50L77.10,61.24L81.98,60.98zM103.10,84.65L97.98,85.00L97.98,62.49L106.14,61.74L106.13,85.26zM118.97,94.30L117.63,94.57L117.70,82.71L117.97,82.23L118.13,80.13L118.65,79.82L118.97,79.85zM116.21,94.32L115.86,94.97L111.34,95.48L110.03,95.45L111.12,94.76L111.32,93.45L116.21,92.95zM139.87,95.82L138.76,95.82L138.77,76.86L139.86,76.58zM135.08,99.80L135.51,98.26L136.25,97.99L140.37,97.73L140.38,99.10L139.80,99.78L137.32,100.09L137.33,121.77L136.76,121.77L136.60,100.25L134.22,100.26L134.73,99.78zM61.10,103.53L59.74,103.79L59.56,104.11L58.99,104.55L59.07,109.59L58.82,114.95L57.22,115.21L57.21,103.02L58.56,103.03zM64.64,104.84L62.99,104.79L64.63,104.55zM68.11,106.64L68.04,106.32L68.62,106.26zM65.01,109.42L65.02,106.55L66.61,106.27L66.58,111.44L66.29,111.37L66.37,109.56zM69.04,110.42L69.05,107.56L69.53,107.29L71.68,107.07L71.61,112.20L71.32,112.12L71.39,110.30zM74.33,107.56L75.46,107.32L75.59,112.17L76.45,112.35L74.58,112.43L74.42,110.83zM83.63,112.18L84.76,112.34L83.37,112.56L83.05,113.01L81.36,112.84L82.49,112.69L82.63,108.05L83.48,108.05zM79.61,112.18L80.73,112.34L79.10,112.58L78.63,112.86L77.10,112.86L77.67,112.67L77.86,108.06L79.45,107.54zM75.45,113.06L75.43,117.96L74.40,118.22L74.42,115.69L74.63,113.36L74.89,112.82L75.15,112.79zM83.51,113.32L83.50,117.97L83.27,118.27L82.65,118.49L82.70,113.36L83.05,113.01zM79.48,113.31L79.45,115.19L77.86,115.72L77.85,113.60L78.67,113.40L79.20,113.04zM66.63,116.96L65.01,116.96L65.01,114.59L66.38,114.45L66.61,111.82zM71.66,117.72L69.04,117.97L69.04,115.60L71.40,115.19L71.65,112.82zM181.07,118.19L180.97,118.04L182.17,118.13zM108.32,119.25L109.18,119.14L109.15,121.98L108.59,122.18L104.54,122.66L102.08,122.64L100.78,123.18L99.22,123.24L99.30,122.75L101.13,122.48L101.13,122.19L100.61,121.89L99.25,121.90L98.50,122.16L96.98,123.41L95.05,123.75L90.94,124.01L90.93,121.39L92.05,121.16L91.96,88.18L92.71,87.92L106.55,86.42L108.18,86.17zM132.47,120.93L131.98,121.01L131.98,99.47L132.55,99.47zM171.11,33.55L170.99,34.04L168.57,35.66L168.28,35.37L167.83,34.03L167.52,33.58L167.44,32.81L169.56,32.80zM180.59,54.49L180.01,54.52L180.01,54.22L180.89,54.18zM181.18,57.28L179.29,57.24L180.04,56.96L181.18,56.99z"/><g id="Actor_.0"><path style="fill:#ff0000;fill-rule:evenodd" d="M118.09,68.09L118.71,73.24L118.90,76.28L106.26,77.68L106.30,69.28L118.00,67.99zM71.74,81.33L71.15,81.46L36.02,85.30L36.46,89.37L27.71,82.14L27.71,81.70L28.76,80.46L34.63,72.87L35.17,76.99L69.40,73.24L70.86,73.24z"/></g><g id="Actor_.1"><g style="stroke:#000000;stroke-width:0.250"><path d="M71.85,81.42L71.86,81.42"/></g><g style="stroke:#000000;stroke-width:0.250"><path d="M71.85,81.42L36.05,85.30L36.50,89.46L27.54,82.03L34.70,72.85L35.15,77.00L70.95,73.11"/><path d="M106.21,69.29L118.16,67.99L119.06,76.30L106.21,77.69"/></g></g><g id="Actor_.2"><g style="stroke:#000000;stroke-width:0.176"><path d="M109.10,92.78L109.33,92.47L109.62,92.32L109.94,92.33L110.25,92.52L110.51,92.86L110.71,93.32L110.81,93.84L110.81,94.36L110.71,94.84L110.51,95.22L110.25,95.45L109.94,95.52L109.86,95.51L109.62,95.42L109.33,95.15"/><path d="M109.81,92.00L110.18,92.02L110.55,92.25L110.86,92.65L111.09,93.19L111.21,93.80L111.23,94.11L111.21,94.42L111.09,94.98L110.86,95.43L110.78,95.50L110.55,95.71L110.18,95.79"/><path d="M115.92,91.28L115.92,84.28L115.41,84.08L114.92,83.67L114.50,83.10L114.50,91.44L115.92,91.28L115.92,91.93L116.07,92.19L116.28,92.76L116.38,93.40L116.35,94.03L116.19,94.59L115.93,95.01L115.59,95.24L113.08,95.50"/><path d="M114.50,91.44L113.08,91.61"/><path d="M115.21,68.31L115.11,67.80L114.91,67.34L114.65,67.00L114.34,66.81L114.02,66.79L113.73,66.95L113.50,67.26L113.35,67.69L113.29,68.20L113.33,68.52"/><path d="M113.50,67.26L113.59,67.04L113.87,66.67L114.21,66.49L114.58,66.51L114.95,66.73L115.26,67.13L115.49,67.67L115.61,68.27"/><path d="M116.72,79.47L116.57,79.22L116.21,78.89L115.92,78.77L115.82,78.76L115.44,78.84L115.11,79.14L114.87,79.60L114.75,80.19L114.75,80.84L114.88,81.49L115.11,82.05L115.44,82.47L115.82,82.70L116.21,82.73L116.57,82.53L116.86,82.15L117.05,81.61L117.11,80.98L117.05,80.33L116.86,79.72L116.72,79.47L116.53,79.29L116.23,79.19L115.94,79.26L115.69,79.48L115.50,79.83L115.41,80.28L115.41,80.78L115.50,81.27L115.69,81.70L115.94,82.02L116.23,82.20L116.53,82.21L116.80,82.07L116.97,81.84"/><path d="M114.50,76.79L114.50,77.84L114.92,77.43L115.41,77.22L115.92,77.22L115.92,76.64"/><path d="M114.50,59.89L114.50,66.06L114.92,65.65L115.41,65.44L115.92,65.44L115.92,65.38L115.41,65.44"/><path d="M114.21,66.49L119.43,65.92L119.61,65.93L119.80,65.99L120.15,66.26L120.26,66.43L119.89,66.93L119.73,67.30L120.64,66.09L121.77,65.49L123.00,65.57L124.20,66.30L125.23,67.63L125.99,69.39L126.39,71.41L126.39,73.45L125.99,75.31L125.23,76.78L124.20,77.70L123.00,77.96L122.69,77.92L121.77,77.55L120.64,76.51L120.89,76.85L120.89,84.82L123.27,78.97L123.04,78.56L123.82,79.15L125.39,79.46L126.87,78.90L128.11,77.55L128.97,75.53L129.36,72.99L129.54,73.16L129.92,73.28L130.28,73.20L130.59,72.92L130.82,72.48L130.94,71.92L130.96,71.61L130.94,71.30L130.82,70.68L130.59,70.15L130.28,69.75L129.92,69.53L129.54,69.50L129.20,69.69L129.07,69.85L128.60,67.95L127.53,65.83L126.15,64.31L125.89,64.19"/><path d="M114.80,59.95L114.92,60.11L115.41,60.52L115.92,60.73L115.92,65.38"/><path d="M115.92,77.16L115.41,77.22"/><path d="M116.91,96.49L131.99,99.46L131.99,121.14"/><path d="M117.60,94.74L119.02,95.02L119.02,94.58L117.60,94.74L117.60,83.26L119.02,83.12L119.02,78.74L117.60,78.90L117.60,76.46"/><path d="M117.60,83.26L117.93,82.31L118.05,81.17L117.93,79.98L117.60,78.90"/><path d="M119.02,83.12L119.02,94.58"/><path d="M119.02,78.74L119.02,76.30"/><path d="M119.02,75.93L119.02,71.72L119.15,73.03L119.73,74.94L120.64,76.51"/><path d="M118.52,71.39L118.98,71.34L118.94,70.97L119.15,68.99L119.73,67.30"/><path d="M118.98,71.34L119.02,71.72"/><path d="M118.42,70.40L118.99,70.52"/><path d="M118.36,69.85L119.07,69.77"/><path d="M128.10,82.12L129.20,82.01L126.62,88.47L126.56,88.70L126.54,88.95L126.57,93.78L126.60,94.08L126.68,94.36L126.81,94.59L126.97,94.76L127.15,94.84L133.67,96.12L133.67,92.05L133.65,91.79L133.58,91.53L130.34,82.28L130.20,82.00L130.03,81.82L129.84,81.74L128.10,82.12L126.46,81.80L124.88,80.82L124.70,80.73L124.51,80.75L124.45,80.80L124.35,80.87L124.22,81.08L120.98,89.05L120.91,89.28L120.89,89.54L120.89,94.45L120.92,94.74L121.00,95.02L121.13,95.26L121.28,95.42L121.46,95.50L133.14,97.79L133.08,97.96L133.03,98.47L133.08,99.00L133.23,99.49L133.37,99.73L132.75,99.61L132.75,121.06"/><path d="M120.89,76.85L122.08,77.95L123.41,78.39L124.69,78.11L125.81,77.12L126.62,75.54L127.05,73.55L127.11,72.45L127.05,71.34L126.62,69.17L125.81,67.28L124.69,65.85L123.41,65.06L122.08,64.98L124.27,64.76L125.59,65.21L126.81,66.33L127.78,68.01L128.42,70.07L128.63,72.29L128.42,74.42L127.78,76.23L126.81,77.53L125.59,78.18L123.41,78.39"/><path d="M120.82,73.13L120.95,73.36L121.92,74.68L122.07,74.84L122.24,74.91L123.14,75.09L123.31,75.08L123.46,74.98L124.44,74.04L124.57,73.86L124.65,73.61L124.68,73.32L124.68,72.09L124.58,71.06L124.30,70.08L123.86,69.27L123.31,68.69L122.69,68.41L122.08,68.45L121.52,68.81L121.08,69.45L120.80,70.31L120.70,71.31L120.70,72.54L120.73,72.84L120.82,73.13"/><path d="M120.26,66.43L120.89,65.62L120.89,63.25"/><path d="M120.89,65.62L122.08,64.98"/><path d="M121.18,65.46L121.68,64.67L123.05,63.71L123.17,63.70"/><path d="M121.68,64.67L122.18,63.50"/><path d="M123.04,78.56L122.39,78.05"/><path d="M123.73,57.04L123.73,57.50"/><path d="M129.92,73.28L131.99,73.05L131.65,75.24L130.79,77.26L129.55,78.61L128.07,79.17L125.39,79.46"/><path d="M125.15,57.35L125.15,57.32"/><path d="M128.83,70.28L128.68,70.71L128.63,71.22L128.68,71.75L128.83,72.24L129.07,72.65L129.36,72.92L129.59,73.01L129.68,73.02L129.98,72.95L130.25,72.72L130.44,72.34L130.55,71.86L130.55,71.33L130.44,70.81L130.25,70.36L129.98,70.02L129.68,69.83L129.36,69.81L129.07,69.96L128.83,70.28L128.93,70.05L129.07,69.85"/><path d="M129.20,82.01L130.12,81.92"/><path d="M129.07,72.65L129.20,72.84L129.36,72.99"/><path d="M129.54,69.50L130.72,69.39L129.68,69.51L131.63,69.28L130.72,69.39"/><path d="M131.63,69.28L131.68,69.28L131.27,67.66L130.21,65.54L128.88,64.08"/><path d="M131.42,120.79L131.42,99.35"/><path d="M133.67,80.30L133.67,87.33L131.29,80.55L132.37,79.00L133.19,76.99L133.67,74.71L133.67,80.30L131.29,80.55"/><path d="M131.68,69.28L133.44,69.08L133.14,67.57L132.25,65.15L132.25,63.71"/><path d="M131.99,99.46L132.75,99.61"/><path d="M131.99,73.05L135.32,72.68L135.64,72.45L135.90,72.05L136.05,71.51L136.07,70.82L135.99,70.28L135.78,69.72L135.49,69.28L135.13,69.01L134.95,68.94L134.76,68.93L133.44,69.08"/><path d="M132.25,65.15L133.67,64.99L133.68,69.05"/><path d="M139.15,76.97L140.06,76.88L140.06,76.35L139.64,76.76L139.15,76.97L138.64,76.97L138.64,96.19L136.96,96.39L136.96,75.29L136.74,74.66L136.59,73.98L135.54,73.77L135.54,96.56L133.95,96.75L134.23,96.75L134.32,96.77L134.68,97.00L134.99,97.40L135.22,97.93L135.35,98.55L135.35,99.17L135.22,99.73L134.99,100.18L134.68,100.45L134.32,100.53L133.95,100.41L133.60,100.09L133.47,99.90L133.76,100.16L134.07,100.27L134.38,100.20L134.65,99.96L134.84,99.59L134.95,99.11L134.95,98.58L134.84,98.07L134.65,97.61L134.38,97.27L134.08,97.08L134.00,97.06L133.76,97.06L133.47,97.22L133.23,97.53L133.14,97.79"/><path d="M133.37,99.73L133.47,99.90"/><path d="M133.23,97.53L133.33,97.30L133.60,96.93L133.95,96.75"/><path d="M133.67,96.12L133.67,96.90"/><path d="M133.67,64.99L133.67,63.56"/><path d="M132.94,49.77L132.94,49.91"/><path d="M133.02,48.67L133.04,48.67"/><path d="M132.95,48.77L133.09,48.86L133.43,48.93L133.91,48.99L134.50,49.02L135.13,49.02L135.73,49.00L136.23,48.94L136.59,48.87L136.76,48.78"/><path d="M133.30,48.40L133.24,48.48L133.36,48.56L133.64,48.62L134.06,48.67L135.09,48.70L135.60,48.68L136.02,48.63L136.32,48.57L136.47,48.49L136.43,48.41"/><path d="M134.32,100.53L136.39,100.33L136.64,100.37L136.64,122.06"/><path d="M135.54,96.56L136.96,96.39"/><path d="M136.07,121.71L136.07,100.36"/><path d="M136.64,100.37L137.41,100.52L137.41,121.97"/><path d="M136.39,100.33L139.73,99.99L140.07,99.75L140.33,99.33L140.48,98.78L140.51,98.15L140.42,97.51L140.21,96.93L140.06,96.67L140.06,96.02L138.64,96.19"/><path d="M136.76,49.35L136.76,49.94"/><path d="M136.72,48.69L136.70,48.68"/><path d="M137.41,100.52L141.48,101.33L141.48,62.71"/><path d="M137.83,74.74L137.59,74.18L137.46,73.53L137.46,72.88L137.59,72.29L137.83,71.83L138.16,71.53L138.54,71.45L138.64,71.46L138.93,71.58L139.29,71.91L139.43,72.16L139.24,71.98L138.95,71.88L138.66,71.95L138.40,72.17L138.22,72.52L138.12,72.97L138.12,73.47L138.22,73.96L138.40,74.39L138.66,74.71L138.95,74.89L139.24,74.90L139.52,74.76L139.69,74.53L139.58,74.84L139.29,75.22L138.93,75.42L138.54,75.39L138.41,75.31L138.16,75.16L137.83,74.74"/><path d="M139.63,62.91L139.58,63.06L139.29,63.45L138.93,63.64L138.54,63.61L138.16,63.38L137.94,63.09"/><path d="M140.06,69.74L140.06,71.09L139.64,70.52L139.15,70.11L138.64,69.91L138.64,65.20L139.15,65.19L139.40,65.08L139.64,64.98L140.06,64.57L140.06,69.74L138.64,69.91"/><path d="M138.77,63.00L138.95,63.11L139.24,63.13L139.52,62.98L139.57,62.92"/><path d="M140.06,96.02L140.06,76.88"/><path d="M139.43,72.16L139.58,72.41L139.77,73.02L139.83,73.67L139.77,74.30L139.69,74.53"/><path d="M139.15,65.19L140.06,65.10"/><path d="M141.48,101.33L145.30,100.91L145.30,123.53"/><path d="M173.48,58.28L165.99,59.09L165.99,58.68L166.74,58.60L166.74,58.18L165.99,58.26L165.99,58.68"/><path d="M165.99,58.26L165.99,55.89"/><path d="M165.99,57.97L168.00,57.93"/><path d="M166.74,58.60L171.11,58.13"/><path d="M166.74,58.18L169.40,58.07L169.75,58.04"/><path d="M185.21,119.15L184.99,119.04L184.82,118.85L184.72,118.60L184.68,118.32L184.64,112.66L169.82,114.27L169.81,116.12"/><path d="M180.12,57.15L181.20,57.03L181.20,57.44L176.66,57.93"/><path d="M180.60,51.52L180.60,51.51L180.70,51.50"/><path d="M180.60,51.51L180.46,51.79L180.44,51.88"/><path d="M181.12,56.62L181.20,56.61L181.20,57.03"/><path d="M181.12,56.21L181.20,56.20L181.20,56.61"/><path d="M181.12,55.79L181.20,55.78L181.20,55.74L181.12,55.72"/><path d="M181.20,55.78L181.20,56.20"/><path d="M181.20,55.74L181.20,54.24"/><path d="M190.59,46.11L188.13,46.38L185.66,45.90"/><path d="M187.62,46.28L187.62,45.92"/><path d="M196.62,48.65L196.61,47.49L196.45,47.57L196.09,47.65L195.59,47.70L194.99,47.73L194.36,47.73L193.77,47.70L193.29,47.64L192.96,47.56L192.81,47.47L192.81,48.62"/><path d="M192.81,47.47L192.90,47.37"/><path d="M192.88,47.38L193.16,47.11L193.10,47.19L193.22,47.26L193.50,47.33L193.92,47.38L194.95,47.41L195.46,47.38L195.88,47.34L196.19,47.27L196.33,47.20L196.30,47.12L196.58,47.39L196.56,47.39"/><path d="M193.16,47.11L193.38,47.04L193.75,46.98L194.23,46.95L194.75,46.94L195.28,46.95L195.74,46.99L196.09,47.05L196.30,47.12"/><path d="M196.58,47.39L196.61,47.49"/></g><g style="stroke:#000000;stroke-width:0.529"><path d="M217.57,50.29L217.57,115.61L217.52,115.66L217.39,115.70L185.44,119.17L185.21,119.15L169.81,116.12L169.78,119.94L169.74,120.23L169.63,120.50L169.46,120.73L169.25,120.88L169.01,120.95L145.30,123.53L137.41,121.97L136.64,122.06L136.07,121.94L136.07,121.71L132.75,121.06L131.99,121.14L131.42,121.03L131.42,120.79L116.91,117.94L116.91,96.49L113.08,95.74L113.08,95.50L110.18,95.79L109.81,95.66L109.47,95.35L109.10,94.74L108.95,94.25L108.89,93.72L108.95,93.21L109.19,92.55L109.47,92.19L109.81,92.00L113.08,91.61L113.08,76.95"/><path d="M113.08,58.23L113.08,68.54"/><path d="M136.76,49.35L136.76,48.78L136.72,48.69L136.43,48.41L136.23,48.34L135.88,48.28L135.42,48.25L134.37,48.24L133.89,48.28L133.52,48.33L133.30,48.40L133.02,48.67L132.95,48.77L132.94,49.77"/></g></g><g id="Actor_.3"><g style="stroke:#000000;stroke-width:0.176"><path d="M147.22,35.94L147.71,33.20L149.14,30.47L151.30,28.33L153.95,27.03L156.81,26.71L157.26,26.82L156.73,26.46L153.98,25.77L151.13,26.10L148.48,27.40L146.32,29.54L145.40,31.29"/><path d="M150.00,43.07L150.88,43.94L151.53,44.23L153.48,44.36L155.56,43.74L153.85,43.63L151.69,42.66L149.97,40.96L148.89,38.73L148.57,36.20L149.03,33.66L149.15,33.43L150.23,31.37L152.04,29.58L154.26,28.49L156.65,28.21L158.95,28.79L160.20,29.64L159.08,28.07L157.26,26.82"/><path d="M157.52,53.08L157.60,50.73L155.74,50.55L153.78,50.26L152.24,49.92L151.16,49.55L150.91,49.42L150.30,49.00"/><path d="M150.58,46.79L150.51,46.84L150.21,47.15L150.58,46.79L150.64,46.75L150.81,46.69L151.02,46.70L150.64,46.62L150.23,46.47L150.17,46.33"/><path d="M156.21,23.71L156.09,23.72L155.98,23.82L155.88,24.00L155.80,24.25L155.75,24.53L155.70,25.00L157.18,25.42L159.80,27.23L161.70,29.89L162.65,33.12L162.56,36.55L161.43,39.83L159.39,42.59L156.66,44.54L153.54,45.47L150.36,45.26"/><path d="M151.53,44.23L150.64,44.18L150.04,43.91"/><path d="M167.39,33.33L167.65,33.57L167.66,33.79L167.60,33.92L167.40,33.63L167.83,35.34L167.86,37.66L167.35,39.95L166.35,42.06L164.90,43.87L163.10,45.27L163.08,45.28L163.05,48.11L160.28,49.04L160.15,49.15L160.04,49.36L158.29,49.25L152.02,47.18L151.91,47.10L151.82,46.93L151.76,46.69L151.74,46.41L151.75,46.12L151.77,45.92"/><path d="M151.74,46.29L151.67,46.33L151.73,46.43L151.74,46.43"/><path d="M160.04,49.36L153.76,47.29L153.66,47.21L153.57,47.04L153.51,46.81L153.48,46.53L153.50,46.23L153.55,45.76L151.80,45.65L151.79,45.74"/><path d="M153.55,45.76L155.92,46.54L156.00,46.55L156.64,46.44"/><path d="M160.96,46.17L159.03,46.52L158.95,46.51L158.08,46.23L160.20,45.39L162.11,44.06L163.71,42.31L164.82,40.40L164.92,40.23L165.67,37.94L165.91,35.56L165.65,33.20L164.89,31.00L163.67,29.08L162.06,27.52L161.97,27.45L160.04,26.34L157.18,25.42L154.10,24.66L153.97,24.68"/><path d="M154.10,24.66L155.70,25.00"/><path d="M155.56,43.74L156.27,43.53L157.51,42.65L156.94,42.52"/><path d="M158.08,46.23L156.62,46.44"/><path d="M158.09,42.24L157.44,41.60L156.65,39.96L156.41,38.10L156.75,36.23L157.63,34.55L158.96,33.24L160.59,32.44L161.33,32.35"/><path d="M160.28,53.24L160.28,50.93L158.53,50.82L157.60,50.73"/><path d="M157.51,42.65L158.71,41.79L160.53,39.32L161.54,36.40L161.62,33.33L160.77,30.45L160.20,29.64"/><path d="M161.61,33.79L160.89,33.87L159.68,34.46L158.70,35.44L158.05,36.68L157.79,38.07L157.97,39.44L158.56,40.66L159.13,41.22"/><path d="M158.54,50.81L158.53,50.82L158.53,53.17"/><path d="M160.28,50.93L163.00,51.02L162.97,53.34"/><path d="M160.29,46.29L161.06,46.17L163.08,45.28"/><path d="M160.59,38.97L160.58,39.18"/><path d="M160.62,38.04L160.63,37.54L160.69,36.71L160.75,36.44L160.86,36.17L161.03,35.89L161.37,35.51L161.56,35.37"/><path d="M160.50,31.42L161.13,31.68"/><path d="M163.00,51.02L163.34,51.03L166.06,51.04L168.75,50.97L169.69,50.92L169.78,53.25"/><path d="M163.05,48.11L165.28,48.15L167.62,48.08L169.69,47.91L171.29,47.65L172.23,47.33L172.43,46.99L172.37,45.28"/><path d="M163.05,28.48L164.65,29.48L164.73,29.55L166.22,31.16L167.22,33.03L167.92,32.80L168.18,32.83L168.15,32.82"/><path d="M163.64,44.85L163.91,44.79L163.63,44.86"/><path d="M166.11,43.44L167.19,42.34L168.19,40.52L168.68,38.49L168.62,36.43L168.47,35.96L168.55,36.11L169.01,37.00L169.31,37.97L169.41,38.95L169.26,39.94L168.88,40.86L168.33,41.67L167.55,42.48L166.82,43.06L166.11,43.44L165.75,43.80L164.01,44.78L163.62,44.87"/><path d="M173.81,58.30L173.81,57.36L170.52,57.59L166.20,57.72L165.99,57.72"/><path d="M172.68,58.23L165.99,57.80"/><path d="M181.12,54.27L179.94,54.89L177.65,55.44L174.43,55.88L170.52,56.18L166.20,56.31L165.99,56.31"/><path d="M167.22,33.03L167.27,33.13L167.40,33.63"/><path d="M168.47,35.96L168.00,34.51L167.60,33.92"/><path d="M168.19,32.83L168.18,32.83L169.14,32.93L170.04,33.11L170.57,33.32L171.08,33.56L171.48,33.94"/><path d="M169.69,50.92L171.43,50.83L173.80,50.62L175.86,50.34L176.90,50.16L177.22,50.06L177.48,49.92L177.68,49.76L177.82,49.58L177.92,49.41L177.95,49.24L177.94,49.08L177.90,48.96L177.77,48.78L177.52,48.57L177.22,48.43L176.90,48.34L176.57,48.31L177.22,48.30L178.26,48.24L179.12,48.14L179.72,48.00L180.00,47.84L180.00,48.83"/><path d="M180.00,54.37L180.00,54.72L179.72,54.88L179.12,55.01L178.26,55.12L177.22,55.18L176.10,55.19L175.02,55.15L173.63,55.06"/><path d="M174.56,47.67L174.93,47.59L175.46,47.53L176.09,47.50L176.77,47.49L177.41,47.53L177.94,47.59L178.31,47.67L178.48,47.76L178.43,47.86L178.16,47.95L177.94,47.99L177.71,48.03L177.11,48.07L176.45,48.09L175.79,48.07L175.19,48.03L174.73,47.95L174.46,47.86L174.40,47.77L174.56,47.67"/><path d="M180.00,47.84L179.93,47.68L179.51,47.52L179.13,47.45"/><path d="M180.07,48.75L180.08,48.75"/></g><g style="stroke:#000000;stroke-width:0.529"><path d="M145.01,29.86L145.52,28.87L147.94,26.48L150.90,25.03L153.97,24.68L154.00,24.42L154.05,24.14L154.13,23.89L154.23,23.71L154.35,23.61L154.46,23.60L156.21,23.71L168.82,27.87L169.94,28.76L170.84,30.55L171.42,33.06L171.48,33.94L171.64,34.20L171.92,34.71L172.03,35.28L172.37,45.28L174.40,45.48L176.36,45.77L177.90,46.10L178.98,46.48L179.24,46.60L179.82,47.00L180.04,47.21L180.17,47.47L180.22,47.77L180.27,48.19L180.22,48.48L180.08,48.75L180.00,48.83L180.00,52.00"/><path d="M151.77,45.92L151.03,46.01L150.43,46.15L150.16,46.30"/><path d="M151.77,45.92L151.79,45.74L150.36,45.26L150.11,45.15"/><path d="M172.68,58.23L173.81,58.30L174.43,58.24L177.65,57.80L179.94,57.25L181.12,56.62L181.12,54.25"/></g></g><g id="Actor_.4"><g style="stroke:#000000;stroke-width:0.176"><path d="M217.57,54.83L217.73,55.13L217.89,55.69L217.95,56.28L217.95,64.78L217.95,113.76L217.89,114.33L217.73,114.82L217.57,115.06"/><path d="M224.83,96.80L224.83,62.40"/><path d="M229.45,95.31L229.53,95.24"/></g><g style="stroke:#000000;stroke-width:0.529"><path d="M217.57,52.22L223.69,53.42L224.04,53.59L224.36,53.92L224.61,54.38L224.77,54.94L224.83,55.53L224.83,62.39L225.02,62.46L225.21,62.56L227.05,63.76L228.77,65.47L230.40,67.75L231.71,70.25L232.76,73.06L233.50,76.07L233.94,79.20L234.03,82.34L233.80,85.39L233.23,88.26L232.36,90.86L232.29,91.01L231.12,93.27L229.70,95.10L228.29,96.32L228.24,96.36L228.03,96.45L227.98,96.45L224.83,96.80L224.83,113.01L224.77,113.58L224.61,114.08L224.36,114.45L224.04,114.65L217.57,115.35"/></g></g><g id="Actor_.5"><g style="stroke:#000000;stroke-width:0.176"><path d="M59.44,110.44L59.44,110.43"/><path d="M59.16,110.16L59.24,110.23L59.27,110.25L59.35,110.27L59.47,110.28L59.57,110.29L60.87,110.33L61.56,110.33L61.56,110.57"/><path d="M58.96,109.55L59.01,109.57L59.16,109.60L59.16,109.75"/><path d="M59.16,109.60L59.16,105.26L59.24,105.33L59.28,105.35L59.35,105.37L59.45,105.38L59.57,105.39L60.87,105.43L62.19,105.43L62.77,105.42L62.93,105.42L63.06,105.44L63.09,105.45L63.30,105.56L63.31,105.57L63.29,105.59L63.26,105.60L63.20,105.61L62.58,105.64L61.66,105.71L60.84,105.81L60.75,105.83L60.70,105.84L60.68,105.86L60.71,105.88L61.04,106.01L61.11,106.03L61.21,106.04L61.34,106.05L61.47,106.05L62.52,106.04L63.54,106.01L64.08,105.98L64.25,105.98L64.39,105.99L64.44,106.00L64.81,106.11L64.84,106.12L64.84,106.13L64.84,106.13L64.82,106.14L64.77,106.15L64.22,106.21L63.24,106.33L62.45,106.49L62.24,106.54L62.22,106.55L62.21,106.55L62.22,106.56L62.24,106.57L62.64,106.66L62.79,106.66L63.18,106.66L64.47,106.61L65.68,106.54L66.59,106.45L66.89,106.43L67.22,106.43L67.53,106.44L67.79,106.47L68.08,106.51L68.10,106.35L68.12,106.34"/><path d="M58.95,104.64L58.96,104.66L59.01,104.67L59.09,104.69L59.20,104.70L60.41,104.78L61.70,104.82L62.28,104.82L62.44,104.83L62.50,104.84L62.54,104.85L62.55,104.86L62.59,104.98L62.59,104.99L62.56,105.01L62.43,105.02L61.78,105.04L60.52,105.10L59.37,105.19L59.27,105.21L59.20,105.22L59.16,105.24L59.16,105.26"/><path d="M59.64,103.97L59.66,103.98L59.72,104.00L59.81,104.02L60.89,104.13L62.09,104.21L62.73,104.24L62.84,104.25L62.86,104.27L62.86,104.28L62.73,104.39L62.71,104.41L62.66,104.42L62.59,104.43L62.43,104.43L61.85,104.43L60.54,104.45L59.64,104.49"/><path d="M61.56,110.33L61.56,109.21L61.34,109.21L61.21,109.20L61.11,109.18L61.04,109.17L60.71,109.04L60.68,109.02L60.68,105.86"/><path d="M61.56,110.62L63.46,110.91L63.75,111.18"/><path d="M61.56,109.21L62.21,109.20L62.21,106.55"/><path d="M61.42,103.81L61.28,103.81"/><path d="M63.46,110.91L63.46,109.80L62.79,109.82L62.68,109.82L62.60,109.81L62.22,109.72L62.21,109.71L62.21,109.20"/><path d="M64.70,111.26L64.53,111.08L66.43,111.37L66.43,109.62L65.68,109.69L64.47,109.77L63.46,109.80"/><path d="M64.38,105.17L64.63,105.21L64.91,105.23L65.22,105.24L65.53,105.24L65.82,105.21L65.94,105.20L65.82,105.17L65.57,105.14L65.27,105.12L64.95,105.13L64.65,105.14L64.38,105.17L62.78,104.97L64.40,104.70L64.65,104.67L64.95,104.65L65.27,104.65L65.57,104.67L65.64,104.68"/><path d="M64.88,104.49L64.71,104.48L64.01,104.39L63.55,104.27L63.48,104.21"/><path d="M64.77,111.33L64.77,111.34"/><path d="M64.53,111.08L64.53,109.77"/><path d="M66.43,111.37L66.68,111.63"/><path d="M66.11,104.87L66.07,104.79"/><path d="M65.94,105.20L66.04,105.18L66.11,105.16"/><path d="M68.05,111.69L68.05,107.18L68.74,107.18L68.57,107.24L68.24,107.42L68.17,107.48L68.16,107.49L68.18,107.50L68.24,107.51L68.84,107.57L69.00,107.57L69.34,107.54L70.43,107.43L71.35,107.29L71.74,107.21L71.82,107.21L71.99,107.20L72.77,107.27L72.89,107.28L72.92,107.30L72.92,107.31L72.90,107.32L72.67,107.40L72.47,107.49L72.35,107.58L72.36,107.60L72.41,107.62L72.50,107.64L72.62,107.65L73.92,107.73L74.07,107.74L74.22,107.74L74.35,107.73L74.46,107.71L74.85,107.64L75.15,107.55L75.38,107.47L75.48,107.46L75.56,107.45L75.73,107.45L76.50,107.49L76.64,107.50L76.69,107.51L76.71,107.52L76.70,107.53L76.59,107.62L76.54,107.81L76.76,108.00L76.81,108.02L76.89,108.03L77.00,108.05L77.61,108.07L77.74,108.07L77.87,108.06L77.99,108.05L78.08,108.04L78.78,107.87L79.23,107.69L79.34,107.61L79.37,107.60L79.43,107.59L79.57,107.58L80.47,107.59L80.62,107.60L80.68,107.61L80.72,107.62L80.73,107.63L80.74,107.71L80.97,107.90L81.13,107.96"/><path d="M68.16,107.49L68.16,110.65L68.18,110.65L68.24,110.67L68.84,110.72L69.00,110.72L69.40,110.69L69.40,111.90"/><path d="M68.05,107.18L68.10,106.82L68.16,106.78L68.32,106.74L68.56,106.71L68.86,106.69L69.18,106.69L69.48,106.70L69.62,106.72L69.40,106.72L69.68,106.76L69.86,106.80L69.94,106.84L69.91,106.89L69.77,106.93L69.15,107.06L68.74,107.18"/><path d="M68.08,106.99L68.08,106.51"/><path d="M71.74,112.39L71.69,112.32L71.57,112.15L69.66,111.86L69.66,110.66L69.40,110.69"/><path d="M69.66,111.86L69.73,111.95"/><path d="M69.66,110.66L70.43,110.59L71.35,110.45L71.57,110.40L71.57,112.15"/><path d="M69.40,107.01L69.40,106.72"/><path d="M70.62,106.39L71.22,106.48L71.40,106.52L71.48,106.57L71.45,106.61L71.33,106.66L71.11,106.69L70.83,106.71L70.51,106.72L69.62,106.72"/><path d="M72.71,112.44L72.64,112.31L74.54,112.60L74.85,112.54L75.15,112.45L75.38,112.37L75.42,112.36L75.48,112.36L75.56,112.35L75.73,112.35L76.54,112.39L76.54,107.81"/><path d="M72.64,112.31L72.64,110.81L73.92,110.89L74.07,110.89L74.22,110.89L74.35,110.88L74.54,110.85L74.54,112.60L74.51,112.82"/><path d="M72.35,107.58L72.35,110.74L72.36,110.76L72.41,110.78L72.50,110.80L72.64,110.81"/><path d="M80.47,112.49L79.66,112.48L79.57,112.48L79.43,112.49L79.37,112.50L79.35,112.51L79.23,112.59L78.78,112.77L78.08,112.94L78.00,112.95L77.87,112.96L77.73,112.97L77.01,112.95L76.89,112.93L76.80,112.92L76.76,112.90L76.70,112.84L77.03,113.17"/><path d="M76.70,112.84L76.54,112.71"/><path d="M76.54,112.39L76.54,112.63"/><path d="M79.60,107.52L79.75,107.55L79.92,107.53L79.60,107.52L78.20,107.27L78.05,107.23L77.99,107.18L78.04,107.14L78.17,107.10"/><path d="M79.92,107.53L80.18,107.50"/><path d="M81.61,113.01L81.76,113.02L81.88,113.02L82.37,113.02L82.49,113.02L82.63,113.01L82.73,113.00L82.80,112.98L83.24,112.80L83.33,112.71L83.30,112.75"/><path d="M82.91,108.04L82.80,108.08L82.73,108.10L82.63,108.11L82.51,108.12L82.32,108.12"/><path d="M83.33,112.71L83.43,112.61L83.43,112.51L83.47,112.50L83.53,112.49L83.68,112.48L84.57,112.47L84.71,112.48L84.77,112.49L84.80,112.50L84.93,112.58L85.39,112.75"/><path d="M83.43,112.51L83.43,108.14"/></g><g style="stroke:#000000;stroke-width:0.529"><path d="M61.28,103.78L61.28,103.81L60.16,103.83L60.03,103.83L59.92,103.84L59.84,103.86L59.78,103.88L59.66,103.95L59.64,103.97L59.64,104.49L59.27,104.50L59.16,104.51L59.06,104.53L59.00,104.55L58.97,104.56L58.95,104.64L58.95,109.54L58.96,109.55L59.16,109.75L59.16,110.16L59.44,110.44L59.52,110.51L59.53,110.52L59.61,110.53L59.68,110.53L61.15,110.57L61.56,110.57L61.56,110.62L62.00,110.91L63.75,111.18L64.16,111.16L64.25,111.16L64.39,111.17L64.44,111.18L64.70,111.26L64.77,111.34L66.68,111.63L66.89,111.61L67.22,111.61L67.53,111.63L67.79,111.65L68.05,111.69L68.05,111.89L69.40,111.90L69.73,111.95L69.83,112.10L71.74,112.39L71.82,112.39L71.99,112.39L72.71,112.44L72.76,112.55L74.51,112.82L74.89,112.72L75.11,112.64L75.20,112.62L75.33,112.60L75.48,112.59L75.65,112.59L76.54,112.63L76.54,112.71L77.04,113.17L77.09,113.19L77.18,113.19L77.66,113.21L77.77,113.21L77.87,113.19L78.64,113.01L78.95,112.87L79.07,112.78L79.12,112.76L79.22,112.74L79.36,112.73L79.52,112.72L80.43,112.73"/><path d="M77.04,113.17L77.03,113.17"/><path d="M85.39,112.92L85.21,112.85L85.08,112.77L85.02,112.75L84.92,112.73L84.78,112.71L84.61,112.71L84.44,112.71L83.49,112.73L83.30,112.75L83.03,113.03L82.54,113.25L82.47,113.26L82.41,113.26L81.83,113.26L81.78,113.26L81.71,113.25L81.58,113.20"/></g></g><g id="Actor_.6"><g style="stroke:#000000;stroke-width:0.176"/><g style="stroke:#000000;stroke-width:0.529"><path d="M67.72,116.55L67.76,116.68L68.14,116.84"/><path d="M75.36,118.13L75.73,118.15"/><path d="M79.43,118.32L78.43,118.31L77.71,118.27"/><path d="M83.43,118.34L83.59,118.33"/></g></g><g id="Actor_.7"><g style="stroke:#000000;stroke-width:0.176"/><g style="stroke:#000000;stroke-width:0.529"><path d="M97.03,123.55L97.27,123.56L98.57,123.55L99.78,123.48L100.76,123.35L101.40,123.18L101.42,123.18L101.66,122.99L101.68,122.98L101.68,122.96L101.69,122.94L101.66,122.53"/></g></g><g id="Actor_.8"><g style="stroke:#000000;stroke-width:0.176"><path d="M79.33,120.26L73.34,119.88L72.27,119.79L71.41,119.66L61.57,117.72L60.97,117.57L60.67,117.39L59.72,116.19L55.27,115.32L54.58,115.12L54.33,114.91"/><path d="M59.72,116.19L59.72,119.02"/><path d="M67.51,116.71L67.21,117.03L67.50,117.08"/><path d="M80.91,123.19L80.91,120.36L80.53,120.34"/><path d="M80.91,120.36L85.37,121.24L86.43,121.39L87.76,121.49L88.71,121.51L89.24,121.52L90.71,121.48L92.03,121.38L107.32,119.72L108.36,119.57L109.03,119.37L109.24,119.16"/><path d="M98.61,122.30L99.45,121.95L100.35,121.95L101.42,122.37L101.74,122.58"/></g><g style="stroke:#000000;stroke-width:0.529"><path d="M55.24,114.49L54.54,114.69L54.33,114.91L54.33,117.74L54.58,117.95L55.27,118.14L59.72,119.02L60.67,120.22L60.97,120.39L61.57,120.55L61.70,120.58L71.41,122.49L72.27,122.62L73.34,122.71L78.92,123.06"/><path d="M79.50,119.12L77.62,119.07L77.33,119.02"/><path d="M98.61,122.30L98.50,122.35L97.21,123.37L96.89,123.68L92.03,124.21L90.71,124.31L89.24,124.35L88.45,124.33L87.76,124.31L86.43,124.22L85.37,124.06L80.91,123.19L80.13,123.14"/><path d="M80.71,119.14L81.54,119.16L85.42,119.09"/><path d="M101.66,122.55L101.74,122.58L102.46,123.08L107.32,122.55L108.36,122.39L109.03,122.20L109.24,121.98L109.24,119.16L109.00,118.94L108.33,118.75"/></g></g><g id="Actor_.9"><g style="stroke:#000000;stroke-width:0.176"><path d="M59.16,110.99L59.16,110.99L59.16,113.08L59.24,113.15L59.28,113.17L59.35,113.19L59.45,113.20L59.57,113.21L60.87,113.25L61.56,113.25L61.56,111.47L62.00,111.20L63.75,111.46L63.46,111.76L63.46,114.16L62.53,114.20L61.47,114.20L61.34,114.20L61.21,114.19L61.11,114.18L61.04,114.16L60.71,114.04L60.68,114.02L60.68,115.43"/><path d="M61.90,110.85L61.14,110.86L59.65,110.81L59.56,110.81L59.53,110.80L59.52,110.79L59.44,110.72L59.44,110.71L59.46,110.71L59.49,110.70L59.55,110.69L60.87,110.59L61.20,110.57"/><path d="M59.44,110.71L59.16,110.99L59.16,111.01L59.24,111.08L59.27,111.10L59.35,111.12L59.46,111.13L59.57,111.14L60.87,111.18L62.30,111.17L62.00,111.20"/><path d="M58.95,110.38L58.96,110.40L59.01,110.42L59.10,110.44L59.20,110.45L59.47,110.47"/><path d="M63.46,114.16L61.56,113.88L60.84,113.96L60.75,113.98L60.70,114.00L60.68,114.02"/><path d="M61.56,113.88L61.56,113.25"/><path d="M61.56,111.47L63.46,111.76"/><path d="M62.21,116.70L62.21,114.70L62.22,114.71L62.24,114.72L62.64,114.81L62.79,114.81L63.18,114.81L64.47,114.77L65.68,114.69L66.43,114.62L66.43,112.21L66.68,111.91L66.89,111.90L67.22,111.89L67.53,111.91L67.79,111.94L68.08,111.98L68.05,112.18L68.05,116.22"/><path d="M66.43,114.62L64.53,114.33L64.22,114.36L63.24,114.49L62.45,114.64L62.24,114.69L62.22,114.70L62.21,114.70"/><path d="M62.30,111.17L62.68,111.15L63.29,111.11"/><path d="M63.75,111.46L64.16,111.44L64.25,111.44L64.39,111.45L64.44,111.47L64.81,111.57L64.84,111.58L64.84,111.59L64.82,111.61L64.77,111.62L66.68,111.91"/><path d="M66.43,112.21L64.53,111.92L64.53,114.33"/><path d="M64.53,111.92L64.71,111.70L64.77,111.62"/><path d="M66.91,111.61L67.15,111.68L67.46,111.73L67.85,111.76L68.05,111.77"/><path d="M68.05,112.18L69.40,112.18L69.40,115.16L69.66,115.11L71.57,115.40L71.35,115.44L70.43,115.58L69.34,115.69L68.99,115.72L68.89,115.72L68.79,115.72L68.24,115.66L68.21,115.65L68.16,115.64L68.16,116.42"/><path d="M69.40,115.16L69.15,115.21L68.57,115.39L68.24,115.58L68.17,115.63L68.16,115.64"/><path d="M69.66,115.11L69.66,112.70L71.57,112.99L71.57,115.40"/><path d="M69.40,112.18L69.68,112.22L69.86,112.26L69.94,112.31L69.91,112.36L69.83,112.39L71.74,112.68L71.82,112.67L71.99,112.67L72.84,112.74L72.89,112.75L72.92,112.76L72.92,112.77L72.90,112.78L72.76,112.83L74.51,113.10L74.89,113.00L75.11,112.92L75.20,112.90L75.33,112.89L75.48,112.88L75.65,112.87L75.82,112.88L76.58,112.91L76.78,112.93"/><path d="M69.66,112.70L69.83,112.39"/><path d="M71.57,112.99L71.69,112.76L71.74,112.68"/><path d="M72.36,118.22L72.35,118.23"/><path d="M72.35,117.88L72.35,115.73L72.36,115.75L72.41,115.77L72.50,115.79L72.62,115.80L73.92,115.88L74.07,115.89L74.22,115.89L74.35,115.88L74.54,115.85L72.64,115.56L72.46,115.64L72.35,115.73"/><path d="M72.64,115.56L72.64,113.16L74.54,113.45L74.51,113.10"/><path d="M72.64,113.16L72.76,112.83"/><path d="M74.54,115.85L74.54,113.45L74.85,113.38L75.15,113.30L75.38,113.22L75.42,113.21L75.48,113.20L75.65,113.20L75.73,113.20L76.50,113.23L76.64,113.25L76.70,113.26L76.87,113.09L76.81,113.24L77.04,113.46L77.09,113.47L77.18,113.48L77.66,113.49L77.77,113.49L77.85,113.48L78.63,113.29L78.95,113.15L79.07,113.07L79.12,113.04L79.22,113.02L79.36,113.01L79.52,113.00L80.39,113.01"/><path d="M75.18,112.63L76.54,112.69"/><path d="M76.50,115.31L76.54,115.31L76.54,115.63L76.76,115.82L76.81,115.84L76.89,115.86L77.00,115.87L77.61,115.89L77.87,115.88L77.99,115.87L78.08,115.86L78.78,115.70L79.23,115.51L79.35,115.43L79.38,115.42L79.49,115.40L79.66,115.40"/><path d="M76.54,115.31L76.54,113.56L76.76,113.75L76.80,113.77L76.89,113.78L77.01,113.79L77.39,113.81L77.73,113.82L77.87,113.81L78.00,113.80L78.08,113.79L78.78,113.62L79.23,113.44L79.35,113.36L79.38,113.35L79.43,113.34L79.49,113.33L79.66,113.32L80.34,113.33"/><path d="M76.54,113.56L76.59,113.37L76.70,113.26"/><path d="M76.87,113.09L76.92,113.06"/><path d="M80.42,112.80L79.08,112.78"/><path d="M81.54,113.47L81.70,113.53L81.78,113.54L81.88,113.55L82.37,113.55L82.51,113.53L82.54,113.53L83.03,113.32L83.15,113.17L83.14,113.09L83.16,113.06L83.23,113.04L83.34,113.02L83.49,113.01L83.65,113.00L84.61,112.99L84.78,113.00L84.91,113.01L85.02,113.03L85.08,113.05L85.21,113.14L85.39,113.21"/><path d="M81.49,113.84L81.63,113.86L81.88,113.87L82.49,113.87L82.63,113.86L82.73,113.84L82.80,113.83L83.24,113.65L83.43,113.46L83.43,118.26"/><path d="M83.43,113.46L83.42,113.37L83.43,113.36L83.47,113.35L83.53,113.34L83.68,113.33L84.48,113.31L84.65,113.32L84.72,113.32L84.77,113.33L84.80,113.35L84.93,113.43L85.39,113.60"/><path d="M83.20,112.85L83.20,112.98L83.16,112.90"/><path d="M85.37,112.92L83.20,112.98"/></g><g style="stroke:#000000;stroke-width:0.529"><path d="M79.63,118.21L75.73,118.10L75.56,118.10L75.42,118.11L75.38,118.12L75.15,118.20L74.85,118.28L74.46,118.36L74.35,118.37L74.22,118.38L74.07,118.39L73.92,118.38L72.62,118.30L72.50,118.29L72.41,118.27L72.36,118.25L72.35,118.23L72.35,117.88L72.06,117.86L71.90,117.85L71.74,117.86L71.35,117.94L70.43,118.08L69.34,118.19L68.99,118.21L68.89,118.22L68.79,118.21L68.21,118.15L68.16,118.14L68.16,116.42L68.05,116.42L68.05,116.22L67.79,116.18L67.53,116.15L67.22,116.14L66.89,116.14L66.77,116.14L66.77,117.09L66.59,117.10L65.68,117.18L64.47,117.26L63.18,117.30L62.79,117.31L62.64,117.30L62.22,117.21L62.21,117.20L62.21,116.70L61.47,116.70L61.34,116.70L61.21,116.69L61.11,116.68L61.04,116.66L60.71,116.53L60.68,116.51L60.68,115.43L60.41,115.43L59.20,115.35L59.09,115.34L59.01,115.32L58.96,115.30L58.95,115.28L58.95,110.38L58.97,110.31L59.16,110.13"/><path d="M85.42,118.51L84.93,118.33L84.80,118.25L84.77,118.23L84.72,118.22L84.65,118.22L84.48,118.21L83.60,118.23L83.47,118.25L83.43,118.26L83.43,118.36L83.24,118.55L82.80,118.73L82.73,118.74L82.63,118.76L82.51,118.77L81.88,118.77L81.75,118.77L81.63,118.76L81.53,118.75L81.45,118.73L80.97,118.55L80.81,118.42"/></g></g><g id="Actor_.10"><g style="stroke:#000000;stroke-width:0.176"><path d="M67.50,117.06L67.50,117.06L67.53,117.17L68.16,117.61"/><path d="M67.53,116.23L67.72,116.36"/><path d="M68.16,116.67L68.14,116.65"/><path d="M69.80,118.14L70.32,118.28L73.18,118.70L76.74,118.99L77.41,119.02L77.51,119.03L77.59,119.06L77.60,119.07"/></g><g style="stroke:#000000;stroke-width:0.529"><path d="M67.57,116.15L67.53,116.23L67.50,117.01L67.50,117.06L67.50,117.08L67.50,117.08"/></g></g><g id="Actor_.11"><g style="stroke:#000000;stroke-width:0.176"><path d="M55.25,84.09L55.47,83.58L55.71,83.46L56.00,83.44L56.18,83.46L56.74,83.69L57.43,84.32L57.98,85.27L58.26,86.20L58.33,86.43L58.45,87.68L58.33,88.88L57.98,89.90L57.43,90.63L56.74,90.99L56.18,91.00L55.71,90.78L55.49,90.52L55.47,90.48L55.25,89.64"/><path d="M78.17,107.10L77.39,106.95L75.66,106.69L73.53,106.50L71.13,106.40L66.11,106.30L66.11,104.80L65.08,104.53L57.10,102.96L57.04,115.38"/><path d="M59.69,82.74L86.28,87.97L87.35,88.12L88.68,88.22L90.16,88.25L91.62,88.21L92.95,88.11L98.30,87.53L106.40,86.65L107.45,86.50L108.11,86.30L108.33,86.09"/><path d="M65.08,99.82L66.28,100.13L66.89,100.49L66.85,100.85L66.11,101.58L71.13,101.69L73.53,101.79L75.66,101.98L77.39,102.24L65.08,99.82"/><path d="M66.11,104.80L66.11,101.58"/><path d="M106.21,61.81L97.80,62.72L92.49,61.68L92.02,61.60L91.44,61.53L85.47,60.99L84.43,60.93L83.30,60.91L82.19,60.94L81.19,61.02L77.19,61.45L76.13,61.53L74.96,61.56L73.78,61.54L72.71,61.46L71.86,61.34L70.95,61.16L70.40,61.01L70.20,60.83L70.37,60.66L70.90,60.51L71.22,60.46L71.54,60.02L71.93,59.81L72.35,59.84L72.75,60.09L72.88,60.26L75.74,59.95L76.54,59.83L77.06,59.68L77.27,59.52L77.15,59.36L75.33,58.36L75.08,58.27L74.70,58.18L69.40,57.13"/><path d="M70.20,81.60L70.20,83.45L70.40,83.62L70.95,83.77L71.86,83.95L72.71,84.08L73.78,84.15L74.96,84.18L76.13,84.15L77.19,84.07L81.19,83.63L82.19,83.56L83.30,83.53L84.43,83.54L85.47,83.61L91.44,84.15L92.02,84.21L92.49,84.29L97.80,85.33L102.84,84.79L106.21,85.45"/><path d="M70.20,73.20L70.20,60.83"/><path d="M76.69,60.19L72.87,60.60L72.45,60.67L72.19,60.74L72.10,60.83L72.20,60.92L72.48,60.99L73.39,61.17L73.81,61.23L74.25,61.26L74.94,61.28L75.52,61.27L76.05,61.23L79.88,60.82L76.69,60.19L76.69,61.16"/><path d="M71.22,60.46L71.74,60.38L72.88,60.26"/><path d="M75.01,84.78L75.16,85.15L76.12,85.49L77.78,85.77L79.96,85.95L82.44,86.02L84.93,85.97L87.17,85.80L88.89,85.54L89.98,85.20L90.24,84.83L89.68,84.48L88.35,84.16L86.40,83.93L84.04,83.80L81.57,83.80L79.12,83.91L77.10,84.13L75.68,84.43L75.01,84.78"/><path d="M77.39,58.09L76.89,58.14L77.66,58.56L77.66,58.06L77.39,58.09"/><path d="M78.43,59.95L78.07,59.99L80.37,60.44L80.37,59.74L78.43,59.95"/><path d="M77.66,58.56L77.80,58.64L79.61,58.44L77.66,58.06"/><path d="M80.74,59.35L78.49,58.91L80.75,58.66L80.74,59.35L80.76,59.36L83.02,59.11L80.75,58.66"/><path d="M79.48,57.86L79.19,57.89L81.14,58.27L82.25,58.15L82.25,57.56L79.48,57.86"/><path d="M80.37,59.74L83.85,60.43L81.56,60.68L80.37,60.44"/><path d="M84.15,59.33L81.90,59.58L84.15,60.02L84.15,59.33L87.64,60.02L85.38,60.26L84.15,60.02"/><path d="M82.62,58.57L82.27,58.50L85.33,58.17L85.33,58.86L84.55,58.94L82.62,58.57"/><path d="M82.25,58.15L84.20,57.94L82.25,57.56"/><path d="M85.68,59.17L88.74,58.84L92.22,59.52L89.17,59.85L85.68,59.17"/><path d="M85.33,58.86L87.61,58.61L85.33,58.17"/><path d="M86.74,60.46L86.52,60.49L88.77,60.93L88.77,60.24L86.74,60.46"/><path d="M88.77,60.24L91.04,60.69L88.77,60.93"/><path d="M88.74,59.77L88.74,58.84"/><path d="M94.24,121.14L92.95,121.28L91.62,121.38L90.44,121.41"/><path d="M92.18,61.27L90.37,61.11L92.18,60.91L92.18,61.27L93.36,61.38L94.12,61.30L92.18,60.91"/><path d="M90.30,60.08L92.57,60.52L93.36,60.44L93.36,59.74L90.30,60.08"/><path d="M94.02,79.40L93.95,79.28L93.75,78.63L93.68,77.93L93.75,77.25L93.95,76.68L94.26,76.27L94.64,76.06L95.06,76.09L95.47,76.34L95.82,76.79L96.08,77.39L96.22,78.08L96.24,78.43L96.22,78.78L96.08,79.41L95.82,79.91L95.47,80.22L95.06,80.31L94.64,80.17L94.26,79.82L94.02,79.40"/><path d="M94.12,67.80L93.95,67.50L93.75,66.85L93.68,66.15L93.75,65.47L93.95,64.90L94.26,64.49L94.64,64.28L95.06,64.31L95.47,64.56L95.82,65.01L96.08,65.61L96.22,66.30L96.24,66.65L96.22,67.00L96.08,67.63L95.82,68.13L95.47,68.44L95.06,68.53L94.64,68.39L94.26,68.04L94.12,67.80"/><path d="M94.12,60.83L93.71,60.75L96.77,60.42L96.77,61.01L95.66,61.13L94.12,60.83"/><path d="M93.36,59.74L95.63,60.19L93.36,60.44"/><path d="M94.12,61.30L94.13,61.30"/><path d="M96.77,61.01L98.72,60.80L96.77,60.42"/><path d="M97.80,85.33L97.80,62.72"/><path d="M104.94,119.98L101.15,120.39"/></g><g style="stroke:#000000;stroke-width:0.529"><path d="M58.95,115.18L57.04,115.38L56.18,115.22L55.49,115.02L55.24,114.81L55.25,89.64L55.29,88.51L55.42,87.25L55.44,86.62L55.42,86.01L55.29,84.92L55.25,84.09L55.25,83.22"/><path d="M104.94,119.98L106.40,119.82L107.45,119.67L108.11,119.47L108.33,119.26L108.33,86.09L108.08,85.87L107.39,85.68L106.21,85.45L106.21,61.81L77.81,56.22L69.40,57.13L69.40,73.28"/><path d="M81.17,107.69L78.17,107.10"/><path d="M82.35,107.93L85.37,108.52L85.43,120.97L86.28,121.14L87.35,121.29L88.68,121.39L90.16,121.42L90.44,121.41"/><path d="M101.15,120.39L94.24,121.14"/></g></g><g id="Actor_.12"><g style="stroke:#000000;stroke-width:0.176"><path d="M64.73,50.70L64.84,50.79L65.10,50.86L72.77,52.37L73.20,52.43L73.73,52.47L74.91,52.47L79.35,52.00L79.58,52.52L79.96,52.95L80.44,53.19L80.78,53.26"/><path d="M76.53,24.59L76.52,16.72L76.52,17.76"/><path d="M76.52,16.72L76.52,11.49L76.52,12.54"/><path d="M76.52,11.49L76.51,9.40L76.52,10.45"/><path d="M76.51,9.40L76.51,3.13L76.51,4.18"/><path d="M76.51,3.13L76.51,-0.00"/><path d="M79.35,52.00L79.26,51.32L79.26,48.98"/><path d="M104.01,57.83L103.53,57.58L103.15,57.16L102.91,56.60L102.83,55.95L102.83,39.22L103.97,39.44"/><path d="M113.05,56.95L113.05,55.54L104.54,56.46L104.36,56.45L104.20,56.37L104.08,56.23L104.00,56.04L103.97,55.83L103.97,49.17"/><path d="M113.05,55.54L113.05,49.47"/><path d="M156.26,59.55L156.18,59.63L155.91,59.71L155.49,59.77L127.44,62.80L126.26,62.80L125.30,62.70L117.63,61.20L117.36,61.12L117.26,61.03"/><path d="M123.00,57.58L123.00,59.57L123.03,59.78L123.10,59.97L123.23,60.11L123.40,60.19L123.56,60.21L118.74,60.73"/><path d="M121.95,60.38L121.85,59.70L121.85,33.54L123.00,33.76"/><path d="M123.00,56.90L123.00,55.48L129.87,56.83L125.24,57.34"/><path d="M123.00,55.48L123.00,51.47L123.92,51.46L124.64,51.42L125.23,51.34L125.59,51.25L125.77,51.13L125.66,51.02L125.30,50.92L124.74,50.84L124.02,50.79L123.00,50.79L123.00,51.47"/><path d="M123.00,50.79L123.00,48.39"/><path d="M132.94,49.84L132.91,49.88L133.00,49.97L133.29,50.05L134.34,50.16L134.97,50.17L135.60,50.14L136.15,50.09L136.55,50.02L136.78,49.93L136.79,49.84L136.76,49.83"/><path d="M134.90,60.43L134.85,60.48L135.00,60.62L135.42,60.74L136.11,60.84L137.00,60.89L137.93,60.91L138.86,60.88L139.67,60.80L140.28,60.70L140.60,60.57L140.63,60.42L140.34,60.29L139.77,60.18L138.98,60.10L138.06,60.06L137.11,60.07L136.22,60.13L135.50,60.22L135.03,60.34L134.90,60.43"/><path d="M134.92,33.58L135.55,33.64L137.68,34.74L139.38,36.65L140.46,39.15L140.84,42.03L140.84,59.36L139.98,59.20L139.98,54.81L139.42,54.79L138.51,54.68L138.30,54.63L138.07,54.53L138.08,54.41L138.35,54.31L138.85,54.22L139.98,54.14L139.98,54.81"/><path d="M139.98,54.14L139.98,46.55"/><path d="M140.84,59.36L150.47,58.32"/><path d="M150.46,52.05L150.67,56.14L228.27,47.72L228.69,47.66L228.96,47.58L229.04,47.49"/><path d="M150.42,51.23L150.12,45.45"/><path d="M150.67,56.14L150.74,57.54"/><path d="M181.06,46.23L180.51,46.14L179.87,45.99L179.17,45.67L179.23,45.32L180.04,45.00L181.53,44.74L183.52,44.55L185.82,44.48L188.16,44.51L190.28,44.66L191.98,44.90L193.05,45.20L193.39,45.54L192.95,45.88L191.78,46.18L191.40,46.23"/><path d="M180.93,51.63L181.60,51.29L181.67,50.65L180.61,50.03L180.00,49.87"/><path d="M189.87,43.59L190.13,43.49L190.33,43.45L191.30,43.34L192.85,43.32L193.56,43.37L194.12,43.45L194.48,43.55L194.59,43.67L194.44,43.78L194.04,43.88L193.47,43.95L192.74,44.00L191.96,44.00L191.21,43.97L190.30,43.87L190.09,43.82L189.85,43.71L189.87,43.59"/><path d="M192.81,48.55L192.77,48.58L192.86,48.67L193.21,48.76L194.20,48.86L194.84,48.87L195.46,48.85L196.01,48.80L196.42,48.73L196.64,48.64L196.65,48.55L196.62,48.53"/><path d="M206.90,47.01L206.89,47.06L207.12,47.16L207.60,47.26L208.24,47.32L209.00,47.36L209.78,47.35L210.50,47.30L211.09,47.23L211.48,47.13L211.63,47.02L211.52,46.90L211.16,46.80L210.59,46.72L209.88,46.67L209.10,46.66L208.34,46.69L207.68,46.75L207.17,46.84L206.91,46.94L206.90,47.01"/><path d="M228.19,47.23L223.56,46.32L251.20,43.32L251.62,43.26L251.88,43.18L251.97,43.10"/><path d="M238.36,41.47L237.83,41.42L237.10,41.27L236.73,41.11L236.73,40.93L237.10,40.77L238.14,40.56L238.33,40.49L238.37,40.41"/></g><g style="stroke:#000000;stroke-width:0.529"><path d="M76.42,-0.00L76.42,24.50L76.53,24.59L76.84,24.68L79.26,25.16L79.26,48.98L65.08,50.53L64.81,50.61L64.73,50.70L64.73,52.11L64.84,52.20L65.10,52.28L72.77,53.78L73.73,53.88L74.91,53.88L75.43,53.84L80.78,53.26L104.01,57.83L104.54,57.88L113.05,56.95L113.05,57.96L113.13,58.61L113.37,59.17L113.75,59.59L114.23,59.84L118.74,60.73L117.61,60.87L117.35,60.95L117.26,61.03L117.26,62.45L117.36,62.53L117.63,62.61L125.30,64.12L126.26,64.22L127.44,64.21L155.49,61.19L155.91,61.13L156.18,61.05L156.26,60.96L156.26,59.55L156.16,59.46L155.89,59.38L150.47,58.32L150.78,58.29L150.74,57.54L228.27,49.13L228.69,49.07L228.96,48.99L229.04,48.91L229.02,47.48L228.95,47.41L228.19,47.23L251.20,44.74L251.62,44.68L251.88,44.60L251.97,44.51L251.97,43.10L251.87,43.01L251.59,42.94L244.36,41.53L243.36,41.48L241.17,41.57L239.97,41.57L238.37,41.47L238.37,40.41L238.26,40.33L231.15,38.91L230.19,38.81L229.60,38.80L228.48,38.86L200.84,41.86L195.73,40.85L194.77,40.75L193.59,40.75L172.29,43.05"/><path d="M104.58,49.29L103.97,49.17L103.97,39.44L113.05,41.23L113.05,49.47L108.18,50.00L104.58,49.29"/><path d="M123.40,57.54L123.00,57.58L123.00,56.90L125.24,57.34L123.40,57.54"/><path d="M139.98,46.55L123.00,48.39L123.00,33.76L124.75,34.08L126.00,34.14L126.66,34.12L133.20,33.43L134.92,33.58L136.83,34.58L138.52,36.48L139.61,38.99L139.98,41.86L139.98,46.55"/><path d="M150.12,45.45L150.00,43.05L149.47,40.20L148.23,37.78L146.14,33.99L144.93,29.58L144.69,24.84L145.43,20.08L147.10,15.59L148.07,12.76L148.30,9.77L147.80,-0.00"/><path d="M180.00,51.29L180.61,51.45L180.92,51.64L180.41,51.90L178.18,52.44L175.05,52.89L171.25,53.19L167.03,53.35L162.68,53.34L161.32,53.28L158.49,53.17L154.76,52.84L151.73,52.38L150.46,52.05L150.42,51.23"/><path d="M150.73,45.39L150.12,45.45"/><path d="M181.29,46.27L181.06,46.23L181.53,46.15L183.52,45.97L185.82,45.89L188.16,45.93L190.28,46.07L191.38,46.23L190.02,46.41L187.84,46.54L185.49,46.56L183.23,46.46L181.29,46.27"/><path d="M191.38,46.23L191.40,46.23"/></g></g><g><g/><g><path style="fill:#ffffa0" d="M129.12,173.46L243.44,173.46L243.44,154.41L129.12,154.41z"/><path style="stroke:#000000;stroke-width:0.250;stroke-opacity:0.98" d="M129.12,173.46L243.44,173.46L243.44,154.41L129.12,154.41z"/><text xml:space="preserve" fill="#000000" stroke-width="0" x="130.18" y="160.49" font-size="5.17" opacity="1.00" font-family="MS Shell Dlg">Una volta estratto il tubo dalla cartuccia, lasciare </text><text xml:space="preserve" fill="#000000" stroke-width="0" x="130.18" y="165.78" font-size="5.17" opacity="1.00" font-family="MS Shell Dlg">defluire il colorante residuo nel contenitore </text><text xml:space="preserve" fill="#000000" stroke-width="0" x="130.18" y="171.07" font-size="5.16" opacity="1.00" font-family="MS Shell Dlg">posizionato in precedenza</text></g></g><g><g><path style="stroke:#ff0000;stroke-width:0.250" d="M69.26,164.33L73.49,164.33L82.43,103.26"/></g><g><path style="fill:#000000" d="M83.43,103.26L83.42,103.16L83.41,103.06L83.38,102.97L83.35,102.87L83.31,102.78L83.26,102.70L83.20,102.62L83.13,102.55L83.06,102.48L82.98,102.42L82.90,102.37L82.81,102.33L82.72,102.30L82.62,102.27L82.52,102.26L82.43,102.26L82.33,102.26L82.23,102.27L82.13,102.30L82.04,102.33L81.95,102.37L81.87,102.42L81.79,102.48L81.72,102.55L81.65,102.62L81.59,102.70L81.54,102.78L81.50,102.87L81.47,102.97L81.44,103.06L81.43,103.16L81.43,103.26L81.43,103.35L81.44,103.45L81.47,103.55L81.50,103.64L81.54,103.73L81.59,103.81L81.65,103.89L81.72,103.96L81.79,104.03L81.87,104.09L81.95,104.14L82.04,104.18L82.13,104.21L82.23,104.24L82.33,104.25L82.43,104.26L82.52,104.25L82.62,104.24L82.72,104.21L82.81,104.18L82.90,104.14L82.98,104.09L83.06,104.03L83.13,103.96L83.20,103.89L83.26,103.81L83.31,103.73L83.35,103.64L83.38,103.55L83.41,103.45L83.42,103.35z"/></g><g><path style="fill:#ffffff" d="M27.07,197.66L69.26,197.66L69.26,131.00L27.07,131.00z"/><path style="stroke:#ff0000;stroke-width:0.250;stroke-opacity:0.98" d="M27.07,197.66L69.26,197.66L69.26,131.00L27.07,131.00z"/><text xml:space="preserve" fill="#000000" stroke-width="0" x="28.13" y="137.08" font-size="5.09" opacity="1.00" font-family="MS Shell Dlg">Estrarre il </text><text xml:space="preserve" fill="#000000" stroke-width="0" x="28.13" y="142.38" font-size="5.17" opacity="1.00" font-family="MS Shell Dlg">frontalino dalla </text><text xml:space="preserve" fill="#000000" stroke-width="0" x="28.13" y="147.67" font-size="5.17" opacity="1.00" font-family="MS Shell Dlg">sua sede e </text><text xml:space="preserve" fill="#000000" stroke-width="0" x="28.13" y="152.96" font-size="5.17" opacity="1.00" font-family="MS Shell Dlg">successivament</text><text xml:space="preserve" fill="#000000" stroke-width="0" x="28.13" y="158.25" font-size="5.15" opacity="1.00" font-family="MS Shell Dlg">e sfilare il tubo di </text><text xml:space="preserve" fill="#000000" stroke-width="0" x="28.13" y="163.54" font-size="5.11" opacity="1.00" font-family="MS Shell Dlg">ricircolo dalla </text><text xml:space="preserve" fill="#000000" stroke-width="0" x="28.13" y="168.83" font-size="5.15" opacity="1.00" font-family="MS Shell Dlg">cartuggia </text><text xml:space="preserve" fill="#000000" stroke-width="0" x="28.13" y="174.12" font-size="5.17" opacity="1.00" font-family="MS Shell Dlg">JohnGuest </text><text xml:space="preserve" fill="#000000" stroke-width="0" x="28.13" y="179.41" font-size="5.19" opacity="1.00" font-family="MS Shell Dlg">facendo </text><text xml:space="preserve" fill="#000000" stroke-width="0" x="28.13" y="184.70" font-size="5.11" opacity="1.00" font-family="MS Shell Dlg">pressione </text><text xml:space="preserve" fill="#000000" stroke-width="0" x="28.13" y="189.99" font-size="5.13" opacity="1.00" font-family="MS Shell Dlg">sull'anello di </text><text xml:space="preserve" fill="#000000" stroke-width="0" x="28.13" y="195.28" font-size="5.17" opacity="1.00" font-family="MS Shell Dlg">tenuta</text></g></g><g/><g id="paperID" visibility="hidden" opacity="0.00" transform="scale(0.000100)"><path style="stroke:#000000;stroke-width:0.500;fill:#e6e6e6;fill-rule:evenodd" d="M-2000.00,-2000.00L2297.00,-2000.00L2297.00,2210.00L-2000.00,2210.00zM0.00,0.00L297.00,0.00L297.00,210.00L0.00,210.00z"/><path style="fill:#000000;fill-opacity:0.118" d="M3.00,210.00L297.00,210.00L297.00,3.00L300.00,3.00L300.00,213.00L3.00,213.00z"/></g><g id="hotspot.0" ident="" onmouseover="ShowHotSpot(evt,&apos;0&apos;)" onmouseout="HideHotSpot(evt,&apos;0&apos;)" onmousemove="ShowToolTip(evt,&apos;0&apos;,&quot;301002514&quot;)" opacity="0"><a xlink:href="file://C:\Users\jacopo.giacometti\Desktop\Immagini sostituzione frontalino\200100357_frontalino_Esploso.svg"><path style="fill:#00ff00;fill-rule:evenodd" d="M65.88,104.51L66.15,104.75L66.27,106.14L73.41,106.30L76.18,106.55L85.25,108.30L85.27,112.66L83.38,112.58L83.12,112.82L81.23,112.82L80.97,112.58L79.10,112.58L78.63,112.86L76.95,112.82L76.69,112.58L72.66,112.34L59.80,110.35L59.04,109.59L58.99,104.55L59.56,104.11L59.74,103.79L62.33,103.79z"/></a></g><g id="hotspot.1" ident="" onmouseover="ShowHotSpot(evt,&apos;1&apos;)" onmouseout="HideHotSpot(evt,&apos;1&apos;)" onmousemove="ShowToolTip(evt,&apos;1&apos;,&quot;ANELLO TENUTA VALVOLA CERAMICA&quot;)" opacity="0"><a xlink:href="file://C:\Users\jacopo.giacometti\Desktop\Immagini sostituzione frontalino\200100357_frontalino_Esploso.svg"><path style="fill:#00ff00;fill-rule:evenodd" d="M68.13,116.35L67.81,116.43L67.89,116.11z"/></a></g><g id="hotspot.2" ident="" onmouseover="ShowHotSpot(evt,&apos;2&apos;)" onmouseout="HideHotSpot(evt,&apos;2&apos;)" onmousemove="ShowToolTip(evt,&apos;2&apos;,&quot;302002772&quot;)" opacity="0"><a xlink:href="file://C:\Users\jacopo.giacometti\Desktop\Immagini sostituzione frontalino\200100357_frontalino_Esploso.svg"><path style="fill:#00ff00;fill-rule:evenodd" d="M101.65,122.39L101.65,122.76L100.78,123.18L97.20,123.15L98.50,122.16L99.25,121.90L100.60,121.90z"/></a></g><g id="hotspot.3" ident="" onmouseover="ShowHotSpot(evt,&apos;3&apos;)" onmouseout="HideHotSpot(evt,&apos;3&apos;)" onmousemove="ShowToolTip(evt,&apos;3&apos;,&quot;301002500&quot;)" opacity="0"><a xlink:href="file://C:\Users\jacopo.giacometti\Desktop\Immagini sostituzione frontalino\200100357_frontalino_Esploso.svg"><path style="fill:#00ff00;fill-rule:evenodd" d="M55.54,114.85L56.54,115.12L58.81,115.11L60.58,115.35L60.81,116.39L62.06,116.64L62.28,116.93L66.62,116.96L66.80,116.09L67.35,116.09L67.63,117.12L68.10,117.40L68.30,117.95L72.40,118.38L78.44,118.89L85.25,119.13L85.41,120.72L85.97,120.92L88.26,121.15L91.95,121.15L107.85,119.43L108.33,118.63L108.63,118.58L109.15,118.89L109.15,121.98L108.59,122.18L104.54,122.66L102.08,122.68L100.60,121.90L99.25,121.90L98.50,122.16L96.98,123.41L92.96,123.92L85.74,123.92L79.70,122.91L72.15,122.41L60.83,120.14L59.80,118.90L54.46,117.70L54.46,114.60L55.07,114.35z"/></a></g><g id="hotspot.4" ident="" onmouseover="ShowHotSpot(evt,&apos;4&apos;)" onmouseout="HideHotSpot(evt,&apos;4&apos;)" onmousemove="ShowToolTip(evt,&apos;4&apos;,&quot;301002513&quot;)" opacity="0"><a xlink:href="file://C:\Users\jacopo.giacometti\Desktop\Immagini sostituzione frontalino\200100357_frontalino_Esploso.svg"><path style="fill:#00ff00;fill-rule:evenodd" d="M59.81,110.34L72.66,112.34L76.69,112.58L76.95,112.82L78.63,112.86L79.10,112.58L80.97,112.58L81.23,112.82L83.12,112.82L83.38,112.58L85.02,112.56L85.27,112.81L85.27,118.20L83.38,118.12L83.12,118.36L80.98,118.36L80.72,118.12L73.15,118.14L72.15,117.88L68.28,117.97L68.16,116.34L67.91,116.09L66.78,116.11L66.62,116.96L62.28,116.93L62.06,116.64L60.81,116.39L60.58,115.36L58.97,115.20L58.98,110.05L59.30,110.03z"/></a></g><g id="hotspot.5" ident="" onmouseover="ShowHotSpot(evt,&apos;5&apos;)" onmouseout="HideHotSpot(evt,&apos;5&apos;)" onmousemove="ShowToolTip(evt,&apos;5&apos;,&quot;301002794&quot;)" opacity="0"><a xlink:href="file://C:\Users\jacopo.giacometti\Desktop\Immagini sostituzione frontalino\200100357_frontalino_Esploso.svg"><path style="fill:#00ff00;fill-rule:evenodd" d="M68.13,116.66L68.14,117.21L67.63,117.16L67.59,116.12zM73.15,118.14L80.72,118.12L80.98,118.36L83.12,118.36L83.38,118.12L85.02,118.10L85.29,118.37L85.26,118.96L78.44,118.89L72.40,118.38L70.59,118.14L70.30,117.86L72.15,117.88z"/></a></g><g id="hotspot.6" ident="" onmouseover="ShowHotSpot(evt,&apos;6&apos;)" onmouseout="HideHotSpot(evt,&apos;6&apos;)" onmousemove="ShowToolTip(evt,&apos;6&apos;,&quot;301002495&quot;)" opacity="0"><a xlink:href="file://C:\Users\jacopo.giacometti\Desktop\Immagini sostituzione frontalino\200100357_frontalino_Esploso.svg"><path style="fill:#00ff00;fill-rule:evenodd" d="M105.65,61.48L106.13,61.75L106.31,85.23L107.92,85.64L108.18,85.88L108.14,119.22L107.84,119.42L91.95,121.15L88.26,121.15L85.97,120.92L85.41,120.72L85.25,108.30L76.18,106.55L73.41,106.30L66.27,106.14L66.15,104.75L65.88,104.51L62.33,103.79L59.74,103.79L59.56,104.11L58.99,104.55L59.07,109.59L58.82,114.95L57.72,115.11L56.54,115.12L55.54,114.86L55.29,114.61L55.28,81.47L55.95,81.12L68.82,79.64L69.38,79.45L69.54,56.96L76.10,56.21L78.69,56.22z"/></a></g><g id="ToolTip" visibility="hidden" opacity="0" transform="translate(0,0)"><rect id="ToolTipShadow" opacity="0.20" fill="black" stroke="none" x="0" y="0" width="30" height="8"/><rect id="ToolTipBG" fill="#ffffe1" stroke="black" x="0" y="0" width="30" height="8"/><text xml:space="preserve" id="ToolTipText" fill="black" x="0" y="0" width="30" height="8">tooltip</text></g></g></svg>